<svg xmlns="http://www.w3.org/2000/svg" xmlns:xlink="http://www.w3.org/1999/xlink" viewBox="0 0 61.8 121.72"><defs><style>.cls-1{fill:url(#linear-gradient);}.cls-2{fill:url(#linear-gradient-2);}.cls-3{fill:url(#linear-gradient-3);}.cls-21,.cls-23,.cls-24,.cls-25,.cls-29,.cls-30,.cls-36,.cls-37,.cls-4{fill:none;}.cls-4{stroke:#42210b;opacity:0.33;}.cls-21,.cls-23,.cls-24,.cls-25,.cls-26,.cls-29,.cls-30,.cls-36,.cls-37,.cls-4{stroke-miterlimit:10;}.cls-29,.cls-4{stroke-width:0.25px;}.cls-5{fill:url(#linear-gradient-4);}.cls-26,.cls-6{fill:#a37762;}.cls-7{fill:#a87c67;}.cls-8{fill:#ae816c;}.cls-9{fill:#b38672;}.cls-10{fill:#b88b77;}.cls-11{fill:#bd907c;}.cls-12{fill:#c39481;}.cls-13{fill:#c89986;}.cls-14{fill:#cd9e8b;}.cls-15{fill:#d2a391;}.cls-16{fill:#d8a896;}.cls-17{fill:#ddad9b;}.cls-18{fill:url(#linear-gradient-5);}.cls-19{fill:url(#linear-gradient-6);}.cls-20{fill:url(#linear-gradient-7);}.cls-21,.cls-23,.cls-24,.cls-29,.cls-30{stroke:#000;}.cls-21,.cls-24,.cls-25,.cls-26,.cls-37{stroke-linecap:round;}.cls-21{stroke-width:2px;}.cls-22{fill:#694635;}.cls-24,.cls-25,.cls-26,.cls-30{stroke-width:0.5px;}.cls-25,.cls-26{stroke:#fff;}.cls-27{fill:#a06c55;}.cls-28{fill:#6a4837;}.cls-31{fill:url(#linear-gradient-8);}.cls-32{fill:#1f0d05;}.cls-33{fill:url(#linear-gradient-9);}.cls-34{fill:#2e2e56;}.cls-35{fill:#7a78d1;}.cls-36,.cls-37{stroke:#66afc6;}</style><linearGradient id="linear-gradient" x1="34.02" y1="77" x2="80.56" y2="77" gradientTransform="translate(-7.68 17.94) rotate(5.92)" gradientUnits="userSpaceOnUse"><stop offset="0.21" stop-color="#97e0fe"/><stop offset="0.83" stop-color="#6fb1cc"/></linearGradient><linearGradient id="linear-gradient-2" x1="44.96" y1="26.92" x2="43.08" y2="13.46" gradientTransform="translate(-7.68 17.94) rotate(5.92)" gradientUnits="userSpaceOnUse"><stop offset="0" stop-color="#c49179"/><stop offset="0.55" stop-color="#a37865"/><stop offset="1" stop-color="#5e4538"/></linearGradient><linearGradient id="linear-gradient-3" x1="91.07" y1="34.6" x2="52.31" y2="38.32" gradientTransform="translate(-7.68 17.94) rotate(5.92)" gradientUnits="userSpaceOnUse"><stop offset="0.21" stop-color="#c49179"/><stop offset="0.55" stop-color="#a37865"/><stop offset="0.66" stop-color="#a17764"/><stop offset="0.7" stop-color="#9a725f"/><stop offset="0.73" stop-color="#8f6958"/><stop offset="0.75" stop-color="#7e5c4d"/><stop offset="0.77" stop-color="#684c3e"/><stop offset="0.78" stop-color="#5e4538"/></linearGradient><linearGradient id="linear-gradient-4" x1="17.09" y1="40.36" x2="35.02" y2="40.36" xlink:href="#linear-gradient-2"/><linearGradient id="linear-gradient-5" x1="-119" y1="291.53" x2="-115.34" y2="291.53" gradientTransform="translate(-10.17 -283.14) rotate(-27.59)" gradientUnits="userSpaceOnUse"><stop offset="0.55" stop-color="#a37865"/><stop offset="1" stop-color="#5e4538"/></linearGradient><linearGradient id="linear-gradient-6" x1="-995.77" y1="136.76" x2="-992.12" y2="136.76" gradientTransform="matrix(-0.99, 0.13, 0.13, 0.99, -962.32, 16.02)" xlink:href="#linear-gradient-5"/><linearGradient id="linear-gradient-7" x1="41.74" y1="27.8" x2="36.1" y2="-12.6" gradientTransform="translate(-7.68 17.94) rotate(5.92)" gradientUnits="userSpaceOnUse"><stop offset="0.21" stop-color="#c49179"/><stop offset="0.55" stop-color="#a37865"/><stop offset="0.67" stop-color="#a17664"/><stop offset="0.72" stop-color="#99715f"/><stop offset="0.76" stop-color="#8d6756"/><stop offset="0.8" stop-color="#7a5a4a"/><stop offset="0.83" stop-color="#63493b"/><stop offset="0.84" stop-color="#5e4538"/></linearGradient><linearGradient id="linear-gradient-8" x1="30.27" y1="-23.17" x2="37.32" y2="-1.3" gradientTransform="translate(-7.68 17.94) rotate(5.92)" gradientUnits="userSpaceOnUse"><stop offset="0.17" stop-color="#401e10"/><stop offset="0.56" stop-color="#1f0d05"/><stop offset="0.93" stop-color="#120703"/></linearGradient><linearGradient id="linear-gradient-9" x1="28.95" y1="32.35" x2="64.5" y2="48.16" gradientTransform="translate(-7.68 17.94) rotate(5.92)" gradientUnits="userSpaceOnUse"><stop offset="0" stop-color="#9690c8"/><stop offset="0.62" stop-color="#5143b6"/><stop offset="1" stop-color="#2e2666"/></linearGradient></defs><g id="Layer_2" data-name="Layer 2"><g id="Layer_2-2" data-name="Layer 2"><path class="cls-1" d="M23.79,121.72s20.86-10.55,31.29-35.65c0,0,.56-2.89-4.58-7.79,0,0-9.86,8.48-26.93,3.5C23.57,81.78,11.23,98.08,23.79,121.72Z"/><path class="cls-2" d="M27.11,43.28s1.7,3.82,7.5,4c0,0,6.74-1,6.29-6.15,0,0-5.32.56-4.81-5.16,0,0-2.36,2.92-6.64.08C29.45,36,31.55,41.73,27.11,43.28Z"/><path class="cls-3" d="M47.39,60.44l.67-3.95A4.19,4.19,0,0,0,52,52.41l3.82,7.71a9,9,0,0,1,6,3.7s-.27,5.1-2.3,6.9L49.86,66.3Z"/><path class="cls-4" d="M9.07,49.26a6.16,6.16,0,0,1,3.13-7.88"/><path class="cls-5" d="M6.24,49.44s2.36,5.63,2.53,8.41.55,13.21,9,17L19,74.36a4.28,4.28,0,0,0,2.62-3.12l.7-3.38L21,63.1l-.84-2.7A4.76,4.76,0,0,1,20,58.06l.17-.82a3.21,3.21,0,0,1-3-1.84,2.83,2.83,0,0,1-.14-.35c-.85-2.33,0,.13,0,.13l-.29,4.08S13,51.81,13.49,47A64.16,64.16,0,0,0,6.24,49.44Z"/><path class="cls-6" d="M13.74,49l3-8.38,1-6.73s-.7-1.44-1.65-.17l-1,5.11L14,39.69,10.05,28.46s-1.46-1.26-1.36.67a21.31,21.31,0,0,0,1.22,4.72,3,3,0,0,1,0,2.12h0a2.89,2.89,0,0,1-2-1.77L6,29.32s-1.51-.75-1.4.71a22.4,22.4,0,0,0,1.78,4.89,3,3,0,0,1,.09,2.24h0a3.9,3.9,0,0,1-1.9-2l-2-5s-2.06-1-1.48,1a44.43,44.43,0,0,0,2.74,6l-.51,1.09-.73-.4-1.27-3.4S-.25,33.3,0,35.08,4.1,46.67,4.1,46.67L6,49.56S11.28,54.09,13.74,49Z"/><path class="cls-7" d="M13.69,48.81l2.93-8.25,1-6.63S17,32.5,16,33.76l-1,5-1.06.86L10,28.59s-1.44-1.25-1.34.66A20.85,20.85,0,0,0,9.9,33.9,2.93,2.93,0,0,1,9.85,36h0a2.86,2.86,0,0,1-2-1.74L6,29.43s-1.49-.74-1.38.7A21.9,21.9,0,0,0,6.39,35a2.94,2.94,0,0,1,.08,2.2h0a3.83,3.83,0,0,1-1.87-2l-2-4.88s-2-1-1.46,1a44.12,44.12,0,0,0,2.72,5.9l-.5,1.07-.72-.39L1.41,34.48S-.16,33.34.12,35.1s4,11.41,4,11.41l1.9,2.85S11.27,53.82,13.69,48.81Z"/><path class="cls-8" d="M13.65,48.62l2.89-8.12,1-6.53s-.69-1.4-1.61-.17l-1,5-1.05.84L10,28.71s-1.42-1.23-1.33.65a20.12,20.12,0,0,0,1.2,4.58,2.84,2.84,0,0,1,0,2.05h0a2.81,2.81,0,0,1-2-1.71L6,29.54s-1.47-.73-1.37.69A22,22,0,0,0,6.41,35a2.86,2.86,0,0,1,.08,2.17h0a3.77,3.77,0,0,1-1.85-2L2.7,30.35s-2-1-1.44,1A42.87,42.87,0,0,0,4,37.14l-.5,1-.71-.38-1.25-3.3s-1.56-1.12-1.28.61,4,11.24,4,11.24l1.89,2.81S11.25,53.56,13.65,48.62Z"/><path class="cls-9" d="M13.6,48.44l2.86-8,1-6.43s-.69-1.38-1.6-.17l-1,4.88-1,.83L10,28.84s-1.41-1.21-1.31.64A19.59,19.59,0,0,0,9.87,34a2.87,2.87,0,0,1,0,2h0a2.83,2.83,0,0,1-1.95-1.69L6.05,29.65s-1.46-.72-1.36.68A21.09,21.09,0,0,0,6.43,35a2.81,2.81,0,0,1,.09,2.13h0a3.69,3.69,0,0,1-1.84-2L2.76,30.45s-2-.94-1.43,1A42.57,42.57,0,0,0,4,37.13l-.49,1-.71-.38L1.56,34.53S0,33.44.29,35.14s4,11.06,4,11.06L6.12,49S11.23,53.3,13.6,48.44Z"/><path class="cls-10" d="M13.55,48.25l2.83-7.86,1-6.32s-.69-1.36-1.59-.17l-1,4.8-1,.82L10,29s-1.39-1.19-1.3.63A19.6,19.6,0,0,0,9.85,34a2.73,2.73,0,0,1,0,2h0a2.8,2.8,0,0,1-1.93-1.67L6.07,29.76s-1.44-.71-1.34.67A20.59,20.59,0,0,0,6.45,35a2.74,2.74,0,0,1,.09,2.1h0A3.63,3.63,0,0,1,4.72,35.2l-1.9-4.66s-2-.93-1.42.95a41,41,0,0,0,2.65,5.63l-.49,1-.7-.37L1.63,34.56S.1,33.48.38,35.16,4.3,46.05,4.3,46.05l1.85,2.72S11.21,53,13.55,48.25Z"/><path class="cls-11" d="M13.51,48.07l2.79-7.73,1-6.23S16.6,32.78,15.7,34l-1,4.72-1,.8L10,29.09s-1.38-1.17-1.28.61a18.88,18.88,0,0,0,1.17,4.37,2.71,2.71,0,0,1,0,2h0a2.76,2.76,0,0,1-1.9-1.64L6.09,29.87s-1.43-.7-1.32.66a20.51,20.51,0,0,0,1.7,4.52,2.63,2.63,0,0,1,.09,2.06h0a3.61,3.61,0,0,1-1.8-1.89L2.88,30.64s-2-.92-1.4.93a40.11,40.11,0,0,0,2.61,5.54l-.48,1-.69-.37L1.7,34.59S.19,33.53.47,35.18,4.35,45.9,4.35,45.9l1.84,2.68S11.19,52.77,13.51,48.07Z"/><path class="cls-12" d="M13.46,47.88l2.76-7.6,1-6.12s-.67-1.31-1.55-.16l-1,4.64-1,.79L9.93,29.21s-1.36-1.15-1.26.61a18.2,18.2,0,0,0,1.15,4.29,2.68,2.68,0,0,1,0,1.93h0A2.73,2.73,0,0,1,7.9,34.42L6.12,30s-1.42-.69-1.32.64a20.43,20.43,0,0,0,1.7,4.45,2.63,2.63,0,0,1,.08,2h0A3.57,3.57,0,0,1,4.8,35.24L2.93,30.73s-1.93-.9-1.38.92A40.42,40.42,0,0,0,4.14,37.1l-.47,1L3,37.72l-1.2-3.1s-1.5-1-1.23.58S4.4,45.74,4.4,45.74l1.82,2.64S11.18,52.51,13.46,47.88Z"/><path class="cls-13" d="M13.42,47.7l2.72-7.48.94-6s-.66-1.29-1.53-.16l-1,4.56-1,.78-3.68-10s-1.36-1.14-1.26.59a18.36,18.36,0,0,0,1.15,4.23,2.57,2.57,0,0,1,0,1.89h0a2.7,2.7,0,0,1-1.87-1.59L6.14,30.09s-1.4-.68-1.3.63A19.66,19.66,0,0,0,6.52,35.1a2.57,2.57,0,0,1,.09,2h0a3.55,3.55,0,0,1-1.77-1.83L3,30.83s-1.91-.89-1.36.9a39.19,39.19,0,0,0,2.56,5.36l-.47,1-.67-.36-1.2-3.05s-1.48-1-1.21.57S4.45,45.59,4.45,45.59l1.8,2.59S11.16,52.24,13.42,47.7Z"/><path class="cls-14" d="M13.37,47.52l2.69-7.35L17,34.26s-.66-1.27-1.52-.16l-.94,4.48-1,.77L9.9,29.46s-1.34-1.11-1.24.59A17.68,17.68,0,0,0,9.79,34.2a2.49,2.49,0,0,1,0,1.86h0A2.64,2.64,0,0,1,7.92,34.5L6.16,30.2s-1.38-.67-1.28.62a18.86,18.86,0,0,0,1.66,4.3,2.5,2.5,0,0,1,.09,2h0a3.49,3.49,0,0,1-1.75-1.8L3.05,30.93s-1.9-.88-1.35.88a38.88,38.88,0,0,0,2.54,5.27l-.46,1-.67-.35-1.19-3s-1.46-1-1.19.56S4.51,45.43,4.51,45.43L6.29,48S11.14,52,13.37,47.52Z"/><path class="cls-15" d="M13.33,47.33,16,40.11l.91-5.81s-.64-1.25-1.5-.15l-.92,4.4-1,.75L9.88,29.59s-1.33-1.1-1.23.57a17.5,17.5,0,0,0,1.13,4.08,2.46,2.46,0,0,1,0,1.83h0a2.65,2.65,0,0,1-1.83-1.53L6.19,30.31s-1.37-.66-1.27.61a19,19,0,0,0,1.64,4.23,2.4,2.4,0,0,1,.09,1.93h0a3.47,3.47,0,0,1-1.73-1.77L3.11,31s-1.88-.86-1.34.87a38.57,38.57,0,0,0,2.52,5.18L3.83,38l-.66-.35L2,34.71s-1.46-1-1.19.55,3.75,10,3.75,10l1.76,2.51S11.12,51.72,13.33,47.33Z"/><path class="cls-16" d="M13.28,47.15l2.62-7.09.9-5.71s-.64-1.23-1.48-.15l-.91,4.32-1,.74L9.86,29.71s-1.31-1.07-1.21.57a17,17,0,0,0,1.11,4,2.36,2.36,0,0,1,0,1.79h0a2.59,2.59,0,0,1-1.81-1.51L6.21,30.42S4.85,29.78,5,31a18.54,18.54,0,0,0,1.63,4.15,2.33,2.33,0,0,1,.09,1.9h0A3.37,3.37,0,0,1,5,35.33L3.17,31.12s-1.86-.85-1.32.85a36.17,36.17,0,0,0,2.49,5.09L3.89,38l-.66-.34-1.16-2.9s-1.44-1-1.17.54,3.71,9.84,3.71,9.84l1.74,2.47S11.1,51.45,13.28,47.15Z"/><path class="cls-17" d="M13.24,47l2.58-7,.89-5.6s-.64-1.21-1.47-.16l-.9,4.26-.95.72L9.84,29.84s-1.3-1.06-1.2.55a17,17,0,0,0,1.11,3.94,2.33,2.33,0,0,1,0,1.76h0a2.55,2.55,0,0,1-1.78-1.48L6.23,30.53S4.89,29.9,5,31.12A18.06,18.06,0,0,0,6.61,35.2a2.32,2.32,0,0,1,.09,1.86h0A3.34,3.34,0,0,1,5,35.35L3.22,31.21s-1.83-.83-1.3.84a35.85,35.85,0,0,0,2.47,5l-.45.9-.65-.33L2.14,34.77s-1.42-1-1.15.53S4.66,45,4.66,45l1.73,2.42S11.09,51.19,13.24,47Z"/><path class="cls-4" d="M9.67,47.44a6.37,6.37,0,0,1,.12-4.86,6.28,6.28,0,0,1,3-3"/><line class="cls-4" x1="7.23" y1="45.26" x2="10.9" y2="38.28"/><path class="cls-4" d="M4.23,42.56A7.26,7.26,0,0,0,10,39"/><path class="cls-18" d="M22.77,28.57c.75,1.44,2.8,1.85,1.36,2.6A2.93,2.93,0,0,1,21.41,26C22.85,25.22,22,27.14,22.77,28.57Z"/><path class="cls-19" d="M39,26.5c.21,1.61-1.24,3.12.37,2.92a2.94,2.94,0,1,0-.74-5.83C37,23.79,38.75,24.89,39,26.5Z"/><path class="cls-20" d="M40.15,22.86l-1-6.26a2.76,2.76,0,0,0-3.19-2.27L22.07,16.64a2.79,2.79,0,0,0-2.28,3.2s1.16,6.52,1.26,6.61l1,3c.14.39.29.76.46,1.13a21.61,21.61,0,0,0,2,3.6c.33.12,3.4,4.29,8.13,3.24,0,0,3,.39,5.56-4.13l1-3.31a7.31,7.31,0,0,0,.32-1.53S40.17,23,40.15,22.86Z"/><path d="M27.7,25.51c.37,1.09-1-.08-2.11.29s-1.5,2.14-1.86,1a2.09,2.09,0,1,1,4-1.33Z"/><path d="M37.81,26.25c-.21,1.14-.85-.56-2-.77s-2.35,1.14-2.13,0a2.1,2.1,0,1,1,4.12.77Z"/><path class="cls-21" d="M33.71,18.55c3.37.66,4.34,1.37,4.34,1.37"/><path class="cls-21" d="M26,19.44c-3.38,1-3.94,1.62-3.94,1.62"/><path class="cls-22" d="M29.23,28.5s0,1.82,1.53,1.5c0,0,1.43,0,1.59-1,0,0,1,1.68-1.57,1.67S29.23,28.5,29.23,28.5Z"/><path class="cls-22" d="M22.34,28.52a5.45,5.45,0,0,0,6.9-.58S28.82,31.5,26,31.75,22.26,30.11,22.34,28.52Z"/><path class="cls-22" d="M32.7,28.22a5.47,5.47,0,0,0,6.91-.59s-.42,3.57-3.28,3.82S32.63,29.81,32.7,28.22Z"/><circle class="cls-23" cx="25.38" cy="25.68" r="4.08"/><circle class="cls-23" cx="35.78" cy="25.56" r="4.08" transform="translate(6.67 58.52) rotate(-84.08)"/><path class="cls-23" d="M31.73,25.14a2,2,0,0,0-2.3.08"/><path class="cls-24" d="M32.35,27.82l0,.2C32.58,29.33,32,30,31,30c-1.32,0-1.57-.19-1.77-1.5l0-.2"/><line class="cls-25" x1="36.22" y1="28.29" x2="38.41" y2="26.5"/><line class="cls-26" x1="26.19" y1="28.22" x2="27.63" y2="27.04"/><path class="cls-27" d="M33.64,32.23c.6.41-.83,1.65-1.82,2s-2.27.06-2.5-.62S30,32.05,31,31.72A3,3,0,0,1,33.64,32.23Z"/><path class="cls-28" d="M34,32.71c.23.69-.84,1.65-1.82,2s-2.28.07-2.51-.62.69-1.54,1.67-1.87S33.74,32,34,32.71Z"/><path class="cls-29" d="M29.38,33.62s.51-3,4-1.51c.19.06.07,0,.26.11a7.71,7.71,0,0,0-2,.42A9,9,0,0,0,29.38,33.62Z"/><path class="cls-30" d="M29.06,33.75l.32-.13a2.19,2.19,0,0,0,2.12,1.14,2.24,2.24,0,0,0,2.33-2.5v0"/><ellipse cx="34.2" cy="32.15" rx="0.48" ry="0.28" transform="translate(-6.85 9.38) rotate(-14.21)"/><path d="M29.74,33.83c0,.23-.37.36-.75.3s-.64-.31-.6-.54.38-.37.75-.3S29.78,33.6,29.74,33.83Z"/><path class="cls-31" d="M38.56,9.87a2.69,2.69,0,0,0-.18-1.55,2.44,2.44,0,0,0,.28-.77,2.41,2.41,0,0,0-.79-2.36v0a2.38,2.38,0,0,0-1-2.47A2.16,2.16,0,0,0,35.27.58,1.89,1.89,0,0,0,34,.75a1.88,1.88,0,0,0-.87-.43,1.92,1.92,0,0,0-1.33.23A1.9,1.9,0,0,0,31,.18a2.12,2.12,0,0,0-2.15,1A2,2,0,0,0,27.47,0a2.18,2.18,0,0,0-2.29,1.25,1.91,1.91,0,0,0-1-.59,2,2,0,0,0-1.8.58,1.88,1.88,0,0,0-1-.52,2.13,2.13,0,0,0-2.18,1,2.26,2.26,0,0,0-2.52,1.94,2.68,2.68,0,0,0,0,.89,2.63,2.63,0,0,0-.58,1.21,2.59,2.59,0,0,0,.16,1.52,3.31,3.31,0,0,0-.12.42,2.77,2.77,0,0,0,0,.81,2.64,2.64,0,0,0-.61,1.24A2.49,2.49,0,0,0,16.07,12a2.45,2.45,0,0,0,.57,2.06.45.45,0,0,0,0,.11,2.25,2.25,0,0,0,1.62,2.75,2,2,0,0,0,1.45-.31A2.09,2.09,0,0,0,21.21,18a2.22,2.22,0,0,0,2.47-1.72A3.06,3.06,0,0,0,24,15.9a2.25,2.25,0,0,0,1.2-.82l.27.08a2,2,0,0,0,1.86-.64,1.85,1.85,0,0,0,.4.12,2,2,0,0,0,1.72-.5,1.66,1.66,0,0,0,.5.18,2.15,2.15,0,0,0,2.25-1.17,1.86,1.86,0,0,0,1,.57,2.08,2.08,0,0,0,2-.87A2.22,2.22,0,0,0,37,11.73,2.45,2.45,0,0,0,38.56,9.87Z"/><path class="cls-32" d="M39.89,22.05a1,1,0,0,0,0-1.52,1,1,0,0,0,.48-.76,1.06,1.06,0,0,0-.94-1.16c-.26,0,.24-1,0-.89a3.81,3.81,0,0,0-1.41-.16.19.19,0,0,1,0,.07.74.74,0,0,0,1.47.15.72.72,0,0,0,0-.33A1,1,0,0,0,39,15.73a1.24,1.24,0,0,0,.1-.39,1.43,1.43,0,0,0-1.27-1.57h-.18a1.43,1.43,0,0,0-1.25-1.13,1.46,1.46,0,0,0-.8.15A1.44,1.44,0,0,0,34.43,12a1.43,1.43,0,0,0-1,.28,1.35,1.35,0,0,0-.91-.47,1.41,1.41,0,0,0-1.52,1,1.44,1.44,0,0,0-.78-.33,1.4,1.4,0,0,0-1.43.8l-.09,0a1.43,1.43,0,0,0-1.26.53.76.76,0,0,0-.3-.1,1.12,1.12,0,0,0-.49.07,1.1,1.1,0,0,0-.76-.44,1.08,1.08,0,0,0-1.08.62,1.3,1.3,0,0,0-.38.22,1.45,1.45,0,0,0-1.33,0l-.14.08a1.06,1.06,0,0,0-.69.63,1.47,1.47,0,0,0-.9.1,1.44,1.44,0,0,0-.81,1.15A1.42,1.42,0,0,0,19,17.69l-.17.06a1.42,1.42,0,0,0,0,2.56,1.13,1.13,0,0,0,.08.54,1.08,1.08,0,0,0,.45.45.71.71,0,0,0-.24.06.75.75,0,0,0-.36,1,.73.73,0,0,0,.42.37l-.05,0a1,1,0,0,0-.51,1.4,1.08,1.08,0,0,0,.8.58,1,1,0,0,0-.1,1,1,1,0,0,0,.41.43.75.75,0,0,0-.06.71.74.74,0,1,0,1.34-.63.57.57,0,0,0-.12-.15,1,1,0,0,0,.32-1.26,1,1,0,0,0-.78-.57h0a1,1,0,0,0,1.15-1.44,1.68,1.68,0,0,0,.38-.12,1.43,1.43,0,0,0,.69-1.9.35.35,0,0,1,0-.08,1.43,1.43,0,0,0,.3-1.6,1.35,1.35,0,0,0,.94-.09,1.44,1.44,0,0,0,.81-1.13,1.42,1.42,0,0,0,1.77.46,1.38,1.38,0,0,0,.54-.47,1.4,1.4,0,0,0,.83-1,1.44,1.44,0,0,0,2.4-.35,1.38,1.38,0,0,0,.77.33,1.43,1.43,0,0,0,1.51-1,1.43,1.43,0,0,0,1.14.8,1.38,1.38,0,0,0,.92-.22,1.43,1.43,0,0,0,.81,1.41.31.31,0,0,1,0,.08,1.43,1.43,0,0,0,1.28,1.57,1.4,1.4,0,0,0,.5,0,1,1,0,0,0,1.6.93h0a1.06,1.06,0,0,0-.47.75,1,1,0,0,0,.59,1,.89.89,0,0,0-.11.31.74.74,0,0,0,1.47.15A.72.72,0,0,0,39.89,22.05Z"/><path class="cls-33" d="M51.59,78s-9.22,8.41-29,4.95c0,0,3-4.31-1.12-17.06,0,0-2-4.15-1.35-7.65,0,0-4.35-2-3.18-4.62,0,0-2.27-.69-1.47-3.85,0,0,3.1-1.38,3.47-3.39s4.52-4.61,8.18-3.11c0,0,2.18,4.53,8.17,3.39s5-3.66,5.11-5.54c0,0,5.13-.9,6,2.3,0,0,1.66,2.61,7,3.78a8,8,0,0,0-.77,4.66c.46,2.36-1.84,4.43-1.84,4.43a3.59,3.59,0,0,0-2.22,2c-.82,1.64.33,2.66-1.7,4.92C46.9,63.18,45.77,75.32,51.59,78Z"/><path class="cls-34" d="M45.31,75.28c.22,1.59-3.53,2.56-8.59,3.25s-9.5.86-9.72-.74,5,.28,10-.41S45.09,73.68,45.31,75.28Z"/><path class="cls-34" d="M42.17,70.86c.22,1.59-3.53,2.56-8.58,3.25s-9.51.86-9.72-.74,5,.28,10-.41S42,69.26,42.17,70.86Z"/><path class="cls-35" d="M43,49c.22,1.59-3.53,2.56-8.58,3.25s-9.51.85-9.73-.74,5,.28,10-.41S42.77,47.41,43,49Z"/><path class="cls-35" d="M41.53,57.07c.22,1.59-3.52,2.56-8.58,3.25s-9.5.86-9.72-.74,5,.29,10-.41S41.32,55.47,41.53,57.07Z"/><line class="cls-36" x1="42.07" y1="106.76" x2="40.74" y2="97.31"/><line class="cls-37" x1="34.58" y1="97.27" x2="40.74" y2="97.31"/><line class="cls-37" x1="44.37" y1="94.43" x2="40.74" y2="97.31"/></g></g></svg>