<svg xmlns="http://www.w3.org/2000/svg" xmlns:xlink="http://www.w3.org/1999/xlink" viewBox="0 0 74.03 197.96"><defs><style>.cls-1,.cls-20{fill:#fff;}.cls-1,.cls-22,.cls-23,.cls-24,.cls-26{stroke:#1f0d05;}.cls-1,.cls-10,.cls-11,.cls-12,.cls-15,.cls-16,.cls-19,.cls-22,.cls-23,.cls-24,.cls-26,.cls-3,.cls-31,.cls-33,.cls-35,.cls-8{stroke-miterlimit:10;}.cls-1,.cls-15,.cls-22,.cls-23,.cls-24,.cls-26{stroke-width:0.25px;}.cls-2{fill:url(#linear-gradient);}.cls-10,.cls-11,.cls-15,.cls-16,.cls-19,.cls-24,.cls-3,.cls-31,.cls-33,.cls-35,.cls-8{fill:none;}.cls-3{stroke:#66afc6;}.cls-11,.cls-12,.cls-19,.cls-3,.cls-33,.cls-35,.cls-8{stroke-linecap:round;}.cls-4{fill:url(#linear-gradient-2);}.cls-5{fill:url(#linear-gradient-3);}.cls-6{fill:url(#linear-gradient-4);}.cls-7{fill:url(#linear-gradient-5);}.cls-10,.cls-11,.cls-15,.cls-16,.cls-8{stroke:#000;}.cls-8{stroke-width:3px;}.cls-9{fill:#694635;}.cls-10{stroke-width:2px;}.cls-11,.cls-16{stroke-width:0.5px;}.cls-12{fill:#a37762;}.cls-12,.cls-19{stroke:#fff;}.cls-13{fill:#a06c55;}.cls-14{fill:#6a4837;}.cls-17{fill:url(#linear-gradient-6);}.cls-18{fill:#1f0d05;}.cls-21{clip-path:url(#clip-path);}.cls-22{fill:url(#radial-gradient);}.cls-25{clip-path:url(#clip-path-2);}.cls-26{fill:url(#radial-gradient-2);}.cls-27{fill:url(#linear-gradient-7);}.cls-28{fill:url(#linear-gradient-8);}.cls-29{fill:url(#linear-gradient-9);}.cls-30{fill:url(#New_Gradient_Swatch);}.cls-31{stroke-width:4px;stroke:url(#linear-gradient-10);}.cls-32{opacity:0.26;fill:url(#linear-gradient-11);}.cls-33{stroke-width:7px;stroke:url(#linear-gradient-12);}.cls-34{fill:url(#linear-gradient-13);}.cls-35{stroke-width:0.75px;stroke:url(#linear-gradient-14);}</style><linearGradient id="linear-gradient" x1="28.56" y1="143.01" x2="60.55" y2="205.85" gradientUnits="userSpaceOnUse"><stop offset="0.32" stop-color="#97e0fe"/><stop offset="0.52" stop-color="#94ddfa"/><stop offset="0.7" stop-color="#8bd2ef"/><stop offset="0.88" stop-color="#7cc0dc"/><stop offset="1" stop-color="#6fb1cc"/></linearGradient><linearGradient id="linear-gradient-2" x1="34.14" y1="109.23" x2="29.56" y2="76.42" gradientUnits="userSpaceOnUse"><stop offset="0.55" stop-color="#c49179"/><stop offset="0.82" stop-color="#a37865"/><stop offset="0.86" stop-color="#9e7462"/><stop offset="0.91" stop-color="#8f6958"/><stop offset="0.96" stop-color="#765748"/><stop offset="1" stop-color="#5e4538"/></linearGradient><linearGradient id="linear-gradient-3" x1="-2141.37" y1="-176.15" x2="-2133.94" y2="-176.15" gradientTransform="matrix(-0.95, -0.32, -0.32, 0.95, -2023.66, -459.32)" gradientUnits="userSpaceOnUse"><stop offset="0.55" stop-color="#a37865"/><stop offset="1" stop-color="#5e4538"/></linearGradient><linearGradient id="linear-gradient-4" x1="-1027.57" y1="28.42" x2="-1020.14" y2="28.42" gradientTransform="translate(1038.61 0.02) rotate(-1.65)" xlink:href="#linear-gradient-3"/><linearGradient id="linear-gradient-5" x1="-2148.67" y1="195.31" x2="-2160.13" y2="113.3" gradientTransform="matrix(-0.97, 0.26, 0.26, 0.97, -2083.79, 464.83)" gradientUnits="userSpaceOnUse"><stop offset="0.21" stop-color="#c49179"/><stop offset="0.55" stop-color="#a37865"/><stop offset="0.67" stop-color="#a17664"/><stop offset="0.72" stop-color="#99715f"/><stop offset="0.76" stop-color="#8d6756"/><stop offset="0.8" stop-color="#7a5a4a"/><stop offset="0.83" stop-color="#63493b"/><stop offset="0.84" stop-color="#5e4538"/></linearGradient><linearGradient id="linear-gradient-6" x1="21.41" y1="-137.31" x2="38.07" y2="-85.62" gradientTransform="matrix(0.99, -0.14, 0.18, 1.03, 30.2, 141.24)" gradientUnits="userSpaceOnUse"><stop offset="0.17" stop-color="#401e10"/><stop offset="0.56" stop-color="#1f0d05"/><stop offset="0.93" stop-color="#120703"/></linearGradient><clipPath id="clip-path"><path class="cls-1" d="M43.22,56.05c0,2.34,1.75.42,3.88.42s3.83,1.93,3.83-.42a3.87,3.87,0,1,0-7.71,0Z"/></clipPath><radialGradient id="radial-gradient" cx="47.93" cy="54.41" r="3" gradientUnits="userSpaceOnUse"><stop offset="0.04" stop-color="#684810"/><stop offset="0.29" stop-color="#401e10"/><stop offset="0.63" stop-color="#1f0d05"/><stop offset="0.93" stop-color="#120703"/></radialGradient><clipPath id="clip-path-2"><path class="cls-1" d="M22.15,56.08c0,2.35,1.76.43,3.89.43s3.83,1.93,3.83-.42A4.08,4.08,0,0,0,26,51.83,4.08,4.08,0,0,0,22.15,56.08Z"/></clipPath><radialGradient id="radial-gradient-2" cx="26.87" cy="54.44" r="3" xlink:href="#radial-gradient"/><linearGradient id="linear-gradient-7" x1="50.05" y1="95.19" x2="48.51" y2="84.16" gradientUnits="userSpaceOnUse"><stop offset="1" stop-color="#c49179"/><stop offset="1" stop-color="#5e4538"/></linearGradient><linearGradient id="linear-gradient-8" x1="22.91" y1="232.23" x2="3.71" y2="94.79" gradientUnits="userSpaceOnUse"><stop offset="0.55" stop-color="#c49179"/><stop offset="0.84" stop-color="#a37865"/><stop offset="0.91" stop-color="#a17664"/><stop offset="0.94" stop-color="#99715f"/><stop offset="0.96" stop-color="#8d6756"/><stop offset="0.98" stop-color="#7a5a4a"/><stop offset="1" stop-color="#63493b"/><stop offset="1" stop-color="#5e4538"/></linearGradient><linearGradient id="linear-gradient-9" x1="13.41" y1="186.75" x2="10.46" y2="165.65" gradientTransform="translate(5.1 0.2) scale(0.73 1)" gradientUnits="userSpaceOnUse"><stop offset="0.21" stop-color="#c49179"/><stop offset="1" stop-color="#a37865"/></linearGradient><linearGradient id="New_Gradient_Swatch" x1="8.75" y1="123.56" x2="93.76" y2="134.96" gradientUnits="userSpaceOnUse"><stop offset="0" stop-color="#9690c8"/><stop offset="0.62" stop-color="#5143b6"/><stop offset="1" stop-color="#2e2666"/></linearGradient><linearGradient id="linear-gradient-10" x1="32.11" y1="40.04" x2="65.62" y2="68.12" gradientTransform="translate(14.06 -7.91) rotate(10.57)" gradientUnits="userSpaceOnUse"><stop offset="0.13" stop-color="#c1c8ea"/><stop offset="0.27" stop-color="#b6c1ea"/><stop offset="0.53" stop-color="#9aaeea"/><stop offset="0.86" stop-color="#6c8fe9"/><stop offset="1" stop-color="#5680e9"/></linearGradient><linearGradient id="linear-gradient-11" x1="33.64" y1="40.73" x2="64.09" y2="66.24" xlink:href="#linear-gradient-10"/><linearGradient id="linear-gradient-12" x1="39.27" y1="81.96" x2="56.78" y2="96.63" gradientTransform="translate(77.96 184.79) rotate(-173.83)" xlink:href="#linear-gradient-10"/><linearGradient id="linear-gradient-13" x1="25.42" y1="129.5" x2="125.5" y2="44.46" gradientUnits="userSpaceOnUse"><stop offset="0.1" stop-color="#c49179"/><stop offset="0.18" stop-color="#be8c75"/><stop offset="0.28" stop-color="#ab7e6a"/><stop offset="0.31" stop-color="#a37865"/><stop offset="0.44" stop-color="#5e4538"/></linearGradient><linearGradient id="linear-gradient-14" x1="53.31" y1="125.68" x2="59.12" y2="120.74" xlink:href="#linear-gradient-13"/></defs><g id="Layer_2" data-name="Layer 2"><g id="Layer_6" data-name="Layer 6"><path class="cls-2" d="M14.61,161.74l51.57-5c1.29.33,5.27,25.46,1.34,33.58,0,0-18.43,12.57-41.51,5.42C26,195.76,13.13,181.23,14.61,161.74Z"/><path class="cls-3" d="M40.2,181.56a21.07,21.07,0,0,0,12.2-2.49"/><line class="cls-3" x1="49.56" y1="196.49" x2="46.3" y2="181.27"/><path class="cls-4" d="M23.93,88.08C25,87.74,30.75,84,26.74,75.44c0,0,7.78,4.59,10.53,4.21,0,0-1.66,1.15-1.15,2.33a4.88,4.88,0,0,0-1.4,5.59S32,91.27,34,93.38C34,93.38,28.59,94.14,23.93,88.08Z"/><path class="cls-5" d="M53.84,57.67c-1.06,3.12-5,4.59-1.91,5.65A6,6,0,0,0,55.75,52C52.63,51,54.89,54.55,53.84,57.67Z"/><path class="cls-6" d="M20.05,57.73c.1,3.29,3.46,5.87.17,6a6,6,0,1,1-.34-11.91C23.17,51.68,20,54.44,20.05,57.73Z"/><path class="cls-7" d="M16.51,52.91,16.65,40a5.63,5.63,0,0,1,5.69-5.57l28.47.3a5.62,5.62,0,0,1,5.57,5.69s-.26,13.44-.45,13.65l-1.12,6.36a19.76,19.76,0,0,1-.57,2.39c-.72,2.4-2.31,7.58-2.79,7.84s-5.48,9.67-15.29,9c0,0-5.81,1.72-12.46-6.53l-3.12-6.32a15.76,15.76,0,0,1-1.11-3S16.51,53.15,16.51,52.91Z"/><path class="cls-8" d="M28.3,42.76c-6.81,1.56-8.73,3.06-8.73,3.06"/><path class="cls-8" d="M44.61,42.62c7.09,1,8.41,2,8.41,2"/><path class="cls-9" d="M39.65,60.22s.14,3.69-3,3.14c0,0-2.91.11-3.3-1.92,0,0-1.92,3.48,3.28,3.3S39.65,60.22,39.65,60.22Z"/><path class="cls-9" d="M54.06,59.83a11.08,11.08,0,0,1-14,1s2,7,7.78,6.62S54.71,63,54.06,59.83Z"/><path class="cls-9" d="M32.72,61a11.08,11.08,0,0,1-14-.77s1.07,7.21,6.89,7.54S33,64.24,32.72,61Z"/><circle class="cls-10" cx="47.12" cy="55.24" r="8.27" transform="translate(-6.94 6.77) rotate(-7.66)"/><circle class="cls-10" cx="26.01" cy="55.64" r="8.27" transform="translate(-7.18 3.96) rotate(-7.66)"/><path class="cls-10" d="M34.21,54.53a4.15,4.15,0,0,1,4.67,0"/><path class="cls-11" d="M33.46,59.25l0,.42c-.13,2.68,1.28,3.84,3.21,3.7,2.68-.2,3.14-.72,3.26-3.4,0-.14,0-.28,0-.41"/><line class="cls-12" x1="28.57" y1="61.62" x2="31.91" y2="57.27"/><path class="cls-13" d="M32.51,70c-.91,1.16,2.63,2.66,4.75,2.68s4.43-1.28,4.45-2.75-2.28-2.54-4.39-2.57A6.17,6.17,0,0,0,32.51,70Z"/><path class="cls-14" d="M32.18,71.08c0,1.48,2.63,2.67,4.75,2.69s4.44-1.29,4.45-2.76S39.11,68.47,37,68.45,32.2,69.61,32.18,71.08Z"/><path class="cls-15" d="M41.61,70s-2.86-5.54-8.62-.46c-.33.24-.11.15-.44.39a15,15,0,0,1,4.23-.46A17.57,17.57,0,0,1,41.61,70Z"/><path class="cls-16" d="M42.3,70l-.69,0s-.14,2.35-3.4,3.51a4.53,4.53,0,0,1-6-3.38s0-.07,0-.11"/><ellipse cx="31.38" cy="70.14" rx="0.98" ry="0.57" transform="translate(-4.36 2.12) rotate(-3.62)"/><path d="M41,70.61c.22.42,1,.47,1.63.11s1-1,.83-1.41-1-.48-1.64-.12S40.81,70.19,41,70.61Z"/><path class="cls-17" d="M16.16,27.71a5.68,5.68,0,0,1-.54-3.26,5.68,5.68,0,0,1-1-1.43,5.17,5.17,0,0,1,.2-5.21s0,0,0,0a5.08,5.08,0,0,1,.44-5.52,4.44,4.44,0,0,1,2-5.17,3.78,3.78,0,0,1,2.52-.27,3.61,3.61,0,0,1,1.46-1.33A3.84,3.84,0,0,1,24,5.27a3.79,3.79,0,0,1,1.36-1.15,4.3,4.3,0,0,1,4.76.94,4,4,0,0,1,2.12-3A4.41,4.41,0,0,1,37.4,3.39a3.77,3.77,0,0,1,1.7-1.74,4.05,4.05,0,0,1,3.84.28A3.82,3.82,0,0,1,44.54.37a4.31,4.31,0,0,1,4.85,1c2.12-1,4.82.18,6.06,2.69A5.78,5.78,0,0,1,56,5.89a5.71,5.71,0,0,1,1.82,2.16,5.62,5.62,0,0,1,.55,3.19,7.06,7.06,0,0,1,.48.8,6,6,0,0,1,.51,1.64,5.82,5.82,0,0,1,1.89,2.22,5.34,5.34,0,0,1,.09,4.72,5.33,5.33,0,0,1,.07,4.5l.12.2c1.24,2.52.52,5.41-1.6,6.44a3.86,3.86,0,0,1-3,.11,4.14,4.14,0,0,1-2.19,3.58c-2,1-4.5,0-5.82-2.26a5,5,0,0,1-.91-.54,4.59,4.59,0,0,1-2.81-1.08,3.56,3.56,0,0,1-.48.31,4.08,4.08,0,0,1-4-.36,3.78,3.78,0,0,1-4.35.29,4,4,0,0,1-.88.63,4.38,4.38,0,0,1-5.06-1.24,3.75,3.75,0,0,1-1.66,1.66,4.21,4.21,0,0,1-4.51-.73,4.57,4.57,0,0,1-4-1.41A5.25,5.25,0,0,1,16.16,27.71Z"/><path class="cls-18" d="M16.77,51.2a2.11,2.11,0,0,1-.95-1.26,2.08,2.08,0,0,1,.37-1.78A2.1,2.1,0,0,1,15,46.79a2.14,2.14,0,0,1,1.52-2.62c.5-.13-.81-2-.37-1.77a7.34,7.34,0,0,1,2.78-.76s.05.08.06.12a1.52,1.52,0,0,1-1.07,1.84,1.5,1.5,0,0,1-1.83-1.07,1.31,1.31,0,0,1,0-.68,2.1,2.1,0,0,1-.76-1.1,2.13,2.13,0,0,1,1.32-2.52,2.74,2.74,0,0,1-.33-.74,2.89,2.89,0,0,1,2.06-3.55,2.33,2.33,0,0,1,.35-.06,2.91,2.91,0,0,1,2.15-2.66,2.84,2.84,0,0,1,1.66.06,2.87,2.87,0,0,1,4.1-1.75,2.89,2.89,0,0,1,5.07.38,2.89,2.89,0,0,1,4.58.26.85.85,0,0,1,.17-.06,2.9,2.9,0,0,1,2.68.65,2,2,0,0,1,.58-.29,2.16,2.16,0,0,1,1,0,2.15,2.15,0,0,1,1.37-1.12,2.18,2.18,0,0,1,2.37.9,2.23,2.23,0,0,1,.83.33A2.91,2.91,0,0,1,47.94,30a2.85,2.85,0,0,1,.31.12,2.18,2.18,0,0,1,1.58,1.05,2.89,2.89,0,0,1,3.82,2,2.93,2.93,0,0,1,1.66,0,2.88,2.88,0,0,1,2.07,2.71,2.41,2.41,0,0,1,.35.07,2.9,2.9,0,0,1,2,3.6,2.84,2.84,0,0,1-1.1,1.53,2.16,2.16,0,0,1,0,1.1,2.11,2.11,0,0,1-.75,1,1.47,1.47,0,0,1,.51,0,1.51,1.51,0,0,1,1,1.87,1.48,1.48,0,0,1-.72.88h.11a2.14,2.14,0,0,1,1.45,2.66,2.1,2.1,0,0,1-1.42,1.4,2.1,2.1,0,0,1,.53,2.06,2,2,0,0,1-.69,1A1.47,1.47,0,0,1,59,54.56a1.5,1.5,0,1,1-2.88-.85,1.32,1.32,0,0,1,.18-.33,2.06,2.06,0,0,1,.36-3.82h0a2,2,0,0,1-1.33.08A2.13,2.13,0,0,1,53.88,47a2.74,2.74,0,0,1-.8-.1,2.91,2.91,0,0,1-2-3.61c0-.06,0-.11.07-.16A2.91,2.91,0,0,1,50.08,40a2.8,2.8,0,0,1-1.92.11,2.89,2.89,0,0,1-2-2,2.9,2.9,0,0,1-3.4,1.47,2.82,2.82,0,0,1-1.25-.77,2.88,2.88,0,0,1-2-1.78,2.9,2.9,0,0,1-4.9.06,2.87,2.87,0,0,1-1.44.89,2.91,2.91,0,0,1-3.37-1.56,2.86,2.86,0,0,1-3.94,1.79,2.88,2.88,0,0,1-1.18,3.08,1.15,1.15,0,0,0,.06.17,2.9,2.9,0,0,1-3.08,3.63,2.12,2.12,0,0,1-1.52,2.51,2.09,2.09,0,0,1-1.4-.14v0a2.07,2.07,0,0,1,.31,3.63,1.57,1.57,0,0,1,.32.58,1.5,1.5,0,1,1-2.9.77A1.46,1.46,0,0,1,16.77,51.2Z"/><line class="cls-19" x1="49.21" y1="60.64" x2="53.02" y2="56.36"/><path class="cls-20" d="M43.22,56.05c0,2.34,1.75.42,3.88.42s3.83,1.93,3.83-.42a3.87,3.87,0,1,0-7.71,0Z"/><g class="cls-21"><circle class="cls-22" cx="47.93" cy="54.41" r="3"/><circle class="cls-23" cx="48.06" cy="54.32" r="0.99"/><circle class="cls-20" cx="48.88" cy="53.44" r="0.51"/></g><path class="cls-24" d="M43.22,56.05c0,2.34,1.75.42,3.88.42s3.83,1.93,3.83-.42a3.87,3.87,0,1,0-7.71,0Z"/><path class="cls-20" d="M22.15,56.08c0,2.35,1.76.43,3.89.43s3.83,1.93,3.83-.42A4.08,4.08,0,0,0,26,51.83,4.08,4.08,0,0,0,22.15,56.08Z"/><g class="cls-25"><circle class="cls-26" cx="26.87" cy="54.44" r="3"/><circle class="cls-23" cx="27" cy="54.36" r="0.99"/><circle class="cls-20" cx="27.82" cy="53.48" r="0.51"/></g><path class="cls-24" d="M22.15,56.08c0,2.35,1.76.43,3.89.43s3.83,1.93,3.83-.42A4.08,4.08,0,0,0,26,51.83,4.08,4.08,0,0,0,22.15,56.08Z"/><path class="cls-27" d="M47.12,90.06c.28,0,3.88.38,4.13-2.09,0,0-3.53-2.47-4.13-4.08Z"/><path class="cls-28" d="M2.77,113.44l2.87,23.11c-1.31,1.16-8.31,26,12.62,52.3,0,0,3,3.81,3.14-.73,0,0-8.87-12.76-6.38-20l-.32-5.93-4.08-3.83s5-12.13,5-21.77-.19-17.74-.19-17.74-5.36-1.81-5.87-6.15C9.6,112.72,4,115.17,2.77,113.44Z"/><path class="cls-29" d="M15.27,169.68h.13a0,0,0,0,1,0,0v9.66a1.83,1.83,0,0,1-1.83,1.83h0a1.83,1.83,0,0,1-1.83-1.83v-6.13A3.53,3.53,0,0,1,15.27,169.68Z" transform="translate(-16.37 2.04) rotate(-5.37)"/><path class="cls-30" d="M22.64,86.46S.17,84.86,0,111.62c0,0,0,3.18,8.32,2.46,0,0,1.42,6,6.25,5,0,0,3,23.91-4.27,39.4,0,0,8.55,11.35,31.79,9.31S68.87,154,68.87,154,62.43,145,62,138.34l-6.89-21.79s2.76,1.19,6.89-1.66c0,0,5.61,4,10.08-3.92,0,.41-1.23-16.42-5.06-17.7-6-2-13.31-3.3-15.45-5.23C51.53,88,32,100.85,22.64,86.46Z"/><circle class="cls-31" cx="52.17" cy="54.21" r="19.86"/><circle class="cls-32" cx="52.28" cy="53.63" r="19.86"/><line class="cls-33" x1="34.64" y1="106.81" x2="44.98" y2="74.9"/><path class="cls-34" d="M46.81,99.91s11.57,17.53,10.55,30l-5.24-15a7.21,7.21,0,0,0,9.84,0,5.76,5.76,0,0,0,6.81,0S71,133.44,55,145.19c0,0-11.07-2.9-13.11-17.7A192.47,192.47,0,0,1,40,101.27l-7.49-6.78S31.3,92.83,33,92.7c0,0-1.79-5.17.89-6,0,0-1.21-4.58,1.6-5.32,0,0,.77-4,4.28-3.24s6.64,2.37,8,6.58C47.83,84.72,48,98.12,46.81,99.91Z"/><path class="cls-35" d="M55.07,116.55s3.65,8.3,2.29,13.32"/><path class="cls-20" d="M52,39.44c-1.31-1.84-5.42-1.15-9.18,1.53s-5.75,6.34-4.44,8.18,2-3.6,5.8-6.28S53.34,41.28,52,39.44Z"/><path class="cls-20" d="M66.72,55.61c1.69,1.51.56,5.52-2.51,9s-6.93,5-8.62,3.53,3.8-1.63,6.87-5.08S65,54.11,66.72,55.61Z"/></g></g></svg>