<svg xmlns="http://www.w3.org/2000/svg" xmlns:xlink="http://www.w3.org/1999/xlink" viewBox="0 0 303.89 288"><defs><style>.cls-1{fill:url(#linear-gradient);}.cls-2{fill:url(#linear-gradient-2);}.cls-3{fill:url(#linear-gradient-3);}.cls-21,.cls-23,.cls-24,.cls-25,.cls-29,.cls-30,.cls-36,.cls-37,.cls-4{fill:none;}.cls-4{stroke:#42210b;opacity:0.33;}.cls-21,.cls-23,.cls-24,.cls-25,.cls-26,.cls-29,.cls-30,.cls-36,.cls-37,.cls-4{stroke-miterlimit:10;}.cls-29,.cls-4{stroke-width:0.25px;}.cls-5{fill:url(#linear-gradient-4);}.cls-26,.cls-6{fill:#a37762;}.cls-7{fill:#a87c67;}.cls-8{fill:#ae816c;}.cls-9{fill:#b38672;}.cls-10{fill:#b88b77;}.cls-11{fill:#bd907c;}.cls-12{fill:#c39481;}.cls-13{fill:#c89986;}.cls-14{fill:#cd9e8b;}.cls-15{fill:#d2a391;}.cls-16{fill:#d8a896;}.cls-17{fill:#ddad9b;}.cls-18{fill:url(#linear-gradient-5);}.cls-19{fill:url(#linear-gradient-6);}.cls-20{fill:url(#linear-gradient-7);}.cls-21,.cls-23,.cls-24,.cls-29,.cls-30{stroke:#000;}.cls-21,.cls-24,.cls-25,.cls-26,.cls-37{stroke-linecap:round;}.cls-21{stroke-width:2px;}.cls-22{fill:#694635;}.cls-24,.cls-25,.cls-26,.cls-30{stroke-width:0.5px;}.cls-25,.cls-26{stroke:#fff;}.cls-27{fill:#a06c55;}.cls-28{fill:#6a4837;}.cls-31{fill:url(#linear-gradient-8);}.cls-32{fill:#1f0d05;}.cls-33{fill:url(#linear-gradient-9);}.cls-34{fill:#2e2e56;}.cls-35{fill:#7a78d1;}.cls-36,.cls-37{stroke:#66afc6;}.cls-38{fill:url(#linear-gradient-10);}.cls-39{fill:url(#linear-gradient-11);}.cls-40{fill:url(#linear-gradient-12);}.cls-41{fill:url(#linear-gradient-13);}.cls-42{fill:url(#linear-gradient-14);}.cls-43{fill:url(#linear-gradient-15);}.cls-44{fill:url(#linear-gradient-16);}.cls-45{fill:url(#linear-gradient-17);}.cls-46{fill:url(#linear-gradient-18);}</style><linearGradient id="linear-gradient" x1="2056.58" y1="63.89" x2="2103.13" y2="63.89" gradientTransform="matrix(-0.99, 0.1, 0.1, 0.99, 2166.12, -90.43)" gradientUnits="userSpaceOnUse"><stop offset="0.21" stop-color="#97e0fe"/><stop offset="0.83" stop-color="#6fb1cc"/></linearGradient><linearGradient id="linear-gradient-2" x1="2067.52" y1="13.81" x2="2065.64" y2="0.35" gradientTransform="matrix(-0.99, 0.1, 0.1, 0.99, 2166.12, -90.43)" gradientUnits="userSpaceOnUse"><stop offset="0" stop-color="#c49179"/><stop offset="0.55" stop-color="#a37865"/><stop offset="1" stop-color="#5e4538"/></linearGradient><linearGradient id="linear-gradient-3" x1="2113.64" y1="21.49" x2="2074.87" y2="25.2" gradientTransform="matrix(-0.99, 0.1, 0.1, 0.99, 2166.12, -90.43)" gradientUnits="userSpaceOnUse"><stop offset="0.21" stop-color="#c49179"/><stop offset="0.55" stop-color="#a37865"/><stop offset="0.66" stop-color="#a17764"/><stop offset="0.7" stop-color="#9a725f"/><stop offset="0.73" stop-color="#8f6958"/><stop offset="0.75" stop-color="#7e5c4d"/><stop offset="0.77" stop-color="#684c3e"/><stop offset="0.78" stop-color="#5e4538"/></linearGradient><linearGradient id="linear-gradient-4" x1="2039.65" y1="27.25" x2="2057.59" y2="27.25" xlink:href="#linear-gradient-2"/><linearGradient id="linear-gradient-5" x1="1864.66" y1="845.2" x2="1868.31" y2="845.2" gradientTransform="matrix(-0.89, -0.46, -0.46, 0.89, 2169.98, 232)" gradientUnits="userSpaceOnUse"><stop offset="0.55" stop-color="#a37865"/><stop offset="1" stop-color="#5e4538"/></linearGradient><linearGradient id="linear-gradient-6" x1="-919.41" y1="348.27" x2="-915.76" y2="348.27" gradientTransform="translate(1058.56 -116.33) rotate(7.25)" xlink:href="#linear-gradient-5"/><linearGradient id="linear-gradient-7" x1="2064.31" y1="14.69" x2="2058.66" y2="-25.71" gradientTransform="matrix(-0.99, 0.1, 0.1, 0.99, 2166.12, -90.43)" gradientUnits="userSpaceOnUse"><stop offset="0.21" stop-color="#c49179"/><stop offset="0.55" stop-color="#a37865"/><stop offset="0.67" stop-color="#a17664"/><stop offset="0.72" stop-color="#99715f"/><stop offset="0.76" stop-color="#8d6756"/><stop offset="0.8" stop-color="#7a5a4a"/><stop offset="0.83" stop-color="#63493b"/><stop offset="0.84" stop-color="#5e4538"/></linearGradient><linearGradient id="linear-gradient-8" x1="2052.83" y1="-36.28" x2="2059.88" y2="-14.41" gradientTransform="matrix(-0.99, 0.1, 0.1, 0.99, 2166.12, -90.43)" gradientUnits="userSpaceOnUse"><stop offset="0.17" stop-color="#401e10"/><stop offset="0.56" stop-color="#1f0d05"/><stop offset="0.93" stop-color="#120703"/></linearGradient><linearGradient id="linear-gradient-9" x1="2051.51" y1="19.24" x2="2087.06" y2="35.05" gradientTransform="matrix(-0.99, 0.1, 0.1, 0.99, 2166.12, -90.43)" gradientUnits="userSpaceOnUse"><stop offset="0" stop-color="#9690c8"/><stop offset="0.62" stop-color="#5143b6"/><stop offset="1" stop-color="#2e2666"/></linearGradient><linearGradient id="linear-gradient-10" x1="202.36" y1="260.18" x2="248.9" y2="260.18" gradientTransform="translate(19.18 -90.43) rotate(5.92)" xlink:href="#linear-gradient"/><linearGradient id="linear-gradient-11" x1="213.3" y1="210.11" x2="211.42" y2="196.65" gradientTransform="translate(19.18 -90.43) rotate(5.92)" xlink:href="#linear-gradient-2"/><linearGradient id="linear-gradient-12" x1="259.41" y1="217.79" x2="220.65" y2="221.5" gradientTransform="translate(19.18 -90.43) rotate(5.92)" xlink:href="#linear-gradient-3"/><linearGradient id="linear-gradient-13" x1="185.43" y1="223.55" x2="203.36" y2="223.55" gradientTransform="translate(19.18 -90.43) rotate(5.92)" xlink:href="#linear-gradient-2"/><linearGradient id="linear-gradient-14" x1="210.22" y1="-14.77" x2="213.88" y2="-14.77" gradientTransform="translate(15.32 232) rotate(-27.59)" xlink:href="#linear-gradient-5"/><linearGradient id="linear-gradient-15" x1="930.78" y1="117.02" x2="934.44" y2="117.02" gradientTransform="matrix(-0.99, 0.13, 0.13, 0.99, 1126.73, -116.33)" xlink:href="#linear-gradient-5"/><linearGradient id="linear-gradient-16" x1="210.08" y1="210.99" x2="204.44" y2="170.59" gradientTransform="translate(19.18 -90.43) rotate(5.92)" xlink:href="#linear-gradient-7"/><linearGradient id="linear-gradient-17" x1="198.61" y1="160.02" x2="205.66" y2="181.89" gradientTransform="translate(19.18 -90.43) rotate(5.92)" xlink:href="#linear-gradient-8"/><linearGradient id="linear-gradient-18" x1="197.29" y1="215.54" x2="232.84" y2="231.35" gradientTransform="translate(19.18 -90.43) rotate(5.92)" xlink:href="#linear-gradient-9"/></defs><g id="Layer_2" data-name="Layer 2"><path class="cls-1" d="M121.51,208.83s-20.86-10.54-31.29-35.65c0,0-.56-2.89,4.58-7.79,0,0,9.86,8.48,26.93,3.5C121.73,168.89,134.07,185.19,121.51,208.83Z"/><path class="cls-2" d="M118.19,130.4s-1.7,3.81-7.5,4c0,0-6.74-1-6.29-6.15,0,0,5.32.56,4.81-5.16,0,0,2.36,2.92,6.64.08C115.85,123.15,113.75,128.84,118.19,130.4Z"/><path class="cls-3" d="M97.91,147.55l-.67-4a4.19,4.19,0,0,1-3.93-4.08l-3.82,7.71a9,9,0,0,0-6,3.7s.27,5.11,2.3,6.91l9.64-4.43Z"/><path class="cls-4" d="M136.23,136.37a6.16,6.16,0,0,0-3.13-7.88"/><path class="cls-5" d="M139.06,136.55s-2.36,5.63-2.53,8.41-.55,13.21-9,17l-1.32-.53a4.28,4.28,0,0,1-2.62-3.12l-.7-3.38,1.37-4.76.84-2.7a4.75,4.75,0,0,0,.13-2.34l-.17-.82a3.21,3.21,0,0,0,3-1.83,3,3,0,0,0,.14-.36c.85-2.33,0,.13,0,.13l.29,4.08s3.84-7.45,3.34-12.28A64.16,64.16,0,0,1,139.06,136.55Z"/><path class="cls-6" d="M131.56,136.1l-3-8.37-1-6.74s.7-1.44,1.65-.17l1,5.11,1.08.87,3.92-11.23s1.45-1.26,1.36.67a21.17,21.17,0,0,1-1.22,4.72,3,3,0,0,0,0,2.12h0a2.89,2.89,0,0,0,2-1.77l1.89-4.88s1.51-.75,1.4.71a22.4,22.4,0,0,1-1.78,4.89,2.9,2.9,0,0,0-.09,2.24h0a3.85,3.85,0,0,0,1.89-2l2-5s2.06-1,1.48,1a44.43,44.43,0,0,1-2.74,6l.51,1.09.73-.4,1.27-3.4s1.59-1.15,1.31.63-4.07,11.59-4.07,11.59l-1.92,2.89S134,141.2,131.56,136.1Z"/><path class="cls-7" d="M131.61,135.92l-2.93-8.25-1-6.63s.7-1.42,1.64-.17l1,5,1.06.86,3.89-11.06s1.44-1.25,1.34.66A20.85,20.85,0,0,1,135.4,121a2.87,2.87,0,0,0,0,2.08h0a2.86,2.86,0,0,0,2-1.74l1.87-4.81s1.49-.74,1.38.7a21.72,21.72,0,0,1-1.77,4.82,2.94,2.94,0,0,0-.08,2.2h0a3.79,3.79,0,0,0,1.87-2l2-4.88s2-1,1.46,1a43.19,43.19,0,0,1-2.71,5.9l.5,1.07.72-.39,1.27-3.35s1.57-1.14,1.29.62-4,11.41-4,11.41l-1.9,2.86S134,140.93,131.61,135.92Z"/><path class="cls-8" d="M131.65,135.73l-2.89-8.12-1-6.53s.69-1.4,1.61-.16l1,5,1.05.85,3.86-10.9s1.42-1.22,1.33.65a20.65,20.65,0,0,1-1.2,4.58,2.84,2.84,0,0,0,0,2h0a2.81,2.81,0,0,0,2-1.71l1.85-4.74s1.48-.73,1.38.69a22,22,0,0,1-1.76,4.74,2.91,2.91,0,0,0-.09,2.17h0a3.71,3.71,0,0,0,1.86-2l1.94-4.81s2-.95,1.44,1a42.87,42.87,0,0,1-2.69,5.81l.5,1,.71-.38,1.25-3.3s1.56-1.12,1.28.61-4,11.24-4,11.24l-1.89,2.81S134.05,140.67,131.65,135.73Z"/><path class="cls-9" d="M131.7,135.55l-2.86-8-1-6.43s.69-1.38,1.6-.17l1,4.88,1,.83L135.31,116s1.41-1.21,1.31.64a19.59,19.59,0,0,1-1.19,4.5,2.9,2.9,0,0,0,0,2h0a2.79,2.79,0,0,0,1.94-1.7l1.84-4.66s1.46-.72,1.36.68a21.09,21.09,0,0,1-1.74,4.67,2.81,2.81,0,0,0-.09,2.13h0a3.69,3.69,0,0,0,1.84-1.95l1.92-4.73s2-.94,1.43,1a42.57,42.57,0,0,1-2.67,5.72l.49,1,.71-.38,1.24-3.25s1.55-1.1,1.27.6-4,11.07-4,11.07l-1.87,2.76S134.07,140.41,131.7,135.55Z"/><path class="cls-10" d="M131.74,135.37l-2.82-7.87-1-6.32s.68-1.36,1.59-.17l1,4.8,1,.82,3.79-10.56s1.39-1.19,1.29.63a18.93,18.93,0,0,1-1.17,4.44,2.73,2.73,0,0,0,0,2h0a2.8,2.8,0,0,0,1.93-1.67l1.82-4.59s1.44-.71,1.34.67a20.59,20.59,0,0,1-1.72,4.59,2.74,2.74,0,0,0-.09,2.1h0a3.63,3.63,0,0,0,1.82-1.92l1.9-4.66s2-.92,1.41.95a41.33,41.33,0,0,1-2.64,5.63l.49,1,.7-.37,1.23-3.2s1.53-1.09,1.25.59S141,133.16,141,133.16l-1.85,2.72S134.09,140.14,131.74,135.37Z"/><path class="cls-11" d="M131.79,135.18,129,127.45l-1-6.22s.67-1.34,1.57-.17l1,4.72,1,.81,3.76-10.39s1.38-1.17,1.28.62a18.94,18.94,0,0,1-1.17,4.36,2.71,2.71,0,0,0,0,2h0a2.76,2.76,0,0,0,1.9-1.64l1.81-4.52s1.43-.7,1.32.66a20.51,20.51,0,0,1-1.7,4.52,2.66,2.66,0,0,0-.09,2.07h0a3.67,3.67,0,0,0,1.8-1.9l1.88-4.58s2-.91,1.4.93a39.78,39.78,0,0,1-2.62,5.54l.48,1,.7-.36,1.21-3.15s1.52-1.07,1.24.58S141,133,141,133l-1.84,2.68S134.11,139.88,131.79,135.18Z"/><path class="cls-12" d="M131.84,135l-2.76-7.61-1-6.12s.67-1.31,1.55-.16l1,4.64,1,.79,3.73-10.22s1.36-1.15,1.26.61a18.2,18.2,0,0,1-1.15,4.29,2.68,2.68,0,0,0,0,1.93h0a2.74,2.74,0,0,0,1.89-1.61l1.78-4.45s1.42-.69,1.31.65a20,20,0,0,1-1.69,4.44,2.63,2.63,0,0,0-.08,2h0a3.59,3.59,0,0,0,1.78-1.86l1.87-4.51s1.93-.9,1.38.91a39.79,39.79,0,0,1-2.59,5.45l.47,1,.69-.37,1.2-3.09s1.5-1,1.23.57-3.85,10.54-3.85,10.54l-1.82,2.64S134.12,139.62,131.84,135Z"/><path class="cls-13" d="M131.88,134.81l-2.72-7.47-.94-6s.66-1.29,1.53-.16l.95,4.56,1,.78,3.68-10s1.36-1.13,1.26.6a18.42,18.42,0,0,1-1.15,4.22,2.57,2.57,0,0,0,0,1.89h0a2.7,2.7,0,0,0,1.87-1.59l1.77-4.37s1.4-.68,1.3.63a19.66,19.66,0,0,1-1.68,4.38,2.57,2.57,0,0,0-.09,2h0a3.51,3.51,0,0,0,1.77-1.83l1.85-4.44s1.91-.89,1.36.9a39.19,39.19,0,0,1-2.56,5.36l.47,1,.67-.36,1.2-3s1.48-1,1.21.56-3.81,10.37-3.81,10.37l-1.8,2.59S134.14,139.35,131.88,134.81Z"/><path class="cls-14" d="M131.93,134.63l-2.69-7.35-.93-5.91s.66-1.27,1.52-.16l.93,4.48,1,.77,3.65-9.89s1.34-1.11,1.24.59a17.55,17.55,0,0,1-1.13,4.15,2.49,2.49,0,0,0,0,1.86h0a2.64,2.64,0,0,0,1.84-1.56l1.76-4.3s1.38-.67,1.28.62a19.09,19.09,0,0,1-1.66,4.31,2.48,2.48,0,0,0-.09,2h0a3.49,3.49,0,0,0,1.75-1.8l1.83-4.36s1.9-.88,1.35.88a38.88,38.88,0,0,1-2.54,5.27l.46,1,.67-.35,1.19-3s1.46-1,1.19.55-3.78,10.19-3.78,10.19L139,135.09S134.16,139.09,131.93,134.63Z"/><path class="cls-15" d="M132,134.44l-2.65-7.22-.92-5.81s.65-1.24,1.51-.15l.92,4.41,1,.74,3.62-9.71s1.33-1.1,1.23.57a17.5,17.5,0,0,1-1.13,4.08,2.46,2.46,0,0,0,0,1.83h0a2.65,2.65,0,0,0,1.83-1.53l1.73-4.23s1.37-.65,1.27.61a19,19,0,0,1-1.64,4.23,2.4,2.4,0,0,0-.09,1.93h0a3.47,3.47,0,0,0,1.73-1.77l1.81-4.29s1.88-.86,1.34.87a38.57,38.57,0,0,1-2.52,5.18l.46.94.66-.35,1.17-2.94s1.46-1,1.19.54-3.75,10-3.75,10L139,134.9S134.18,138.83,132,134.44Z"/><path class="cls-16" d="M132,134.26l-2.62-7.09-.9-5.71s.64-1.23,1.48-.15l.91,4.33,1,.73,3.59-9.54s1.31-1.08,1.21.56a17,17,0,0,1-1.11,4,2.36,2.36,0,0,0,0,1.79h0a2.57,2.57,0,0,0,1.81-1.51l1.72-4.15s1.36-.64,1.25.6a18.69,18.69,0,0,1-1.62,4.16,2.31,2.31,0,0,0-.09,1.89h0a3.37,3.37,0,0,0,1.71-1.74l1.79-4.21s1.86-.85,1.32.85a37.36,37.36,0,0,1-2.49,5.09l.45.92.66-.34,1.16-2.89s1.44-1,1.17.53-3.71,9.84-3.71,9.84L139,134.7S134.19,138.56,132,134.26Z"/><path class="cls-17" d="M132.06,134.07l-2.58-7-.89-5.6s.64-1.21,1.47-.15l.9,4.25.95.72,3.55-9.38s1.3-1.06,1.2.55a17,17,0,0,1-1.11,3.94,2.36,2.36,0,0,0,0,1.77h0a2.56,2.56,0,0,0,1.78-1.49l1.71-4.08s1.34-.63,1.24.59a18.06,18.06,0,0,1-1.62,4.08,2.32,2.32,0,0,0-.09,1.86h0a3.34,3.34,0,0,0,1.7-1.71l1.78-4.14s1.83-.83,1.3.84a35.85,35.85,0,0,1-2.47,5l.45.9.65-.33,1.15-2.84s1.42-1,1.15.52-3.67,9.67-3.67,9.67l-1.73,2.42S134.21,138.3,132.06,134.07Z"/><path class="cls-4" d="M135.63,134.55a6.36,6.36,0,0,0-.12-4.86,6.28,6.28,0,0,0-3-3"/><line class="cls-4" x1="138.07" y1="132.37" x2="134.4" y2="125.4"/><path class="cls-4" d="M141.07,129.67a7.26,7.26,0,0,1-5.76-3.56"/><path class="cls-18" d="M122.53,115.68c-.75,1.44-2.8,1.85-1.36,2.61a2.94,2.94,0,0,0,2.72-5.21C122.45,112.33,123.28,114.25,122.53,115.68Z"/><path class="cls-19" d="M106.35,113.61c-.21,1.61,1.23,3.12-.37,2.92a2.94,2.94,0,1,1,.74-5.83C108.33,110.91,106.55,112,106.35,113.61Z"/><path class="cls-20" d="M105.15,110l1-6.25a2.77,2.77,0,0,1,3.19-2.28l13.84,2.32a2.77,2.77,0,0,1,2.28,3.19s-1.16,6.52-1.26,6.61l-1,3c-.14.38-.29.75-.46,1.12a22.39,22.39,0,0,1-2,3.6c-.33.12-3.4,4.29-8.13,3.24,0,0-3,.39-5.56-4.13l-1-3.31a7.31,7.31,0,0,1-.32-1.53S105.13,110.09,105.15,110Z"/><path d="M117.6,112.62c-.37,1.1,1-.08,2.11.29s1.49,2.14,1.86,1a2.09,2.09,0,1,0-4-1.33Z"/><path d="M107.49,113.36c.21,1.14.85-.56,2-.77s2.35,1.14,2.13,0a2.1,2.1,0,1,0-4.12.77Z"/><path class="cls-21" d="M111.59,105.66c-3.38.66-4.34,1.37-4.34,1.37"/><path class="cls-21" d="M119.27,106.55c3.38,1,3.94,1.63,3.94,1.63"/><path class="cls-22" d="M116.07,115.61s0,1.82-1.53,1.5c0,0-1.43,0-1.59-1,0,0-1,1.68,1.56,1.67S116.07,115.61,116.07,115.61Z"/><path class="cls-22" d="M123,115.64a5.45,5.45,0,0,1-6.9-.59s.42,3.57,3.28,3.81S123,117.22,123,115.64Z"/><path class="cls-22" d="M112.6,115.33a5.45,5.45,0,0,1-6.91-.59s.42,3.57,3.28,3.82S112.67,116.92,112.6,115.33Z"/><circle class="cls-23" cx="119.92" cy="112.79" r="4.08"/><circle class="cls-23" cx="109.52" cy="112.67" r="4.08" transform="translate(-11.03 11.89) rotate(-5.92)"/><path class="cls-23" d="M113.57,112.25a2,2,0,0,1,2.3.08"/><path class="cls-24" d="M113,114.93a1.18,1.18,0,0,1,0,.2c-.19,1.31.44,2,1.39,2,1.32,0,1.57-.19,1.77-1.5l0-.2"/><line class="cls-25" x1="120.36" y1="115.83" x2="122.54" y2="114.04"/><line class="cls-26" x1="110.36" y1="115.13" x2="112.32" y2="113.27"/><path class="cls-27" d="M111.57,119.75c-.55.47,1,1.55,2,1.78s2.27-.17,2.42-.88-.84-1.45-1.85-1.68A3,3,0,0,0,111.57,119.75Z"/><path class="cls-28" d="M111.3,120.27c-.16.7,1,1.55,2,1.77s2.27-.17,2.43-.87-.84-1.46-1.86-1.69S111.45,119.56,111.3,120.27Z"/><path class="cls-29" d="M116,120.69s-.81-3-4.11-1.09c-.18.08-.06.06-.25.14a7.52,7.52,0,0,1,2.09.21A8.73,8.73,0,0,1,116,120.69Z"/><path class="cls-30" d="M116.28,120.79l-.33-.1a2.17,2.17,0,0,1-2,1.35,2.23,2.23,0,0,1-2.57-2.24v0"/><ellipse cx="111.01" cy="119.73" rx="0.28" ry="0.48" transform="translate(-23.48 212.31) rotate(-81.71)"/><path d="M115.62,120.94c.06.22.41.32.77.22s.61-.38.54-.6-.41-.33-.77-.22S115.55,120.71,115.62,120.94Z"/><path class="cls-31" d="M106.74,97a2.53,2.53,0,0,1,.18-1.55,2.44,2.44,0,0,1-.28-.77,2.39,2.39,0,0,1,.79-2.35s0,0,0,0a2.38,2.38,0,0,1,1-2.47A2.16,2.16,0,0,1,110,87.69a1.89,1.89,0,0,1,1.24.17,1.83,1.83,0,0,1,.87-.43,2,2,0,0,1,1.33.23,1.77,1.77,0,0,1,.8-.36,2.1,2.1,0,0,1,2.15,1,2,2,0,0,1,1.41-1.14,2.16,2.16,0,0,1,2.29,1.24,1.91,1.91,0,0,1,1-.59,2,2,0,0,1,1.8.58,1.88,1.88,0,0,1,1-.52,2.13,2.13,0,0,1,2.18,1,2.26,2.26,0,0,1,2.52,1.94,2.68,2.68,0,0,1,0,.89,2.63,2.63,0,0,1,.58,1.21,2.59,2.59,0,0,1-.16,1.52,3.31,3.31,0,0,1,.12.42,2.83,2.83,0,0,1,0,.82,2.6,2.6,0,0,1,.61,1.23,2.49,2.49,0,0,1-.59,2.17,2.45,2.45,0,0,1-.57,2.06.45.45,0,0,1,0,.11,2.26,2.26,0,0,1-1.62,2.75,2,2,0,0,1-1.45-.3,2.08,2.08,0,0,1-1.53,1.37,2.22,2.22,0,0,1-2.47-1.72,2.45,2.45,0,0,1-.36-.36,2.2,2.2,0,0,1-1.2-.82,1.38,1.38,0,0,1-.27.08,2,2,0,0,1-1.86-.64,1.87,1.87,0,0,1-.4.13,2,2,0,0,1-1.72-.51,1.66,1.66,0,0,1-.5.18,2.14,2.14,0,0,1-2.25-1.16,1.91,1.91,0,0,1-1,.56A2.1,2.1,0,0,1,110,100a2.21,2.21,0,0,1-1.73-1.12A2.45,2.45,0,0,1,106.74,97Z"/><path class="cls-32" d="M105.41,109.16a1,1,0,0,1-.37-.68,1,1,0,0,1,.32-.84,1,1,0,0,1-.48-.76,1.06,1.06,0,0,1,.94-1.16c.25,0-.24-1,0-.89a3.64,3.64,0,0,1,1.42-.15s0,0,0,.06a.75.75,0,0,1-.66.81.73.73,0,0,1-.81-.66.72.72,0,0,1,0-.33,1,1,0,0,1,.55-1.72,1.24,1.24,0,0,1-.1-.39,1.43,1.43,0,0,1,1.27-1.57h.18a1.43,1.43,0,0,1,1.24-1.13,1.47,1.47,0,0,1,.81.15,1.43,1.43,0,0,1,1.14-.81,1.5,1.5,0,0,1,1,.28,1.39,1.39,0,0,1,.91-.47,1.41,1.41,0,0,1,1.52,1,1.44,1.44,0,0,1,.78-.33,1.4,1.4,0,0,1,1.43.8h.09a1.42,1.42,0,0,1,1.26.52,1,1,0,0,1,.3-.1,1.12,1.12,0,0,1,.49.07,1.14,1.14,0,0,1,.76-.44,1.08,1.08,0,0,1,1.08.62,1.14,1.14,0,0,1,.38.23,1.42,1.42,0,0,1,1.33-.06l.14.08a1.08,1.08,0,0,1,.69.63,1.43,1.43,0,0,1,1.71,1.25,1.42,1.42,0,0,1,1.61,1.6,1,1,0,0,1,.16.06,1.42,1.42,0,0,1,0,2.56,1.11,1.11,0,0,1-.08.54,1,1,0,0,1-.45.45,1.05,1.05,0,0,1,.24.06.75.75,0,0,1,.36,1,.78.78,0,0,1-.42.38h0a1,1,0,0,1-.29,2,1,1,0,0,1,.1,1,1,1,0,0,1-.41.43.76.76,0,0,1,.06.72.74.74,0,1,1-1.34-.64.83.83,0,0,1,.11-.15,1,1,0,0,1-.31-1.26,1,1,0,0,1,.78-.57h0a1,1,0,0,1-1.15-1.44,1.29,1.29,0,0,1-.38-.12,1.43,1.43,0,0,1-.69-1.9l0-.08a1.42,1.42,0,0,1-.3-1.59,1.43,1.43,0,0,1-1.75-1.23,1.42,1.42,0,0,1-1.77.46,1.48,1.48,0,0,1-.55-.47,1.45,1.45,0,0,1-.83-1,1.4,1.4,0,0,1-.93.49,1.44,1.44,0,0,1-1.46-.83,1.44,1.44,0,0,1-2.29-.7,1.4,1.4,0,0,1-1.13.8,1.38,1.38,0,0,1-.92-.22A1.43,1.43,0,0,1,110,105a.24.24,0,0,0,0,.08,1.43,1.43,0,0,1-1.28,1.57,1.4,1.4,0,0,1-.5,0,1,1,0,0,1-.93,1.11,1,1,0,0,1-.67-.18h0a1,1,0,0,1-.12,1.8.77.77,0,0,1,.11.3.74.74,0,0,1-.66.81.73.73,0,0,1-.81-.66A.72.72,0,0,1,105.41,109.16Z"/><path class="cls-33" d="M93.71,165.12s9.22,8.42,29,4.95c0,0-3-4.31,1.12-17.06,0,0,2-4.15,1.35-7.64,0,0,4.35-2.06,3.18-4.63,0,0,2.27-.69,1.47-3.84,0,0-3.1-1.38-3.47-3.4s-4.52-4.61-8.18-3.1c0,0-2.18,4.52-8.17,3.38s-5-3.66-5.11-5.54c0,0-5.14-.9-6,2.31,0,0-1.66,2.61-7,3.77a8,8,0,0,1,.77,4.67c-.46,2.35,1.84,4.43,1.84,4.43a3.55,3.55,0,0,1,2.22,2c.81,1.65-.33,2.66,1.7,4.92C98.4,150.29,99.53,162.43,93.71,165.12Z"/><path class="cls-34" d="M100,162.39c-.22,1.6,3.53,2.56,8.58,3.25s9.51.86,9.73-.74-5,.29-10-.41S100.21,160.79,100,162.39Z"/><path class="cls-34" d="M103.13,158c-.22,1.6,3.52,2.56,8.58,3.25s9.51.86,9.72-.74-5,.29-10-.41S103.35,156.37,103.13,158Z"/><path class="cls-35" d="M102.31,136.12c-.22,1.6,3.53,2.56,8.58,3.25s9.51.86,9.73-.74-5,.29-10-.41S102.53,134.52,102.31,136.12Z"/><path class="cls-35" d="M103.77,144.18c-.22,1.6,3.52,2.56,8.58,3.25s9.5.86,9.72-.74-5,.29-10-.41S104,142.58,103.77,144.18Z"/><line class="cls-36" x1="103.23" y1="193.88" x2="104.56" y2="184.42"/><line class="cls-37" x1="110.72" y1="184.38" x2="104.56" y2="184.42"/><line class="cls-37" x1="100.92" y1="181.55" x2="104.56" y2="184.42"/><path class="cls-38" d="M199.21,212.91s20.86-10.54,31.29-35.64c0,0,.55-2.89-4.59-7.79,0,0-9.86,8.47-26.93,3.5C199,173,186.64,189.28,199.21,212.91Z"/><path class="cls-39" d="M202.53,134.48s1.7,3.81,7.5,4c0,0,6.73-1,6.28-6.15,0,0-5.32.56-4.81-5.17,0,0-2.35,2.93-6.64.09C204.86,127.24,207,132.93,202.53,134.48Z"/><path class="cls-40" d="M222.8,151.64l.67-3.95a4.2,4.2,0,0,0,3.93-4.09l3.82,7.71a9,9,0,0,1,6,3.71s-.27,5.1-2.29,6.9l-9.64-4.42Z"/><path class="cls-4" d="M184.49,140.46a6.39,6.39,0,0,1,.12-4.87,6.24,6.24,0,0,1,3-3"/><path class="cls-41" d="M181.65,140.63s2.37,5.64,2.53,8.42.56,13.21,8.95,17l1.32-.52a4.29,4.29,0,0,0,2.63-3.12l.7-3.39-1.37-4.76-.85-2.69a4.76,4.76,0,0,1-.12-2.34l.16-.83a3.18,3.18,0,0,1-3-1.83l-.15-.35c-.85-2.33,0,.12,0,.12l-.29,4.09s-3.85-7.46-3.35-12.28A63,63,0,0,0,181.65,140.63Z"/><path class="cls-6" d="M189.15,140.19l3-8.38,1-6.74s-.71-1.44-1.65-.17l-1,5.11-1.07.88-3.93-11.23s-1.45-1.27-1.35.67a20.91,20.91,0,0,0,1.22,4.72,3,3,0,0,1-.05,2.12h0a2.91,2.91,0,0,1-2-1.77l-1.89-4.88s-1.5-.76-1.4.71a23,23,0,0,0,1.79,4.89,3,3,0,0,1,.09,2.23h0a3.83,3.83,0,0,1-1.9-2l-2-5s-2.06-1-1.47,1a44.11,44.11,0,0,0,2.74,6l-.51,1.09-.73-.39-1.27-3.41s-1.6-1.15-1.31.64,4.06,11.58,4.06,11.58l1.93,2.9S186.7,145.28,189.15,140.19Z"/><path class="cls-7" d="M189.11,140l2.93-8.24,1-6.64s-.7-1.42-1.63-.17l-1,5-1.06.85-3.9-11.06s-1.43-1.24-1.34.66a20.71,20.71,0,0,0,1.21,4.65,3,3,0,0,1,0,2.09h0a2.87,2.87,0,0,1-2-1.74l-1.87-4.81s-1.49-.75-1.39.7a21.66,21.66,0,0,0,1.77,4.81,2.9,2.9,0,0,1,.09,2.2h0a3.77,3.77,0,0,1-1.88-2l-1.95-4.88s-2-1-1.46,1a43.8,43.8,0,0,0,2.72,5.89l-.51,1.08-.72-.39-1.26-3.36s-1.58-1.13-1.29.63,4,11.41,4,11.41l1.91,2.85S186.68,145,189.11,140Z"/><path class="cls-8" d="M189.06,139.82l2.9-8.12,1-6.53s-.69-1.4-1.62-.17l-1,5-1.06.84-3.85-10.89s-1.43-1.23-1.33.65a20.25,20.25,0,0,0,1.2,4.58,2.9,2.9,0,0,1,0,2h0a2.84,2.84,0,0,1-2-1.72l-1.85-4.73s-1.47-.74-1.37.69a21.77,21.77,0,0,0,1.75,4.74,2.82,2.82,0,0,1,.09,2.17h0a3.77,3.77,0,0,1-1.86-2l-1.93-4.8s-2-1-1.45,1a42.56,42.56,0,0,0,2.69,5.8l-.49,1.06-.72-.39-1.25-3.3s-1.56-1.11-1.28.62,4,11.23,4,11.23l1.89,2.81S186.66,144.76,189.06,139.82Z"/><path class="cls-9" d="M189,139.64l2.86-8,1-6.42s-.69-1.38-1.61-.17l-1,4.88-1,.83L185.41,120s-1.41-1.2-1.31.64a19.5,19.5,0,0,0,1.18,4.51,2.76,2.76,0,0,1,0,2h0a2.82,2.82,0,0,1-1.94-1.69l-1.84-4.66s-1.46-.72-1.35.67a20.73,20.73,0,0,0,1.74,4.67,2.79,2.79,0,0,1,.08,2.14h0a3.73,3.73,0,0,1-1.84-2l-1.91-4.74s-2-.94-1.43,1a41.94,41.94,0,0,0,2.66,5.71l-.49,1-.71-.38L177,125.73s-1.55-1.1-1.27.61,4,11.06,4,11.06l1.87,2.77S186.65,144.49,189,139.64Z"/><path class="cls-10" d="M189,139.45l2.83-7.86,1-6.33s-.68-1.35-1.58-.16l-1,4.8-1,.81-3.79-10.55s-1.4-1.19-1.3.63a19.52,19.52,0,0,0,1.18,4.43,2.79,2.79,0,0,1,0,2h0a2.75,2.75,0,0,1-1.92-1.66L181.49,121s-1.45-.71-1.34.66a20.64,20.64,0,0,0,1.72,4.6,2.73,2.73,0,0,1,.09,2.1h0a3.69,3.69,0,0,1-1.83-1.92l-1.9-4.66s-2-.93-1.41,1a41.63,41.63,0,0,0,2.64,5.62l-.48,1-.7-.38-1.23-3.2s-1.53-1.08-1.25.59,3.92,10.9,3.92,10.9l1.85,2.72S186.63,144.23,189,139.45Z"/><path class="cls-11" d="M188.93,139.27l2.79-7.74,1-6.22s-.68-1.33-1.57-.16l-1,4.72-1,.8-3.76-10.39s-1.38-1.17-1.28.62a19,19,0,0,0,1.16,4.37,2.63,2.63,0,0,1,0,2h0a2.75,2.75,0,0,1-1.91-1.64l-1.8-4.51s-1.43-.7-1.33.65a20.6,20.6,0,0,0,1.71,4.52,2.66,2.66,0,0,1,.09,2.07h0a3.63,3.63,0,0,1-1.81-1.89l-1.88-4.58s-1.95-.92-1.4.93a41.33,41.33,0,0,0,2.62,5.53l-.48,1-.69-.37-1.22-3.15s-1.51-1.06-1.24.58,3.89,10.72,3.89,10.72l1.83,2.68S186.61,144,188.93,139.27Z"/><path class="cls-12" d="M188.88,139.08l2.76-7.6,1-6.12s-.66-1.32-1.55-.16l-1,4.64-1,.79-3.72-10.22s-1.37-1.15-1.27.61a18.86,18.86,0,0,0,1.16,4.29,2.6,2.6,0,0,1,0,1.92h0a2.7,2.7,0,0,1-1.88-1.61l-1.79-4.44s-1.41-.69-1.31.64a19.84,19.84,0,0,0,1.69,4.45,2.56,2.56,0,0,1,.09,2h0a3.61,3.61,0,0,1-1.79-1.86l-1.86-4.51s-1.94-.9-1.38.91a39.79,39.79,0,0,0,2.59,5.45l-.47,1-.69-.36-1.21-3.1s-1.5-1-1.22.57,3.85,10.55,3.85,10.55l1.82,2.63S186.59,143.7,188.88,139.08Z"/><path class="cls-13" d="M188.83,138.9l2.73-7.48.94-6s-.66-1.29-1.54-.15l-1,4.56-1,.78-3.69-10.06s-1.35-1.13-1.25.6a18.12,18.12,0,0,0,1.14,4.22,2.6,2.6,0,0,1,0,1.9h0a2.69,2.69,0,0,1-1.86-1.59l-1.77-4.37s-1.4-.68-1.3.63a19.52,19.52,0,0,0,1.67,4.37,2.49,2.49,0,0,1,.09,2h0a3.59,3.59,0,0,1-1.77-1.83L178.41,122s-1.92-.89-1.37.89a39.47,39.47,0,0,0,2.57,5.36l-.47,1-.68-.36-1.19-3.05s-1.49-1-1.21.56,3.81,10.37,3.81,10.37l1.8,2.6S186.57,143.44,188.83,138.9Z"/><path class="cls-14" d="M188.79,138.71l2.69-7.34.92-5.92s-.65-1.27-1.51-.16l-.94,4.49-1,.76-3.66-9.88s-1.34-1.12-1.24.58a18.29,18.29,0,0,0,1.14,4.16,2.49,2.49,0,0,1,0,1.86h0a2.69,2.69,0,0,1-1.85-1.57l-1.75-4.29s-1.39-.67-1.28.62a19.22,19.22,0,0,0,1.66,4.3,2.52,2.52,0,0,1,.08,2h0a3.49,3.49,0,0,1-1.75-1.8l-1.82-4.36s-1.9-.87-1.36.88a37.94,37.94,0,0,0,2.55,5.27l-.47,1-.67-.35-1.18-3s-1.47-1-1.2.55,3.78,10.2,3.78,10.2l1.78,2.55S186.56,143.18,188.79,138.71Z"/><path class="cls-15" d="M188.74,138.53l2.66-7.22.91-5.81s-.65-1.25-1.5-.16l-.92,4.41-1,.75-3.62-9.71s-1.32-1.1-1.22.57a17.6,17.6,0,0,0,1.12,4.08,2.46,2.46,0,0,1,0,1.83h0a2.62,2.62,0,0,1-1.83-1.54l-1.74-4.22s-1.37-.66-1.27.61a19,19,0,0,0,1.65,4.23,2.49,2.49,0,0,1,.09,1.93h0a3.41,3.41,0,0,1-1.73-1.78l-1.82-4.28s-1.87-.86-1.33.86a36.75,36.75,0,0,0,2.52,5.18l-.46.94-.67-.34-1.17-3s-1.45-1-1.18.54,3.74,10,3.74,10l1.77,2.51S186.54,142.91,188.74,138.53Z"/><path class="cls-16" d="M188.7,138.34l2.62-7.09.9-5.7s-.65-1.23-1.49-.16l-.91,4.33-1,.74-3.59-9.55s-1.31-1.08-1.21.56a17.42,17.42,0,0,0,1.12,4,2.39,2.39,0,0,1,0,1.8h0a2.6,2.6,0,0,1-1.8-1.51l-1.73-4.15s-1.35-.65-1.25.6a18.72,18.72,0,0,0,1.63,4.15,2.42,2.42,0,0,1,.09,1.9h0a3.37,3.37,0,0,1-1.71-1.74l-1.8-4.22s-1.85-.84-1.32.85a36.74,36.74,0,0,0,2.49,5.09l-.45.92-.65-.34-1.17-2.89s-1.43-1-1.17.53,3.71,9.85,3.71,9.85l1.75,2.47S186.52,142.65,188.7,138.34Z"/><path class="cls-17" d="M188.65,138.16l2.59-7,.88-5.61s-.63-1.2-1.47-.15l-.89,4.25-.95.72L185.26,121s-1.3-1.06-1.2.55a16.51,16.51,0,0,0,1.11,3.94,2.33,2.33,0,0,1,0,1.76h0a2.61,2.61,0,0,1-1.79-1.48l-1.7-4.08s-1.34-.64-1.24.58A18.22,18.22,0,0,0,182,126.4a2.32,2.32,0,0,1,.09,1.86h0a3.39,3.39,0,0,1-1.69-1.71l-1.78-4.14s-1.84-.83-1.31.83a37,37,0,0,0,2.47,5l-.44.91-.65-.34L177.56,126s-1.42-1-1.16.52,3.68,9.68,3.68,9.68l1.72,2.42S186.5,142.39,188.65,138.16Z"/><path class="cls-4" d="M185.09,138.64a6.32,6.32,0,0,1,.11-4.87,6.24,6.24,0,0,1,3-3"/><line class="cls-4" x1="182.64" y1="136.46" x2="186.32" y2="129.48"/><path class="cls-4" d="M179.65,133.75a7.29,7.29,0,0,0,5.76-3.55"/><path class="cls-42" d="M198.19,119.77c.75,1.44,2.79,1.85,1.36,2.6a2.93,2.93,0,1,1-2.72-5.2C198.26,116.42,197.44,118.33,198.19,119.77Z"/><path class="cls-43" d="M214.37,117.7c.2,1.61-1.24,3.12.37,2.91a2.93,2.93,0,1,0-.74-5.82C212.39,115,214.16,116.09,214.37,117.7Z"/><path class="cls-44" d="M215.56,114.06l-1.05-6.26a2.77,2.77,0,0,0-3.19-2.28l-13.83,2.32a2.77,2.77,0,0,0-2.28,3.19s1.15,6.53,1.26,6.61l1,3a9.08,9.08,0,0,0,.46,1.12,22.29,22.29,0,0,0,1.95,3.61c.33.12,3.41,4.28,8.14,3.24,0,0,2.95.39,5.56-4.13l1-3.32a7.75,7.75,0,0,0,.32-1.52S215.58,114.18,215.56,114.06Z"/><path d="M203.12,116.7c.37,1.1-1-.07-2.11.3s-1.5,2.13-1.87,1a2.1,2.1,0,0,1,4-1.33Z"/><path d="M213.23,117.45c-.22,1.13-.85-.56-2-.78s-2.35,1.14-2.14,0a2.1,2.1,0,0,1,4.13.78Z"/><path class="cls-21" d="M209.12,109.74c3.38.67,4.35,1.38,4.35,1.38"/><path class="cls-21" d="M201.44,110.63c-3.37,1.05-3.94,1.63-3.94,1.63"/><path class="cls-22" d="M204.65,119.7s0,1.82,1.52,1.5c0,0,1.44,0,1.6-1,0,0,1,1.69-1.57,1.68S204.65,119.7,204.65,119.7Z"/><path class="cls-22" d="M197.75,119.72a5.47,5.47,0,0,0,6.91-.59s-.42,3.57-3.28,3.82S197.68,121.31,197.75,119.72Z"/><path class="cls-22" d="M208.12,119.42a5.45,5.45,0,0,0,6.9-.59s-.42,3.57-3.28,3.82S208,121,208.12,119.42Z"/><circle class="cls-23" cx="200.79" cy="116.88" r="4.08"/><circle class="cls-23" cx="211.2" cy="116.76" r="4.08" transform="translate(73.29 314.79) rotate(-84.08)"/><path class="cls-23" d="M207.14,116.34a2,2,0,0,0-2.3.07"/><path class="cls-24" d="M207.76,119a1.18,1.18,0,0,1,0,.2c.2,1.31-.43,1.94-1.38,2-1.33,0-1.58-.18-1.77-1.49l0-.2"/><line class="cls-25" x1="211.64" y1="119.49" x2="213.82" y2="117.7"/><line class="cls-26" x1="201.61" y1="119.42" x2="203.05" y2="118.24"/><path class="cls-27" d="M209.06,123.43c.6.41-.83,1.64-1.82,2s-2.28.07-2.51-.62.69-1.53,1.68-1.86A3,3,0,0,1,209.06,123.43Z"/><path class="cls-28" d="M209.38,123.91c.23.69-.83,1.65-1.82,2s-2.27.06-2.5-.62.68-1.54,1.67-1.87S209.16,123.22,209.38,123.91Z"/><path class="cls-29" d="M204.8,124.82s.5-3,4-1.52c.19.07.07.06.26.12a7.71,7.71,0,0,0-2.05.42A8.51,8.51,0,0,0,204.8,124.82Z"/><path class="cls-30" d="M204.48,124.94l.32-.12a2.19,2.19,0,0,0,2.12,1.13,2.22,2.22,0,0,0,2.32-2.49v-.06"/><ellipse cx="209.62" cy="123.35" rx="0.48" ry="0.28" transform="translate(-23.87 55.23) rotate(-14.21)"/><path d="M205.16,125c0,.24-.38.37-.75.3s-.64-.3-.6-.54.37-.36.75-.3S205.2,124.79,205.16,125Z"/><path class="cls-45" d="M214,101.07a2.52,2.52,0,0,0-.18-1.55,2.85,2.85,0,0,0,.29-.77,2.45,2.45,0,0,0-.79-2.36v0a2.38,2.38,0,0,0-.94-2.46,2.19,2.19,0,0,0-1.66-2.13,2,2,0,0,0-1.24.18,2,2,0,0,0-.87-.44,2,2,0,0,0-1.34.24,1.9,1.9,0,0,0-.8-.37,2.12,2.12,0,0,0-2.14,1,2,2,0,0,0-1.42-1.15,2.15,2.15,0,0,0-2.28,1.25,2,2,0,0,0-1-.6,2.06,2.06,0,0,0-1.79.58,2.09,2.09,0,0,0-1-.52,2.14,2.14,0,0,0-2.18,1,2.27,2.27,0,0,0-2.53,2,2.67,2.67,0,0,0,0,.89,2.55,2.55,0,0,0-.58,1.2,2.62,2.62,0,0,0,.17,1.53,2.58,2.58,0,0,0-.12.42,2.47,2.47,0,0,0,0,.81,2.59,2.59,0,0,0-.6,1.23,2.47,2.47,0,0,0,.58,2.17,2.5,2.5,0,0,0,.57,2.07.61.61,0,0,1,0,.11,2.27,2.27,0,0,0,1.63,2.75,2,2,0,0,0,1.45-.31,2.06,2.06,0,0,0,1.52,1.38,2.25,2.25,0,0,0,2.48-1.73,2.38,2.38,0,0,0,.36-.35,2.25,2.25,0,0,0,1.2-.83,1.07,1.07,0,0,0,.27.09,2,2,0,0,0,1.86-.64,2.52,2.52,0,0,0,.39.12,2,2,0,0,0,1.72-.51,2.07,2.07,0,0,0,.51.19,2.15,2.15,0,0,0,2.24-1.17,2,2,0,0,0,1,.57,2.1,2.1,0,0,0,2.05-.87,2.24,2.24,0,0,0,1.74-1.13A2.42,2.42,0,0,0,214,101.07Z"/><path class="cls-32" d="M215.31,113.25a1.08,1.08,0,0,0,.36-.69,1,1,0,0,0-.31-.83,1.09,1.09,0,0,0,.48-.76,1.06,1.06,0,0,0-1-1.16c-.25,0,.25-1,.05-.89a3.83,3.83,0,0,0-1.41-.16.14.14,0,0,0,0,.06A.74.74,0,0,0,215,109a.78.78,0,0,0,0-.34,1,1,0,0,0,.29-.59,1,1,0,0,0-.83-1.12,1.32,1.32,0,0,0,.1-.39,1.43,1.43,0,0,0-1.28-1.57,1,1,0,0,0-.17,0,1.42,1.42,0,0,0-1.25-1.13,1.42,1.42,0,0,1-1.94-.66,1.41,1.41,0,0,0-1,.27,1.47,1.47,0,0,0-.92-.47,1.43,1.43,0,0,0-1.52,1,1.41,1.41,0,0,0-.77-.33,1.45,1.45,0,0,0-1.44.81l-.08,0a1.43,1.43,0,0,0-1.26.52,1.11,1.11,0,0,0-.31-.09,1,1,0,0,0-.49.07,1,1,0,0,0-.75-.44,1.08,1.08,0,0,0-1.09.62,1,1,0,0,0-.38.22,1.42,1.42,0,0,0-1.33-.06l-.13.09a1.07,1.07,0,0,0-.7.63,1.4,1.4,0,0,0-1.7,1.24,1.44,1.44,0,0,0-.81.13,1.42,1.42,0,0,0-.8,1.48l-.17,0a1.44,1.44,0,0,0-.68,1.91,1.39,1.39,0,0,0,.65.66,1,1,0,0,0,.08.53,1.05,1.05,0,0,0,.45.46.71.71,0,0,0-.25.06.74.74,0,0,0,.06,1.36h-.05a1.06,1.06,0,0,0-.5,1.41,1,1,0,0,0,.8.57,1,1,0,0,0-.11,1,1.11,1.11,0,0,0,.42.44.69.69,0,0,0-.06.71.74.74,0,0,0,1.33-.63.53.53,0,0,0-.11-.15,1,1,0,0,0,.32-1.26,1,1,0,0,0-.79-.57h0a1,1,0,0,0,.66-.06,1,1,0,0,0,.5-1.38,1.27,1.27,0,0,0,.38-.11A1.44,1.44,0,0,0,198,112a.43.43,0,0,1,0-.07,1.41,1.41,0,0,0,.29-1.6,1.49,1.49,0,0,0,.95-.09,1.42,1.42,0,0,0,.8-1.13,1.44,1.44,0,0,0,1.77.45,5.79,5.79,0,0,0,1.38-1.48,1.47,1.47,0,0,0,.94.49,1.44,1.44,0,0,0,1.45-.84,1.41,1.41,0,0,0,.77.33,1.43,1.43,0,0,0,1.52-1,1.43,1.43,0,0,0,1.14.8,1.48,1.48,0,0,0,.92-.23,1.41,1.41,0,0,0,.81,1.41.29.29,0,0,0,0,.09A1.43,1.43,0,0,0,212,110.7a1.4,1.4,0,0,0,.5,0,1,1,0,0,0,.93,1.1,1,1,0,0,0,.66-.17h0a1,1,0,0,0-.46.75,1,1,0,0,0,.59,1,.64.64,0,0,0-.11.31.74.74,0,1,0,1.47.15A.72.72,0,0,0,215.31,113.25Z"/><path class="cls-46" d="M227,169.21s-9.21,8.41-29,4.95c0,0,2.95-4.32-1.12-17.06,0,0-2-4.16-1.36-7.65,0,0-4.34-2-3.18-4.63,0,0-2.27-.68-1.46-3.84,0,0,3.1-1.38,3.46-3.39s4.53-4.61,8.19-3.11c0,0,2.17,4.53,8.16,3.38s5-3.65,5.11-5.53c0,0,5.14-.91,6.06,2.3,0,0,1.65,2.61,7,3.77a7.89,7.89,0,0,0-.77,4.67c.46,2.36-1.84,4.43-1.84,4.43a3.58,3.58,0,0,0-2.23,1.95c-.81,1.65.34,2.67-1.69,4.93C222.32,154.38,221.19,166.52,227,169.21Z"/><path class="cls-34" d="M220.72,166.47c.22,1.6-3.52,2.57-8.58,3.26s-9.5.85-9.72-.75,5,.29,10-.4S220.5,164.88,220.72,166.47Z"/><path class="cls-34" d="M217.59,162.05c.22,1.6-3.53,2.57-8.58,3.26s-9.51.85-9.73-.75,5,.29,10-.4S217.37,160.46,217.59,162.05Z"/><path class="cls-35" d="M218.41,140.2c.21,1.6-3.53,2.56-8.59,3.26s-9.5.85-9.72-.75,5,.29,10-.4S218.19,138.61,218.41,140.2Z"/><path class="cls-35" d="M217,148.26c.22,1.6-3.53,2.57-8.58,3.26s-9.51.85-9.73-.74,5,.28,10-.41S216.73,146.67,217,148.26Z"/><line class="cls-36" x1="217.49" y1="197.96" x2="216.16" y2="188.51"/><line class="cls-37" x1="210" y1="188.47" x2="216.16" y2="188.51"/><line class="cls-37" x1="219.79" y1="185.63" x2="216.16" y2="188.51"/></g></svg>