<svg xmlns="http://www.w3.org/2000/svg" xmlns:xlink="http://www.w3.org/1999/xlink" viewBox="0 0 155.42 123.5"><defs><style>.cls-1{fill:#bebbf5;}.cls-2{fill:#e6e6ff;}.cls-3{fill:#070716;}.cls-4{fill:#27275b;}.cls-5{fill:#5b5b99;}.cls-6{fill:url(#New_Gradient_Swatch_copy_4);}.cls-7{fill:#0b0b1e;stroke-width:2px;stroke:url(#New_Gradient_Swatch_copy_4-2);}.cls-20,.cls-7{stroke-miterlimit:10;}.cls-8{fill:#d8d8d8;}.cls-9{fill:#fff;}.cls-10{fill:#b4b4b5;}.cls-11{fill:#d3d3f2;}.cls-12{fill:#c3c3e0;}.cls-13{fill:#5d43b4;}.cls-14{fill:#2e2666;}.cls-15{fill:url(#New_Gradient_Swatch_copy_2);}.cls-16{fill:url(#New_Gradient_Swatch);}.cls-17{fill:url(#New_Gradient_Swatch_copy);}.cls-18{fill:url(#linear-gradient);}.cls-19{fill:url(#linear-gradient-2);}.cls-20{fill:none;stroke:#070707;}.cls-21{fill:url(#linear-gradient-3);}.cls-22{fill:url(#linear-gradient-4);}.cls-23{fill:url(#linear-gradient-5);}.cls-24{fill:#1f0d05;}.cls-25{fill:url(#New_Gradient_Swatch_copy_3);}.cls-26{fill:url(#New_Gradient_Swatch_copy_2-2);}</style><linearGradient id="New_Gradient_Swatch_copy_4" x1="46.91" y1="-0.46" x2="31.8" y2="44.42" gradientUnits="userSpaceOnUse"><stop offset="0.13" stop-color="#c1c8ea"/><stop offset="0.27" stop-color="#b6c1ea"/><stop offset="0.53" stop-color="#9aaeea"/><stop offset="0.86" stop-color="#6c8fe9"/><stop offset="1" stop-color="#5680e9"/></linearGradient><linearGradient id="New_Gradient_Swatch_copy_4-2" x1="32.97" y1="59.33" x2="98.44" y2="2.07" xlink:href="#New_Gradient_Swatch_copy_4"/><linearGradient id="New_Gradient_Swatch_copy_2" x1="87.86" y1="69.49" x2="127.34" y2="69.49" gradientUnits="userSpaceOnUse"><stop offset="0" stop-color="#c49179"/><stop offset="0.55" stop-color="#a37865"/><stop offset="1" stop-color="#5e4538"/></linearGradient><linearGradient id="New_Gradient_Swatch" x1="107.26" y1="58.68" x2="137.46" y2="79.14" gradientUnits="userSpaceOnUse"><stop offset="0" stop-color="#9690c8"/><stop offset="0.62" stop-color="#5143b6"/><stop offset="1" stop-color="#2e2666"/></linearGradient><linearGradient id="New_Gradient_Swatch_copy" x1="82.69" y1="89.19" x2="126.65" y2="108.26" gradientUnits="userSpaceOnUse"><stop offset="0.21" stop-color="#97e0fe"/><stop offset="0.83" stop-color="#6fb1cc"/></linearGradient><linearGradient id="linear-gradient" x1="67.23" y1="115.48" x2="175.16" y2="77.71" gradientUnits="userSpaceOnUse"><stop offset="0" stop-color="#c0d4f0"/><stop offset="0.33" stop-color="#bed3f0"/><stop offset="0.51" stop-color="#b6cef0"/><stop offset="0.65" stop-color="#a8c7f0"/><stop offset="0.78" stop-color="#95bcf1"/><stop offset="0.89" stop-color="#7baef1"/><stop offset="0.99" stop-color="#5d9df2"/><stop offset="1" stop-color="#599bf2"/></linearGradient><linearGradient id="linear-gradient-2" x1="118.82" y1="54.87" x2="116.31" y2="41.17" gradientUnits="userSpaceOnUse"><stop offset="0.17" stop-color="#c49179"/><stop offset="0.55" stop-color="#a37865"/><stop offset="1" stop-color="#5e4538"/></linearGradient><linearGradient id="linear-gradient-3" x1="101.45" y1="31.63" x2="102.95" y2="47.72" gradientUnits="userSpaceOnUse"><stop offset="0" stop-color="#c49179"/><stop offset="0.39" stop-color="#a37865"/></linearGradient><linearGradient id="linear-gradient-4" x1="115.07" y1="24.91" x2="120.94" y2="88.05" gradientUnits="userSpaceOnUse"><stop offset="0.2" stop-color="#c49179"/><stop offset="0.61" stop-color="#a37865"/></linearGradient><linearGradient id="linear-gradient-5" x1="1441.69" y1="33.67" x2="1447.49" y2="38.08" gradientTransform="matrix(-1, 0, 0, 1, 1556.1, 0)" xlink:href="#linear-gradient-4"/><linearGradient id="New_Gradient_Swatch_copy_3" x1="159.97" y1="210.78" x2="174.32" y2="255.78" gradientTransform="translate(37.66 -255.41) rotate(18.48)" gradientUnits="userSpaceOnUse"><stop offset="0.17" stop-color="#401e10"/><stop offset="0.56" stop-color="#1f0d05"/><stop offset="0.93" stop-color="#120703"/></linearGradient><linearGradient id="New_Gradient_Swatch_copy_2-2" x1="47.94" y1="76.37" x2="131.78" y2="76.37" xlink:href="#New_Gradient_Swatch_copy_2"/></defs><g id="Layer_2" data-name="Layer 2"><g id="Layer_3" data-name="Layer 3"><polygon class="cls-1" points="52.98 103.58 151.18 67.84 152.12 59.98 54.59 95.68 52.98 103.58"/><polygon class="cls-2" points="54.59 95.68 1.13 65.25 98.86 29.23 152.12 59.98 54.59 95.68"/><polygon class="cls-2" points="52.98 103.58 54.59 95.68 1.13 65.25 0 73 52.98 103.58"/><path class="cls-3" d="M57,53.5l11-3.79a2.72,2.72,0,0,1,2.21.2l9.38,5.3a2.71,2.71,0,0,1-.41,4.9l-11.15,4a2.75,2.75,0,0,1-2.31-.22l-9.25-5.54A2.71,2.71,0,0,1,57,53.5Z"/><polygon class="cls-4" points="67.45 47.56 62.76 49.06 62.76 54.78 65.38 55.99 70.09 54.28 70.09 47.8 67.45 47.56"/><polygon class="cls-5" points="65.38 56.08 65.4 49.6 62.76 49.15 62.76 54.87 65.38 56.08"/><polygon class="cls-6" points="34.38 60.94 31.45 59.48 30.17 25.06 32.67 23.71 34.38 60.94"/><polygon class="cls-7" points="35.26 59.47 33.65 24.38 95.73 1.4 98.33 36.51 35.26 59.47"/><path class="cls-8" d="M56,76.67a7.57,7.57,0,0,1-3-3.47l-.35-.8L72.12,83.58,71.69,86Z"/><polygon class="cls-9" points="52.72 72.68 98.82 55.84 117.39 67.01 117.67 69.2 71.76 86.27 72.2 83.86 52.72 72.68"/><polygon class="cls-10" points="71.91 83.64 117.31 66.73 117.6 68.92 71.64 85.93 71.91 83.64"/><path class="cls-11" d="M65.61,71.77l-1.94.78a1.57,1.57,0,0,1-1.31-.09l-1.63-1.07c-.32-.21-.23-.5.19-.64L63,70a1.58,1.58,0,0,1,1.23.12l1.52,1C66,71.35,66,71.63,65.61,71.77Z"/><path class="cls-11" d="M68.76,73.72l-1.94.78a1.58,1.58,0,0,1-1.3-.09l-1.63-1.07c-.32-.21-.23-.5.19-.65l2-.7a1.59,1.59,0,0,1,1.22.11l1.53,1C69.17,73.3,69.12,73.57,68.76,73.72Z"/><path class="cls-11" d="M71.93,75.56,70,76.34a1.6,1.6,0,0,1-1.31-.09l-1.63-1.08c-.31-.21-.23-.5.19-.64l2.05-.71a1.6,1.6,0,0,1,1.22.12l1.53,1C72.34,75.14,72.29,75.41,71.93,75.56Z"/><path class="cls-11" d="M75.16,77.34l-1.94.78a1.58,1.58,0,0,1-1.3-.09L70.29,77c-.32-.21-.23-.49.19-.64l2-.7a1.55,1.55,0,0,1,1.22.11l1.53,1C75.57,76.92,75.52,77.19,75.16,77.34Z"/><path class="cls-11" d="M78.91,76,77,76.78a1.58,1.58,0,0,1-1.3-.09L74,75.61c-.32-.21-.23-.5.19-.64l2-.71a1.62,1.62,0,0,1,1.23.12l1.52,1C79.32,75.58,79.28,75.85,78.91,76Z"/><path class="cls-11" d="M82,78l-1.94.78a1.6,1.6,0,0,1-1.31-.09l-1.63-1.08c-.31-.21-.23-.5.19-.64l2-.71a1.6,1.6,0,0,1,1.22.12l1.53,1C82.4,77.62,82.35,77.89,82,78Z"/><path class="cls-11" d="M78.16,79.38l-1.94.78a1.58,1.58,0,0,1-1.3-.09L73.29,79c-.32-.21-.23-.49.19-.64l2-.7a1.58,1.58,0,0,1,1.23.11l1.52,1C78.57,79,78.53,79.23,78.16,79.38Z"/><path class="cls-11" d="M82.76,74.84l-1.94.78a1.54,1.54,0,0,1-1.3-.08l-1.63-1.08c-.32-.21-.23-.5.19-.64l2-.71a1.55,1.55,0,0,1,1.22.12l1.53,1C83.17,74.42,83.12,74.7,82.76,74.84Z"/><path class="cls-11" d="M85.75,76.69l-1.94.79a1.58,1.58,0,0,1-1.3-.09l-1.63-1.08c-.32-.21-.23-.5.19-.64l2-.71a1.55,1.55,0,0,1,1.22.12l1.53,1C86.16,76.27,86.11,76.55,85.75,76.69Z"/><path class="cls-11" d="M86.42,73.5l-1.94.78a1.58,1.58,0,0,1-1.3-.09l-1.63-1.07c-.32-.21-.23-.5.19-.64l2-.71a1.55,1.55,0,0,1,1.22.12l1.53,1C86.83,73.08,86.78,73.36,86.42,73.5Z"/><path class="cls-11" d="M90,72.06l-2,.78a1.58,1.58,0,0,1-1.3-.09l-1.63-1.08c-.32-.21-.23-.5.19-.64l2-.71a1.62,1.62,0,0,1,1.23.12l1.52,1C90.42,71.63,90.38,71.91,90,72.06Z"/><path class="cls-11" d="M93.45,70.66l-1.94.78a1.6,1.6,0,0,1-1.31-.09l-1.63-1.08c-.32-.21-.23-.49.19-.64l2-.7A1.62,1.62,0,0,1,92,69l1.52,1C93.85,70.24,93.81,70.51,93.45,70.66Z"/><path class="cls-11" d="M97,69.32l-1.94.78a1.58,1.58,0,0,1-1.3-.09l-1.63-1.08c-.32-.21-.23-.5.19-.64l2-.71a1.59,1.59,0,0,1,1.22.12l1.53,1C97.4,68.9,97.35,69.17,97,69.32Z"/><path class="cls-11" d="M100.72,68.08l-1.94.78a1.6,1.6,0,0,1-1.31-.09L95.84,67.7c-.31-.21-.22-.5.19-.65l2-.7a1.55,1.55,0,0,1,1.22.12l1.53,1C101.13,67.66,101.08,67.94,100.72,68.08Z"/><path class="cls-11" d="M106.88,68.64l-1.94.78a1.58,1.58,0,0,1-1.3-.09L102,68.26c-.32-.21-.23-.5.19-.64l2-.71a1.55,1.55,0,0,1,1.22.12L107,68C107.29,68.22,107.24,68.5,106.88,68.64Z"/><path class="cls-11" d="M110.64,67.3l-1.94.78a1.58,1.58,0,0,1-1.3-.09l-1.63-1.07c-.32-.21-.23-.5.19-.65l2-.7a1.55,1.55,0,0,1,1.22.12l1.53,1C111.05,66.88,111,67.16,110.64,67.3Z"/><path class="cls-11" d="M104.2,66.63l-1.94.78a1.57,1.57,0,0,1-1.31-.09l-1.63-1.07c-.31-.21-.23-.5.19-.64l2-.71a1.55,1.55,0,0,1,1.22.12l1.53,1C104.61,66.21,104.56,66.49,104.2,66.63Z"/><path class="cls-11" d="M107.93,65.37l-1.94.78a1.58,1.58,0,0,1-1.3-.09L103.06,65c-.32-.21-.23-.5.19-.65l2-.7a1.62,1.62,0,0,1,1.23.11l1.52,1C108.34,65,108.3,65.22,107.93,65.37Z"/><path class="cls-11" d="M75.73,74.16l-1.94.78a1.6,1.6,0,0,1-1.31-.09l-1.63-1.07c-.31-.21-.23-.5.19-.65l2-.7a1.59,1.59,0,0,1,1.22.11l1.53,1C76.14,73.74,76.09,74,75.73,74.16Z"/><path class="cls-11" d="M79.57,72.85l-1.94.78a1.58,1.58,0,0,1-1.3-.09L74.7,72.47c-.32-.21-.23-.5.19-.65l2-.7a1.59,1.59,0,0,1,1.22.11l1.53,1C80,72.43,79.93,72.7,79.57,72.85Z"/><path class="cls-11" d="M83.15,71.48l-1.94.78a1.58,1.58,0,0,1-1.3-.09l-1.63-1.08c-.32-.21-.23-.5.19-.64l2-.71a1.6,1.6,0,0,1,1.22.12l1.53,1C83.56,71.06,83.51,71.33,83.15,71.48Z"/><path class="cls-11" d="M86.77,70.13l-1.94.79a1.58,1.58,0,0,1-1.3-.09L81.9,69.75c-.32-.21-.23-.5.19-.64l2-.71a1.58,1.58,0,0,1,1.23.12l1.52,1C87.18,69.71,87.14,70,86.77,70.13Z"/><path class="cls-11" d="M90.36,68.79l-1.94.78a1.54,1.54,0,0,1-1.3-.09l-1.63-1.07c-.32-.21-.23-.5.19-.64l2-.71a1.55,1.55,0,0,1,1.22.12l1.53,1C90.77,68.37,90.72,68.65,90.36,68.79Z"/><path class="cls-11" d="M94,67.45,92,68.23a1.6,1.6,0,0,1-1.31-.09l-1.63-1.07c-.31-.21-.23-.5.19-.65l2-.7a1.55,1.55,0,0,1,1.22.12l1.53,1C94.37,67,94.32,67.31,94,67.45Z"/><path class="cls-11" d="M97.64,66.21,95.7,67a1.58,1.58,0,0,1-1.3-.09l-1.63-1.07c-.32-.21-.23-.5.19-.65l2-.7a1.55,1.55,0,0,1,1.22.12l1.53,1C98.05,65.79,98,66.07,97.64,66.21Z"/><path class="cls-11" d="M101.06,64.77l-1.94.78a1.6,1.6,0,0,1-1.31-.09l-1.63-1.08c-.31-.21-.23-.49.19-.64l2-.7a1.59,1.59,0,0,1,1.22.11l1.53,1C101.47,64.35,101.42,64.62,101.06,64.77Z"/><path class="cls-11" d="M104.67,63.43l-1.94.78a1.58,1.58,0,0,1-1.3-.09L99.8,63c-.32-.21-.23-.5.19-.64l2-.71a1.59,1.59,0,0,1,1.22.12l1.53,1C105.08,63,105,63.28,104.67,63.43Z"/><path class="cls-11" d="M72.53,72.38l-1.94.78a1.6,1.6,0,0,1-1.31-.09L67.65,72c-.31-.2-.23-.49.19-.64l2-.7a1.59,1.59,0,0,1,1.22.11l1.53,1C72.94,72,72.89,72.23,72.53,72.38Z"/><path class="cls-11" d="M76.23,71.07l-1.94.78A1.6,1.6,0,0,1,73,71.76l-1.63-1.07c-.31-.21-.23-.5.19-.64l2-.71a1.55,1.55,0,0,1,1.22.12l1.53,1C76.64,70.65,76.59,70.93,76.23,71.07Z"/><path class="cls-11" d="M79.87,69.68l-1.94.78a1.58,1.58,0,0,1-1.3-.09L75,69.3c-.32-.21-.23-.5.19-.64l2-.71a1.58,1.58,0,0,1,1.23.12l1.52,1C80.28,69.26,80.24,69.54,79.87,69.68Z"/><path class="cls-11" d="M83.5,68.34l-1.94.78A1.6,1.6,0,0,1,80.25,69L78.62,68c-.31-.21-.23-.5.19-.65l2-.7a1.55,1.55,0,0,1,1.22.12l1.53,1C83.9,67.92,83.86,68.2,83.5,68.34Z"/><path class="cls-11" d="M87.08,67l-1.94.78a1.6,1.6,0,0,1-1.31-.09L82.2,66.62c-.32-.21-.23-.5.19-.65l2-.7a1.59,1.59,0,0,1,1.22.11l1.52,1C87.48,66.58,87.44,66.85,87.08,67Z"/><path class="cls-11" d="M90.76,65.66l-1.94.78a1.6,1.6,0,0,1-1.31-.09l-1.62-1.08c-.32-.21-.23-.49.19-.64l2-.7a1.55,1.55,0,0,1,1.22.11l1.53,1C91.17,65.24,91.12,65.51,90.76,65.66Z"/><path class="cls-11" d="M94.51,64.32l-1.94.78a1.58,1.58,0,0,1-1.3-.09l-1.63-1.08c-.32-.21-.23-.5.19-.64l2-.71a1.6,1.6,0,0,1,1.22.12l1.53,1C94.92,63.9,94.87,64.17,94.51,64.32Z"/><path class="cls-11" d="M98,63l-1.94.79a1.58,1.58,0,0,1-1.3-.09l-1.63-1.08c-.32-.21-.23-.5.19-.64l2-.71a1.58,1.58,0,0,1,1.23.12l1.52,1C98.44,62.55,98.4,62.83,98,63Z"/><path class="cls-11" d="M101.59,61.63l-1.94.78a1.57,1.57,0,0,1-1.31-.09l-1.63-1.07c-.31-.21-.23-.5.19-.64l2-.71a1.55,1.55,0,0,1,1.22.12l1.53,1C102,61.21,102,61.49,101.59,61.63Z"/><path class="cls-11" d="M69.51,70.43l-1.94.78a1.6,1.6,0,0,1-1.31-.09l-1.63-1.07c-.32-.21-.23-.5.19-.65l2-.7a1.58,1.58,0,0,1,1.23.12l1.52,1C69.91,70,69.87,70.29,69.51,70.43Z"/><path class="cls-11" d="M73.22,69.12l-1.94.78A1.6,1.6,0,0,1,70,69.82l-1.63-1.08c-.32-.21-.23-.5.19-.64l2-.71a1.58,1.58,0,0,1,1.23.12l1.52,1C73.62,68.7,73.58,69,73.22,69.12Z"/><path class="cls-11" d="M76.87,67.78l-2,.78a1.58,1.58,0,0,1-1.3-.09L72,67.4c-.32-.21-.23-.5.19-.64l2-.71a1.58,1.58,0,0,1,1.23.12l1.52,1C77.27,67.36,77.23,67.64,76.87,67.78Z"/><path class="cls-11" d="M80.44,66.44l-1.94.78a1.58,1.58,0,0,1-1.3-.09l-1.63-1.07c-.32-.21-.23-.5.19-.65l2-.7a1.55,1.55,0,0,1,1.22.12l1.53,1C80.85,66,80.8,66.3,80.44,66.44Z"/><path class="cls-11" d="M84.07,65.1l-1.94.78a1.6,1.6,0,0,1-1.31-.09l-1.63-1.07c-.32-.21-.23-.5.19-.65l2-.7a1.62,1.62,0,0,1,1.23.11l1.52,1C84.47,64.68,84.43,65,84.07,65.1Z"/><path class="cls-11" d="M87.79,63.76l-1.94.78a1.6,1.6,0,0,1-1.31-.09l-1.63-1.08c-.31-.21-.23-.49.19-.64l2.05-.7a1.55,1.55,0,0,1,1.22.11l1.53,1C88.19,63.34,88.15,63.61,87.79,63.76Z"/><path class="cls-11" d="M91.37,62.44l-2,.78a1.58,1.58,0,0,1-1.3-.09l-1.63-1.08c-.32-.21-.23-.49.19-.64l2-.7a1.58,1.58,0,0,1,1.23.11l1.52,1C91.77,62,91.73,62.29,91.37,62.44Z"/><path class="cls-11" d="M95,61.1,93,61.88a1.6,1.6,0,0,1-1.31-.09l-1.63-1.08c-.32-.21-.23-.5.19-.64l2-.71a1.62,1.62,0,0,1,1.23.12l1.52,1C95.36,60.68,95.32,61,95,61.1Z"/><path class="cls-11" d="M98.67,59.77l-1.94.78a1.6,1.6,0,0,1-1.31-.09l-1.63-1.07c-.31-.21-.23-.5.19-.64L96,58a1.55,1.55,0,0,1,1.22.12l1.53,1C99.08,59.35,99,59.63,98.67,59.77Z"/><path class="cls-11" d="M103.19,70.38l-14.5,5.37A2.16,2.16,0,0,1,87,75.67l-1.14-.73c-.38-.25-.24-.61.32-.81l14.71-5.21a1.89,1.89,0,0,1,1.45.11l1,.65C103.71,69.9,103.63,70.21,103.19,70.38Z"/><path class="cls-12" d="M89.69,10.18,55.79,22A1.4,1.4,0,0,0,55,23.38h0c0,.57.42.9.89.74l33.7-12a1.47,1.47,0,0,0,.77-1.23h0C90.37,10.37,90.08,10,89.69,10.18Z"/><polygon class="cls-13" points="73.21 29.47 55.94 35.86 55.67 26.95 72.86 20.69 73.21 29.47"/><polygon class="cls-14" points="91.35 22.71 74.08 29.1 73.81 20.19 91 13.93 91.35 22.71"/><path class="cls-12" d="M86.66,28.2,56.71,38.75a.72.72,0,0,0-.41.57h0c0,.25.12.38.33.31L86.55,28.9a.61.61,0,0,0,.28-.43h0C86.86,28.28,86.78,28.15,86.66,28.2Z"/><path class="cls-12" d="M86.91,30.19,57,40.74a.72.72,0,0,0-.41.58h0c0,.24.12.38.32.31L86.79,30.9a.6.6,0,0,0,.28-.43h0C87.1,30.27,87,30.15,86.91,30.19Z"/><path class="cls-12" d="M87,32.26,57,42.81a.73.73,0,0,0-.42.58h0c0,.24.13.38.33.31L86.86,33a.6.6,0,0,0,.28-.43h0C87.17,32.34,87.1,32.22,87,32.26Z"/><path class="cls-12" d="M87.21,34.08,57.26,44.63a.72.72,0,0,0-.41.58h0c0,.24.12.38.32.31L87.09,34.79a.57.57,0,0,0,.28-.43h0C87.4,34.16,87.33,34,87.21,34.08Z"/><path class="cls-12" d="M51.66,35.07a8.19,8.19,0,0,1-5,8.28,4.58,4.58,0,0,1-6.53-4,8.25,8.25,0,0,1,5.17-8.07A4.56,4.56,0,0,1,51.66,35.07Z"/><path class="cls-15" d="M119.26,62.45l8.08,7.93-7,6.3a3.51,3.51,0,0,1-2.6.9c-3.7-.28-13.26-1.25-17.53-4.2a7.6,7.6,0,0,0-1.88-.91l-9.07-3.06A1.06,1.06,0,0,1,88.62,68c.24-.5.81-.8,2.09-.06,2.38,1.39,2.16.46,2.16.46a20.54,20.54,0,0,0-4.47-3.89C86,63.05,92.33,59.36,95,62.86c0,0,4,3.9,4,5.6,0,0,11.64-2.16,18.14.56Z"/><path class="cls-16" d="M101,67.77s6.36-15.42,12.45-15.53c0,0,7.65.49,9.44-2.46,0,0,5.33-2.71,9.12-.67,4.16,2.24,4.37,13.59,3.82,13.77,0,0-10.81,27.09-24.06,25.19L110.2,77.39C110.59,78.72,99.06,75.8,101,67.77Z"/><path class="cls-17" d="M112.38,88.41A12.65,12.65,0,0,0,98,92.88s-10.45,2.18-12.3,11.26C85.66,104.14,103.54,105.73,112.38,88.41Z"/><path class="cls-18" d="M84.32,104.06c1-.15,12.57,3.57,34.08-23.85,0,0,10.93-19.68,26.73-18.78,0,0,25.19,28.76-3.28,53.36S84.32,104.06,84.32,104.06Z"/><path class="cls-19" d="M111.64,42.68l8.72-1.79s-.34,7.57,2.57,9.43c0,0-1.9,3.65-9.28,2.31C113.65,52.63,114.21,45.92,111.64,42.68Z"/><path class="cls-20" d="M102.34,33.65c-.29-2.66.39-6.72,1.58-7.12a.31.31,0,0,1,.35.09"/><path class="cls-21" d="M102.58,30.45l-2,4.23s-.55,1.45,1.78,1.9Z"/><path class="cls-22" d="M104.45,44.08s18.89,4.14,24.26-7.38-5.37-14.53-5.37-14.53-13.19-5.69-19.75,5.52a8.55,8.55,0,0,0-1.16,4l-.35,10.67a1.45,1.45,0,0,0,1.24,1.53Z"/><path class="cls-20" d="M101.8,31.79a19.18,19.18,0,0,1-.65,4.22c-.44,1.49-1.17,2.58-1.69,1.53-1.14-2.32-.34-9.38,1.33-9.95C101.6,27.32,101.9,29.69,101.8,31.79Z"/><line class="cls-20" x1="99.08" y1="31.85" x2="99.08" y2="31.85"/><line class="cls-20" x1="99.08" y1="31.85" x2="99.08" y2="31.85"/><path class="cls-20" d="M99.27,30.7l15.58,2.95s2,.36,0,2.45"/><path class="cls-23" d="M111,35.58c0,2-1.42,3.58.56,3.58a3.58,3.58,0,0,0,0-7.16C109.61,32,111,33.6,111,35.58Z"/><path class="cls-24" d="M106.74,22.44a2.32,2.32,0,0,0-.88,2.61c.66,2.05,2.61,5.8,8.19,7.08,6.23,1.42,2.19,8.58.28,11.45a1.37,1.37,0,0,0,.56,2c1.48.66,5.91-.8,6-.86.92-.53,5.89-3.5,7-5.94a.7.7,0,0,1,.13-.24c.47-.67,2.95-4.38,2.59-7.84-.4-3.83-2.2-8.83-12.7-9.88C111.4,20.18,108.22,21.4,106.74,22.44Z"/><path class="cls-25" d="M137.67,23.14a4.05,4.05,0,0,0-.74-3.88c0-.12.1-.24.14-.37a4,4,0,0,0-.22-3.11,2.74,2.74,0,0,0,.61-1A2.85,2.85,0,0,0,134,11.09a4,4,0,0,0-2.57-2.63,4.06,4.06,0,0,0-2.18-.1,4,4,0,0,0-5.81-1.74,2.84,2.84,0,0,0-4.91-.21,3.27,3.27,0,0,0-.51-.22,4.06,4.06,0,0,0-5.13,2.56,4.23,4.23,0,0,0-.21,1.16,2.84,2.84,0,0,0-1,1.12,2.54,2.54,0,0,0-.41-.18,2.86,2.86,0,0,0-3.43,4.05,2.89,2.89,0,0,0-1.12,1.46A2.86,2.86,0,0,0,108.54,20a2.23,2.23,0,0,0,.43.1,2.08,2.08,0,0,0-.39.7,2.15,2.15,0,0,0,3.06,2.59A2.86,2.86,0,0,0,116,24.44a2.8,2.8,0,0,0,.43.19l.23.06a2.86,2.86,0,0,0,3.38,2.55,2.85,2.85,0,0,0,4.69,1,3.21,3.21,0,0,0,.8.42,2.87,2.87,0,0,0,3.15-.95,2.69,2.69,0,0,0,.79.41,2.86,2.86,0,0,0,3.62-1.8,2.77,2.77,0,0,0,.11-.48A4,4,0,0,0,137.67,23.14Z"/><path class="cls-26" d="M100.89,68.26l9.31,9.13-8,7.27a4,4,0,0,1-3,1c-4.27-.32-15.28-1.44-20.2-4.83a8.67,8.67,0,0,0-2.16-1.06L66.34,76.28a1.23,1.23,0,0,1-.76-1.67c.28-.57.94-.93,2.41-.07,2.74,1.6,2.5.53,2.5.53a23.83,23.83,0,0,0-5.16-4.48c-2.78-1.64,4.53-5.88,7.58-1.86,0,0,4.59,4.5,4.64,6.46,0,0,13.42-2.49,20.91.64Z"/><polygon class="cls-2" points="6.37 76.37 4.79 87.25 2.37 85.85 3.92 74.65 6.37 76.37"/><polygon class="cls-1" points="4.79 87.25 7.75 86.17 9.09 77.73 6.37 76.37 4.79 87.25"/><polygon class="cls-2" points="43.09 97.38 41.5 108.25 39.08 106.85 40.64 95.65 43.09 97.38"/><polygon class="cls-1" points="41.5 108.25 44.46 107.17 45.8 98.73 43.09 97.38 41.5 108.25"/></g></g></svg>