<svg xmlns="http://www.w3.org/2000/svg" xmlns:xlink="http://www.w3.org/1999/xlink" viewBox="0 0 187.85 153.51"><defs><style>.cls-1,.cls-13,.cls-14,.cls-25,.cls-5,.cls-7,.cls-8,.cls-9{fill:none;}.cls-1{stroke:#2e2666;}.cls-1,.cls-10,.cls-25,.cls-5,.cls-8,.cls-9{stroke-linecap:round;}.cls-1,.cls-10,.cls-13,.cls-14,.cls-23,.cls-25,.cls-27,.cls-5,.cls-7,.cls-8,.cls-9{stroke-miterlimit:10;}.cls-1,.cls-14,.cls-8{stroke-width:0.5px;}.cls-2{fill:url(#linear-gradient);}.cls-3{fill:url(#linear-gradient-2);}.cls-4{fill:url(#linear-gradient-3);}.cls-13,.cls-14,.cls-25,.cls-5,.cls-7,.cls-8{stroke:#000;}.cls-5{stroke-width:4px;}.cls-6{fill:#694635;}.cls-23,.cls-7{stroke-width:3px;}.cls-10,.cls-9{stroke:#fff;}.cls-10{fill:#a37762;}.cls-11{fill:#a06c55;}.cls-12{fill:#6a4837;}.cls-13{stroke-width:0.25px;}.cls-15{fill:url(#linear-gradient-4);}.cls-16{fill:#1f0d05;}.cls-17{fill:url(#linear-gradient-5);}.cls-18{fill:url(#linear-gradient-6);}.cls-19{fill:url(#linear-gradient-7);}.cls-20{fill:url(#New_Gradient_Swatch);}.cls-21{fill:url(#linear-gradient-8);}.cls-22{fill:url(#linear-gradient-9);}.cls-23{fill:#fff;stroke:url(#New_Gradient_Swatch_copy_4);}.cls-24{fill:url(#linear-gradient-10);}.cls-26{fill:url(#linear-gradient-11);}.cls-27{opacity:0.35;fill:url(#New_Gradient_Swatch_copy_4-2);stroke:url(#New_Gradient_Swatch_copy_4-3);}.cls-28{fill:url(#linear-gradient-12);}.cls-29{fill:url(#linear-gradient-13);}.cls-30{fill:#eef;}.cls-31,.cls-32,.cls-33,.cls-34{opacity:0.51;}.cls-31{fill:url(#linear-gradient-14);}.cls-32{fill:url(#linear-gradient-15);}.cls-33{fill:url(#linear-gradient-16);}.cls-34{fill:url(#linear-gradient-17);}.cls-35{fill:url(#New_Gradient_Swatch_copy_4-4);}.cls-36{fill:url(#New_Gradient_Swatch_copy_4-5);}.cls-37{fill:url(#New_Gradient_Swatch_copy_4-6);}.cls-38{fill:#09183d;}</style><linearGradient id="linear-gradient" x1="-1477.35" y1="33.36" x2="-1468.56" y2="33.36" gradientTransform="matrix(-0.58, -0.81, -0.81, 0.58, -731.92, -1082.95)" gradientUnits="userSpaceOnUse"><stop offset="0.55" stop-color="#a37865"/><stop offset="1" stop-color="#5e4538"/></linearGradient><linearGradient id="linear-gradient-2" x1="-964.02" y1="128.63" x2="-955.23" y2="128.63" gradientTransform="translate(927.38 532.56) rotate(34.05)" xlink:href="#linear-gradient"/><linearGradient id="linear-gradient-3" x1="-1409.82" y1="227.62" x2="-1423.12" y2="132.44" gradientTransform="matrix(-0.93, -0.36, -0.36, 0.93, -1180.75, -548.79)" gradientUnits="userSpaceOnUse"><stop offset="0.21" stop-color="#c49179"/><stop offset="0.55" stop-color="#a37865"/><stop offset="0.67" stop-color="#a17664"/><stop offset="0.72" stop-color="#99715f"/><stop offset="0.76" stop-color="#8d6756"/><stop offset="0.8" stop-color="#7a5a4a"/><stop offset="0.83" stop-color="#63493b"/><stop offset="0.84" stop-color="#5e4538"/></linearGradient><linearGradient id="linear-gradient-4" x1="88.06" y1="-54.34" x2="107.78" y2="6.86" gradientTransform="translate(11.66 53.65) rotate(32.72)" gradientUnits="userSpaceOnUse"><stop offset="0.17" stop-color="#401e10"/><stop offset="0.56" stop-color="#1f0d05"/><stop offset="0.93" stop-color="#120703"/></linearGradient><linearGradient id="linear-gradient-5" x1="60.61" y1="164.38" x2="61.35" y2="62.26" gradientTransform="translate(4.92 -4.4) rotate(3)" gradientUnits="userSpaceOnUse"><stop offset="0.2" stop-color="#c49179"/><stop offset="0.55" stop-color="#a37865"/><stop offset="0.67" stop-color="#a17664"/><stop offset="0.72" stop-color="#99715f"/><stop offset="0.76" stop-color="#8d6756"/><stop offset="0.8" stop-color="#7a5a4a"/><stop offset="0.83" stop-color="#63493b"/><stop offset="0.84" stop-color="#5e4538"/></linearGradient><linearGradient id="linear-gradient-6" x1="107.06" y1="157.74" x2="107.48" y2="100.69" gradientTransform="translate(4.92 -4.4) rotate(3)" xlink:href="#linear-gradient-3"/><linearGradient id="linear-gradient-7" x1="91.53" y1="146.89" x2="91.57" y2="142.13" gradientTransform="translate(4.92 -4.4) rotate(3)" gradientUnits="userSpaceOnUse"><stop offset="1" stop-color="#e2b8a8"/><stop offset="1" stop-color="#a37865"/></linearGradient><linearGradient id="New_Gradient_Swatch" x1="49.65" y1="124.26" x2="62.39" y2="152.01" gradientTransform="translate(4.92 -4.4) rotate(3)" gradientUnits="userSpaceOnUse"><stop offset="0" stop-color="#9690c8"/><stop offset="0.62" stop-color="#5143b6"/><stop offset="1" stop-color="#2e2666"/></linearGradient><linearGradient id="linear-gradient-8" x1="114.46" y1="115.92" x2="96.9" y2="152.96" gradientTransform="translate(4.92 -4.4) rotate(3)" gradientUnits="userSpaceOnUse"><stop offset="0" stop-color="#9690c8"/><stop offset="0.19" stop-color="#938dc7"/><stop offset="0.34" stop-color="#8a83c5"/><stop offset="0.48" stop-color="#7b72c1"/><stop offset="0.61" stop-color="#665bbc"/><stop offset="0.71" stop-color="#5143b6"/><stop offset="1" stop-color="#2e2666"/></linearGradient><linearGradient id="linear-gradient-9" x1="70.43" y1="133.15" x2="156.69" y2="277.62" gradientUnits="userSpaceOnUse"><stop offset="0.06" stop-color="#d1feff"/><stop offset="0.33" stop-color="#97e0fe"/><stop offset="0.83" stop-color="#6fb1cc"/></linearGradient><linearGradient id="New_Gradient_Swatch_copy_4" x1="140.27" y1="68.86" x2="181.68" y2="68.86" gradientUnits="userSpaceOnUse"><stop offset="0.13" stop-color="#c1c8ea"/><stop offset="0.27" stop-color="#b6c1ea"/><stop offset="0.53" stop-color="#9aaeea"/><stop offset="0.86" stop-color="#6c8fe9"/><stop offset="1" stop-color="#5680e9"/></linearGradient><linearGradient id="linear-gradient-10" x1="189.41" y1="85.36" x2="174.07" y2="66.41" gradientUnits="userSpaceOnUse"><stop offset="0.02" stop-color="#c1c8ea"/><stop offset="0.16" stop-color="#b6c1ea"/><stop offset="0.39" stop-color="#9aaeea"/><stop offset="0.7" stop-color="#6c8fe9"/><stop offset="0.83" stop-color="#5680e9"/></linearGradient><linearGradient id="linear-gradient-11" x1="132.73" y1="59.35" x2="162.37" y2="54.82" gradientUnits="userSpaceOnUse"><stop offset="0.02" stop-color="#434fea"/><stop offset="0.11" stop-color="#3f4cdf"/><stop offset="0.26" stop-color="#3643c3"/><stop offset="0.46" stop-color="#263494"/><stop offset="0.7" stop-color="#111f55"/><stop offset="0.78" stop-color="#09183d"/></linearGradient><linearGradient id="New_Gradient_Swatch_copy_4-2" x1="35.42" y1="30.12" x2="125.72" y2="16.3" xlink:href="#New_Gradient_Swatch_copy_4"/><linearGradient id="New_Gradient_Swatch_copy_4-3" x1="76.36" y1="21.33" x2="107.82" y2="21.33" xlink:href="#New_Gradient_Swatch_copy_4"/><linearGradient id="linear-gradient-12" x1="87.68" y1="32.81" x2="118.74" y2="50.14" gradientUnits="userSpaceOnUse"><stop offset="0" stop-color="#9690c8"/><stop offset="0.43" stop-color="#5143b6"/><stop offset="0.88" stop-color="#2e2666"/></linearGradient><linearGradient id="linear-gradient-13" x1="34.28" y1="33.13" x2="78.21" y2="33.13" gradientUnits="userSpaceOnUse"><stop offset="0" stop-color="#c156da" stop-opacity="0"/><stop offset="0.01" stop-color="#c15bdb" stop-opacity="0.05"/><stop offset="0.08" stop-color="#c06fe1" stop-opacity="0.24"/><stop offset="0.15" stop-color="#c081e5" stop-opacity="0.42"/><stop offset="0.23" stop-color="#bf91ea" stop-opacity="0.58"/><stop offset="0.31" stop-color="#bf9eed" stop-opacity="0.71"/><stop offset="0.4" stop-color="#bfa8f0" stop-opacity="0.82"/><stop offset="0.49" stop-color="#beb1f2" stop-opacity="0.9"/><stop offset="0.6" stop-color="#beb7f4" stop-opacity="0.96"/><stop offset="0.73" stop-color="#bebaf5" stop-opacity="0.99"/><stop offset="0.96" stop-color="#bebbf5"/></linearGradient><linearGradient id="linear-gradient-14" x1="0.61" y1="66.27" x2="69.93" y2="66.27" xlink:href="#linear-gradient-13"/><linearGradient id="linear-gradient-15" x1="113.97" y1="113.31" x2="183.29" y2="113.31" xlink:href="#linear-gradient-13"/><linearGradient id="linear-gradient-16" x1="10.5" y1="107.02" x2="45.17" y2="107.02" xlink:href="#linear-gradient-13"/><linearGradient id="linear-gradient-17" x1="-12.79" y1="78.02" x2="21.87" y2="78.02" xlink:href="#linear-gradient-13"/><linearGradient id="New_Gradient_Swatch_copy_4-4" x1="23.29" y1="50.8" x2="57.95" y2="50.8" xlink:href="#New_Gradient_Swatch_copy_4"/><linearGradient id="New_Gradient_Swatch_copy_4-5" x1="6.67" y1="82.33" x2="41.33" y2="82.33" xlink:href="#New_Gradient_Swatch_copy_4"/><linearGradient id="New_Gradient_Swatch_copy_4-6" x1="129.39" y1="93.21" x2="164.05" y2="93.21" gradientTransform="translate(-20.68 46.09) rotate(-16.77)" xlink:href="#New_Gradient_Swatch_copy_4"/></defs><g id="Layer_2" data-name="Layer 2"><g id="Layer_5" data-name="Layer 5"><path class="cls-1" d="M88.72,32.26l.45-15.07s.68-3.7-1.58-4.53-.9,2.52,0,3.25S89,17.1,92.82,17a3.5,3.5,0,0,0,2.33-1,4.05,4.05,0,0,0,1.25-1.87s.26-1.8-1.31-1.12a2.33,2.33,0,0,0-1.29,1.47,2.74,2.74,0,0,0,.28,2.45c.68,1,2.2,1,3.25.87A3.47,3.47,0,0,0,99.26,17c.72-.62,1.61-1.6,1.38-2.46-.39-1.4-1.39-2-2.9-.53s-1.49,7.76-1.49,7.7-.63,10.1.26,11.18"/><path class="cls-2" d="M95.71,130.15c-3.17,2.27-8,.94-5.74,4.11A7.06,7.06,0,1,0,101.45,126C99.18,122.88,98.88,127.88,95.71,130.15Z"/><path class="cls-3" d="M64.27,104.46c-2.19,3.23-.73,8-4,5.85a7.06,7.06,0,0,1,7.91-11.7C71.45,100.8,66.45,101.23,64.27,104.46Z"/><path class="cls-4" d="M64.62,99.07l3.72-5A15.64,15.64,0,0,1,90.2,90.67l19.94,14.65a6.67,6.67,0,0,1,1.42,9.32s-9.54,12.74-9.86,12.81l-5.1,5a33.24,33.24,0,0,1-3,2.64c-2.5,1.92-7,5.33-7.63,5.25-.82-.09-11.36,5.2-20.23-1.29a11.29,11.29,0,0,0-1.31-.85c-1.59-.86-6-4.08-6.8-13.55a8.3,8.3,0,0,1,.09-2.11l1.19-7.18a18.11,18.11,0,0,1,1-3.62S64.45,99.3,64.62,99.07Z"/><path d="M87.88,119.24c-2.28,1.6,2.07,1.3,3.67,3.58s-.16,6.27,2.12,4.67a5,5,0,0,0-5.79-8.25Z"/><path d="M67.28,106.25c-1.21,2.51,2.44.14,5,1.35s2.91,5.55,4.12,3.05a5,5,0,1,0-9.07-4.4Z"/><path class="cls-5" d="M83.12,96.79C75.15,94.56,72.31,95,72.31,95"/><path class="cls-5" d="M98.63,107c6.1,5.91,6.69,7.77,6.69,7.77"/><path class="cls-6" d="M81.93,123S80,126.92,77,124.56c0,0-3.1-1.52-2.35-3.86,0,0-4,2.53,1.55,5.3S81.93,123,81.93,123Z"/><path class="cls-6" d="M95.34,132.51a13.1,13.1,0,0,1-14.17-8.75s-3,8.11,2.9,11.75S93.79,136,95.34,132.51Z"/><path class="cls-6" d="M75,116.46a13.12,13.12,0,0,1-14.17-8.75s-3,8.11,2.9,11.74S73.4,119.94,75,116.46Z"/><circle class="cls-7" cx="92.13" cy="122.9" r="9.79" transform="translate(-60.53 139.87) rotate(-59.49)"/><circle class="cls-7" cx="72.18" cy="107.82" r="9.79" transform="translate(-57.36 115.26) rotate(-59.49)"/><path class="cls-7" d="M80.62,112.79A4.9,4.9,0,0,1,85,116.22"/><path class="cls-8" d="M76,118.16l-.3.39c-1.84,2.59-1.18,4.65.83,5.74,2.79,1.52,3.58,1.3,5.42-1.29a3.62,3.62,0,0,0,.27-.41"/><line class="cls-9" x1="90.9" y1="128.11" x2="97.52" y2="126.63"/><line class="cls-10" x1="70.14" y1="114.24" x2="76.35" y2="112.37"/><path class="cls-11" d="M68,126.79c-1.72.32.24,4.43,2.09,6.11S75,135.25,76.18,134s0-4.05-1.87-5.73A7.34,7.34,0,0,0,68,126.79Z"/><path class="cls-12" d="M66.79,127.54c-1.17,1.29.24,4.43,2.1,6.11S73.83,136,75,134.71s0-4-1.87-5.72S68,126.25,66.79,127.54Z"/><path class="cls-13" d="M76,134s1.82-7.15-7.28-7.18c-.48,0-.21,0-.69,0a18.22,18.22,0,0,1,4.1,2.91A21.15,21.15,0,0,1,76,134Z"/><path class="cls-14" d="M76.58,134.57,76,134s-2,2-5.77.44a5.37,5.37,0,0,1-2.7-7.74l.08-.1"/><ellipse cx="66.83" cy="126.08" rx="0.67" ry="1.16" transform="translate(-73.67 101.16) rotate(-52.02)"/><path d="M75,134.08c-.13.55.48,1.17,1.36,1.39s1.71-.06,1.84-.61-.47-1.16-1.36-1.38S75.14,133.54,75,134.08Z"/><path class="cls-15" d="M82.11,72.93a6.13,6.13,0,0,1,2.07-3.13,6.32,6.32,0,0,1,.22-2,5.83,5.83,0,0,1,4.25-4.2.64.64,0,0,0,0-.07,5.73,5.73,0,0,1,4.7-4.27,5.23,5.23,0,0,1,5.87-2.75,4.69,4.69,0,0,1,2.46,1.71,4.5,4.5,0,0,1,5,2,4.45,4.45,0,0,1,2.11.08,5.06,5.06,0,0,1,3.52,4.46,4.81,4.81,0,0,1,4.28-.92A5.17,5.17,0,0,1,120.12,69a4.64,4.64,0,0,1,2.88-.13,4.85,4.85,0,0,1,3.22,3.19,4.6,4.6,0,0,1,2.65-.07,5.11,5.11,0,0,1,3.54,4.59c2.69.78,4.18,3.86,3.31,6.91a6.15,6.15,0,0,1-.92,1.93,6.26,6.26,0,0,1-.06,3.21,6.13,6.13,0,0,1-2,3.09,7.58,7.58,0,0,1-.19,1,6.54,6.54,0,0,1-.83,1.77,6.18,6.18,0,0,1-.05,3.3,5.92,5.92,0,0,1-3.6,4,5.92,5.92,0,0,1-3.46,3.81,2.38,2.38,0,0,1,0,.26c-.86,3.06-3.76,4.92-6.46,4.15a4.71,4.71,0,0,1-2.79-2.23,5,5,0,0,1-4.76,1.29,5.36,5.36,0,0,1-3.43-6.38,5.59,5.59,0,0,1-.4-1.15A5.36,5.36,0,0,1,105,98.53a4.45,4.45,0,0,1-4-3.51A4.6,4.6,0,0,1,97,91.91a4.62,4.62,0,0,1-1.28-.15,5.18,5.18,0,0,1-3.56-4.94,4.58,4.58,0,0,1-2.79.11,5,5,0,0,1-3.46-4.09,5.31,5.31,0,0,1-2.5-4.29A5.87,5.87,0,0,1,82.11,72.93Z"/><path class="cls-16" d="M66.05,97.61a2.49,2.49,0,0,1,0-1.86,2.46,2.46,0,0,1,1.58-1.46,2.49,2.49,0,0,1-.2-2.15,2.54,2.54,0,0,1,3.28-1.46c.57.21.58-2.46.86-2,.53-.17,3.37,1.16,3.2,1.19s0,.1,0,.16a1.78,1.78,0,0,1-3.32-1.27,1.74,1.74,0,0,1,.46-.66,2.45,2.45,0,0,1,3-3.09,3.16,3.16,0,0,1,.2-1,3.43,3.43,0,0,1,4.44-2,2.58,2.58,0,0,1,.37.19,3.43,3.43,0,0,1,3.9-1.08,3.48,3.48,0,0,1,1.56,1.2,3.41,3.41,0,0,1,5.15,1.16,3.39,3.39,0,0,1,2.47,0,3.44,3.44,0,0,1,2.14,3.88,3.51,3.51,0,0,1,2,.13,3.43,3.43,0,0,1,2.2,3.29l.21,0a3.45,3.45,0,0,1,2.13,2.48,2.21,2.21,0,0,1,1.73.82,2.52,2.52,0,0,1,2.1-.13,2.57,2.57,0,0,1,1.65,2.5,2.64,2.64,0,0,1,.58.89,3.42,3.42,0,0,1,2.91,1.32,3.7,3.7,0,0,1,.21.33,2.57,2.57,0,0,1,.8,2.1,3.48,3.48,0,0,1,1.82,1.2,3.44,3.44,0,0,1,.49,3.33,3.49,3.49,0,0,1,1.6,1.13,3.42,3.42,0,0,1,.11,4c.1.1.21.2.3.31a3.46,3.46,0,0,1-.6,4.83,3.42,3.42,0,0,1-2.11.71,2.54,2.54,0,0,1-.76,1.06,2.51,2.51,0,0,1-1.45.49,1.71,1.71,0,0,1,.46.39,1.77,1.77,0,0,1-.31,2.5,1.8,1.8,0,0,1-1.29.36s.06,0,.09.08a2.54,2.54,0,0,1-.44,3.56,2.48,2.48,0,0,1-2.34.36,2.38,2.38,0,0,1-2.26,2.83,1.75,1.75,0,0,1-.64,1.6,1.78,1.78,0,0,1-2.19-2.81,2.22,2.22,0,0,1,.41-.2,2.44,2.44,0,0,1,3-3.41v0a2.39,2.39,0,0,1-1.33-.83,2.52,2.52,0,0,1,.41-3.51,3.25,3.25,0,0,1-.69-.65,3.44,3.44,0,0,1,.6-4.83l.18-.11a3.43,3.43,0,0,1,1.09-3.75,3.47,3.47,0,0,1-1.92-1.22,3.41,3.41,0,0,1-.5-3.3,3.44,3.44,0,0,1-4.29-.94,3.32,3.32,0,0,1-.67-1.6,3.4,3.4,0,0,1-.68-3.09,3.38,3.38,0,0,1-2.54,0A3.46,3.46,0,0,1,93,96.41a3.36,3.36,0,0,1-2-.14,3.44,3.44,0,0,1-2.15-3.82,3.45,3.45,0,0,1-3.31.48,3.39,3.39,0,0,1-1.72-1.48,3.43,3.43,0,0,1-3.27,2.14,1.66,1.66,0,0,1-.06.21,3.43,3.43,0,0,1-4.44,2,3.3,3.3,0,0,1-1-.63,2.51,2.51,0,0,1-3.2,1.37,2.43,2.43,0,0,1-1.24-1.1h0a2.47,2.47,0,0,1-2.21,3.71,1.75,1.75,0,0,1-.1.78,1.78,1.78,0,0,1-3.32-1.27A1.75,1.75,0,0,1,66.05,97.61Z"/><path class="cls-17" d="M35.2,125.61l.07,0c1.95-.69,5,.57,5,.57l25,9.88c3.7-2.24,14.57.2,14.57.2s7.44,1.84,10.76,1.94.65,3,.65,3-3.69-1.2-11.16,0a50.89,50.89,0,0,1-14.08.21c-12.86,3.93-38.79,1.17-41.26-5.48-1.49-4,2-7.83,4.95-10.21a13.46,13.46,0,0,1,6.92-2.86l3.9-.42-.15,4-5.21-.89"/><path class="cls-18" d="M75.27,144.56s1-3.86,16.07-3.35c0,0,24-17,32.58-15l-4.34.61.42-3.92s10.74,0,13,3.76c0,0,2.49,3.68.61,9.55s-27.8,8.61-27.8,8.61S78.08,147,75.27,144.56Z"/><path class="cls-19" d="M75.25,144.93a125.12,125.12,0,0,1,27,.12C102.13,145.34,77.87,146.39,75.25,144.93Z"/><path class="cls-20" d="M39.71,126.35a3.9,3.9,0,0,1,.21-4.14,39.92,39.92,0,0,1,7.31-1.33c3.9-.44,8.3-.43,10.29,1.35,0,0,1.82,9.12,5.35,12.51C62.87,134.74,44.69,129.56,39.71,126.35Z"/><path class="cls-21" d="M90.05,138.14s7.82-4,11.67-10.37a37.14,37.14,0,0,1,18.6-4.9s1,2.29-.18,3.37-22.9,10-28.31,14.63C91.83,140.87,94.09,138,90.05,138.14Z"/><rect class="cls-22" x="11.55" y="140.76" width="134.47" height="12.74" rx="6.37"/><path class="cls-23" d="M174.42,83.2l-30.48-5.45a3.07,3.07,0,0,1-2.14-3.56l1.9-15a3.34,3.34,0,0,1,2.83-3l29.21-1.77c2.49-.15,4.52,1.5,4.44,3.71l-.73,21.39C179.37,82,177.07,83.68,174.42,83.2Z"/><polygon class="cls-24" points="180.66 64.13 187.85 79.56 179.3 83.28 180.66 64.13"/><path class="cls-25" d="M159.58,70.84s8.59,5.28,12.17-6c0,0,2.21-5.27,3.57,1.88"/><path class="cls-26" d="M158.3,67l.34,3.24a.39.39,0,0,1-.63.35l-2.83-2.23L144.79,44.45a1.7,1.7,0,0,1,.88-2.23h0a1.69,1.69,0,0,1,2.24.88Z"/><path class="cls-27" d="M107.32,15.23A15.23,15.23,0,1,0,80.78,25.42a25.53,25.53,0,0,1,6.13,11.13,22,22,0,0,1,.73,5.52,23.71,23.71,0,0,0,13.53-.94,57.06,57.06,0,0,1-.63-7.13,13.22,13.22,0,0,1,3.11-8.87A15.1,15.1,0,0,0,107.32,15.23Z"/><path class="cls-28" d="M85.46,32.57s10,1.86,15.67-1.59l.35,10.15s-4,2.59-13.92.94C87.56,42.07,87.5,34.62,85.46,32.57Z"/><path class="cls-1" d="M87.25,36.38a22.69,22.69,0,0,0,7.41.81,19.27,19.27,0,0,0,6.43-1.34"/><path class="cls-1" d="M85.84,32.84a22.69,22.69,0,0,0,7.41.81c3-.17,6.26,0,7.84-.65"/><path class="cls-1" d="M87.59,39.83a20.13,20.13,0,0,0,7.07.85,18.77,18.77,0,0,0,6.43-1.28"/><path class="cls-29" d="M54.79,53.62S52.84,41.7,57.56,31s1.69-17,1.69-17-7.18-8.76-8.46,7.37c0,0-1.28,30.41,1.44,33.31C52.23,54.64,54.66,55,54.79,53.62Z"/><path class="cls-30" d="M54.25,53.45s7.85-1.28,13.47,7.4,12,3.24,12,3.24-4.25,5.3-10,4.77-16-5.71-17.53-14.22Z"/><circle class="cls-31" cx="33.86" cy="66.27" r="7.67"/><circle class="cls-32" cx="147.22" cy="113.31" r="7.67"/><circle class="cls-33" cx="27.13" cy="107.02" r="3.83"/><circle class="cls-34" cx="3.83" cy="78.02" r="3.83"/><circle class="cls-35" cx="39.92" cy="50.8" r="3.83"/><circle class="cls-36" cx="23.3" cy="82.33" r="3.83"/><circle class="cls-37" cx="146.02" cy="93.21" r="3.83"/><polygon class="cls-38" points="19.98 43.8 21.35 49.59 22.88 44.48 28.24 44.13 23.82 41.33 26.37 37.21 22.03 38.69 18.11 35.71 19.13 40.4 15.06 44.13 19.98 43.8"/><polygon class="cls-38" points="163.57 101.69 164.93 107.48 166.47 102.37 171.83 102.02 167.41 99.22 169.96 95.1 165.62 96.58 161.7 93.61 162.72 98.29 158.65 102.02 163.57 101.69"/></g></g></svg>