<svg xmlns="http://www.w3.org/2000/svg" xmlns:xlink="http://www.w3.org/1999/xlink" viewBox="0 0 605.04 558.2"><defs><style>.cls-1,.cls-30{fill:#fff;}.cls-1,.cls-32,.cls-33,.cls-34,.cls-36{stroke:#1f0d05;}.cls-1,.cls-18,.cls-20,.cls-21,.cls-22,.cls-23,.cls-26,.cls-27,.cls-3,.cls-32,.cls-33,.cls-34,.cls-36,.cls-4,.cls-46,.cls-47,.cls-5,.cls-6,.cls-7,.cls-8{stroke-miterlimit:10;}.cls-1,.cls-22,.cls-23,.cls-34{stroke-width:0.75px;}.cls-2{fill:#9bc2ea;opacity:0.49;}.cls-18,.cls-20,.cls-21,.cls-22,.cls-26,.cls-27,.cls-3,.cls-34,.cls-4,.cls-46,.cls-47,.cls-5,.cls-6,.cls-7,.cls-8{fill:none;}.cls-3,.cls-4,.cls-46,.cls-47,.cls-5,.cls-6,.cls-7,.cls-8{stroke:#9bc2ea;stroke-width:3px;}.cls-18,.cls-21,.cls-22,.cls-23,.cls-3,.cls-4,.cls-46,.cls-47,.cls-5,.cls-6,.cls-7,.cls-8{stroke-linecap:round;}.cls-4{stroke-dasharray:5.83 5.83;}.cls-5{stroke-dasharray:6.2 6.2;}.cls-6{stroke-dasharray:5.85 5.85;}.cls-7{stroke-dasharray:5.79 5.79;}.cls-8{stroke-dasharray:6.03 6.03;}.cls-9{fill:url(#New_Gradient_Swatch_copy_6);}.cls-10{fill:#a7c1ea;}.cls-11{fill:url(#linear-gradient);}.cls-12{fill:url(#linear-gradient-2);}.cls-13{fill:url(#linear-gradient-3);}.cls-14{fill:url(#linear-gradient-4);}.cls-15{fill:url(#linear-gradient-5);}.cls-16{fill:url(#linear-gradient-6);}.cls-17{fill:url(#linear-gradient-7);}.cls-18,.cls-20,.cls-21,.cls-26,.cls-27{stroke:#000;}.cls-18{stroke-width:5px;}.cls-19{fill:#694635;}.cls-21,.cls-27{stroke-width:0.5px;}.cls-22,.cls-23{stroke:#fff;}.cls-23{fill:#a37762;}.cls-24{fill:#a06c55;}.cls-25{fill:#6a4837;}.cls-26,.cls-32,.cls-33,.cls-36{stroke-width:0.25px;}.cls-28{fill:url(#linear-gradient-8);}.cls-29{fill:#1f0d05;}.cls-31{clip-path:url(#clip-path);}.cls-32{fill:url(#radial-gradient);}.cls-35{clip-path:url(#clip-path-2);}.cls-36{fill:url(#radial-gradient-2);}.cls-37{fill:#726dce;}.cls-38{fill:url(#linear-gradient-9);}.cls-39{fill:url(#linear-gradient-10);}.cls-40{fill:#42210b;}.cls-41{fill:url(#linear-gradient-11);}.cls-42{fill:url(#linear-gradient-12);}.cls-43{fill:url(#linear-gradient-13);}.cls-44{fill:url(#linear-gradient-14);}.cls-45{fill:#09183d;}.cls-46{stroke-dasharray:5.94 5.94;}.cls-47{stroke-dasharray:6;}.cls-48,.cls-60{font-size:12px;fill:#292828;font-family:Lato-Regular, Lato;}.cls-49{letter-spacing:0em;}.cls-50{letter-spacing:-0.02em;}.cls-51{letter-spacing:-0.01em;}.cls-52{letter-spacing:-0.01em;}.cls-53{letter-spacing:-0.02em;}.cls-54{letter-spacing:-0.01em;}.cls-55{letter-spacing:0em;}.cls-56{letter-spacing:0em;}.cls-57{letter-spacing:-0.04em;}.cls-58{letter-spacing:0em;}.cls-59{letter-spacing:-0.01em;}.cls-60{letter-spacing:-0.01em;}.cls-61{letter-spacing:-0.01em;}.cls-62{letter-spacing:-0.02em;}.cls-63{letter-spacing:-0.03em;}.cls-64{letter-spacing:-0.01em;}.cls-65{letter-spacing:0em;}.cls-66{letter-spacing:0em;}.cls-67{letter-spacing:-0.01em;}.cls-68{letter-spacing:-0.01em;}.cls-69{letter-spacing:-0.03em;}.cls-70{letter-spacing:-0.02em;}</style><linearGradient id="New_Gradient_Swatch_copy_6" x1="193.69" y1="249.56" x2="517.61" y2="428.87" gradientUnits="userSpaceOnUse"><stop offset="0.13" stop-color="#c1c8ea"/><stop offset="0.28" stop-color="#b6c6ea"/><stop offset="0.56" stop-color="#9ac2ea"/><stop offset="0.91" stop-color="#6cbcea"/><stop offset="1" stop-color="#5fbaea"/></linearGradient><linearGradient id="linear-gradient" x1="300.86" y1="525" x2="297.08" y2="500.09" gradientUnits="userSpaceOnUse"><stop offset="0" stop-color="#c49179"/><stop offset="0.55" stop-color="#a37865"/><stop offset="1" stop-color="#5e4538"/></linearGradient><linearGradient id="linear-gradient-2" x1="6149.05" y1="526.8" x2="6145.27" y2="501.9" gradientTransform="matrix(-1, 0, 0, 1, 6489.92, 0)" xlink:href="#linear-gradient"/><linearGradient id="linear-gradient-3" x1="242.18" y1="331.6" x2="396.99" y2="481.77" gradientUnits="userSpaceOnUse"><stop offset="0" stop-color="#97e0fe"/><stop offset="0.25" stop-color="#94ddfa"/><stop offset="0.48" stop-color="#8bd2ef"/><stop offset="0.71" stop-color="#7cc0dc"/><stop offset="0.85" stop-color="#6fb1cc"/></linearGradient><linearGradient id="linear-gradient-4" x1="4424.4" y1="-596.49" x2="4418.68" y2="-637.45" gradientTransform="matrix(-0.96, 0.29, 0.29, 0.96, 4716.45, -464.81)" xlink:href="#linear-gradient"/><linearGradient id="linear-gradient-5" x1="3132.72" y1="761.79" x2="3142.9" y2="761.79" gradientTransform="matrix(-0.95, -0.32, -0.32, 0.95, 3547, 457.6)" gradientUnits="userSpaceOnUse"><stop offset="0.55" stop-color="#a37865"/><stop offset="1" stop-color="#5e4538"/></linearGradient><linearGradient id="linear-gradient-6" x1="-832.86" y1="57.06" x2="-822.67" y2="57.06" gradientTransform="translate(1099.17 91.13) rotate(-1.65)" xlink:href="#linear-gradient-5"/><linearGradient id="linear-gradient-7" x1="4446.74" y1="-495.97" x2="4431.02" y2="-608.46" gradientTransform="matrix(-0.97, 0.26, 0.26, 0.97, 4736.84, -421.89)" gradientUnits="userSpaceOnUse"><stop offset="0.21" stop-color="#c49179"/><stop offset="0.55" stop-color="#a37865"/><stop offset="0.73" stop-color="#a17664"/><stop offset="0.82" stop-color="#99715f"/><stop offset="0.89" stop-color="#8d6756"/><stop offset="0.94" stop-color="#7a5a4a"/><stop offset="0.99" stop-color="#63493b"/><stop offset="1" stop-color="#5e4538"/></linearGradient><linearGradient id="linear-gradient-8" x1="-55.67" y1="-561.93" x2="-32.81" y2="-491.03" gradientTransform="matrix(0.99, -0.14, 0.18, 1.03, 444.31, 657.17)" gradientUnits="userSpaceOnUse"><stop offset="0.17" stop-color="#401e10"/><stop offset="0.56" stop-color="#1f0d05"/><stop offset="0.93" stop-color="#120703"/></linearGradient><clipPath id="clip-path"><path class="cls-1" d="M282.34,168.52c0,3.22,2.4.58,5.33.58s5.25,2.65,5.25-.58a5.32,5.32,0,1,0-10.58,0Z"/></clipPath><radialGradient id="radial-gradient" cx="287.63" cy="166.67" r="4.12" gradientUnits="userSpaceOnUse"><stop offset="0.04" stop-color="#684810"/><stop offset="0.29" stop-color="#401e10"/><stop offset="0.63" stop-color="#1f0d05"/><stop offset="0.93" stop-color="#120703"/></radialGradient><clipPath id="clip-path-2"><path class="cls-1" d="M311.77,168.52c0,3.22,2.4.58,5.32.58s5.26,2.65,5.26-.58a5.32,5.32,0,1,0-10.58,0Z"/></clipPath><radialGradient id="radial-gradient-2" cx="317.06" cy="166.67" r="4.12" xlink:href="#radial-gradient"/><linearGradient id="linear-gradient-9" x1="231.22" y1="276.17" x2="289.05" y2="276.17" xlink:href="#linear-gradient"/><linearGradient id="linear-gradient-10" x1="255.38" y1="317.23" x2="264.29" y2="317.23" xlink:href="#linear-gradient"/><linearGradient id="linear-gradient-11" x1="271.09" y1="321.05" x2="280.9" y2="313.7" gradientUnits="userSpaceOnUse"><stop offset="0" stop-color="#c49179"/><stop offset="0" stop-color="#a37865"/><stop offset="0.34" stop-color="#5e4538"/></linearGradient><linearGradient id="linear-gradient-12" x1="5962.83" y1="268.95" x2="6020.66" y2="268.95" gradientTransform="matrix(-1, 0, 0, 1, 6347.92, 0)" xlink:href="#linear-gradient"/><linearGradient id="linear-gradient-13" x1="5986.99" y1="310.01" x2="5995.9" y2="310.01" gradientTransform="matrix(-1, 0, 0, 1, 6347.92, 0)" xlink:href="#linear-gradient"/><linearGradient id="linear-gradient-14" x1="6002.69" y1="313.83" x2="6012.51" y2="306.48" gradientTransform="matrix(-1, 0, 0, 1, 6347.92, 0)" xlink:href="#linear-gradient-11"/></defs><g id="Layer_2" data-name="Layer 2"><g id="Layer_1-2" data-name="Layer 1"><ellipse class="cls-2" cx="322.35" cy="539.44" rx="95.3" ry="18.77"/><line class="cls-3" x1="358.06" y1="194.06" x2="360.05" y2="191.82"/><line class="cls-4" x1="363.94" y1="187.47" x2="447.38" y2="93.83"/><line class="cls-3" x1="449.32" y1="91.66" x2="451.32" y2="89.42"/><path class="cls-3" d="M207,248.47a9,9,0,0,1-2.91-.67"/><path class="cls-5" d="M198.26,245.73c-14.42-5.36-42.63-17.11-54.63-22.15"/><path class="cls-3" d="M140.77,222.38,138,221.22"/><line class="cls-3" x1="249.86" y1="175.21" x2="248" y2="172.86"/><line class="cls-6" x1="244.37" y1="168.28" x2="188.04" y2="97.29"/><line class="cls-3" x1="186.23" y1="95" x2="184.36" y2="92.65"/><line class="cls-3" x1="266.18" y1="350.14" x2="263.22" y2="350.66"/><line class="cls-7" x1="257.52" y1="351.66" x2="123.39" y2="375.22"/><line class="cls-3" x1="120.54" y1="375.72" x2="117.58" y2="376.24"/><line class="cls-3" x1="272.63" y1="382.42" x2="270.48" y2="384.52"/><line class="cls-8" x1="266.18" y1="388.73" x2="207.99" y2="445.62"/><line class="cls-3" x1="205.84" y1="447.72" x2="203.69" y2="449.82"/><line class="cls-3" x1="353.85" y1="382.42" x2="356" y2="384.52"/><line class="cls-8" x1="360.31" y1="388.73" x2="418.49" y2="445.62"/><line class="cls-3" x1="420.65" y1="447.72" x2="422.79" y2="449.82"/><circle class="cls-9" cx="311.2" cy="314.61" r="153.51"/><path class="cls-10" d="M306.36,521.05s-8.44,5.27-16.24-7.9l-1.8-6.73s-8.81-10.27-8.7-.28,1.63,10.37,1.63,10.37-11.16,7.42-16.93,7.07c-2.14-1.48-17.51,9,3.23,15.86l11.83-.38a5.85,5.85,0,0,0,3.4-1.22l1.23-1a4.2,4.2,0,0,1,2.14-.86l16.23-1.68a3.76,3.76,0,0,0,2.43-1.23C306.57,531.12,309.53,526.59,306.36,521.05Z"/><path class="cls-11" d="M307.22,507.34c.1,1.81-3.62,8.48-2.05,13.12,0,0-15.18,2.3-15.54-10.73l2.61-8.7Z"/><path class="cls-12" d="M334.51,509.15c-.1,1.8,3.62,8.47,2.05,13.11,0,0,15.18,2.31,15.54-10.73l-2.61-8.7Z"/><path class="cls-13" d="M266.44,306.59l78.29-1.82S356.91,341.54,350,410c0,0-5,86.41,2.15,93.37,0,0-2.06,6.38-18.63,6.38,0,0-20.07-28.42-23.55-152.53,0,0-4.06,140.93,0,149.05,0,0-9.23,5.22-17.37-1.74s-3.4.58-2.29-1.16-30.2-139.77-23.82-157.75Z"/><path class="cls-14" d="M324.24,210.08c1.88.79-5.11,9.45-19.66,11.58,0,0-20.6,3.46-21.78-8.29,0,0,10.49-2.71,6.95-15.27,0,0,16.07,6,24.43-2.13C314.18,196,313.68,208.49,324.24,210.08Z"/><path class="cls-15" d="M325.29,171.71c-1.45,4.28-6.9,6.3-2.62,7.75A8.18,8.18,0,0,0,327.91,164C323.63,162.52,326.74,167.44,325.29,171.71Z"/><path class="cls-16" d="M278.94,171.8c.13,4.52,4.75,8,.24,8.17a8.17,8.17,0,1,1-.47-16.34C283.22,163.5,278.81,167.29,278.94,171.8Z"/><path class="cls-17" d="M274.22,165.18l.19-17.67a7.73,7.73,0,0,1,7.8-7.64l39.07.42a7.73,7.73,0,0,1,7.64,7.8s-.37,18.44-.62,18.72l-1.54,8.72a30.27,30.27,0,0,1-.78,3.29c-1,3.3-3.17,10.4-3.83,10.76-.85.47-7.52,13.26-21,12.41,0,0-8,2.35-17.08-9l-4.29-8.67a21.16,21.16,0,0,1-1.53-4.06S274.22,165.51,274.22,165.18Z"/><path class="cls-18" d="M290.26,151.26c-9.35,2.13-12,4.2-12,4.2"/><path class="cls-18" d="M312.63,151.06c9.73,1.44,11.54,2.79,11.54,2.79"/><path class="cls-19" d="M305.82,175.21s.2,5.06-4.12,4.31c0,0-4,.16-4.53-2.64,0,0-2.63,4.78,4.51,4.54S305.82,175.21,305.82,175.21Z"/><path class="cls-19" d="M325.59,174.68A15.19,15.19,0,0,1,306.34,176s2.69,9.64,10.67,9.09S326.48,179,325.59,174.68Z"/><path class="cls-19" d="M296.31,176.32a15.17,15.17,0,0,1-19.26-1.06s1.46,9.9,9.45,10.35S296.66,180.72,296.31,176.32Z"/><circle class="cls-20" cx="316.08" cy="168.38" r="11.35" transform="translate(-19.61 43.61) rotate(-7.66)"/><circle class="cls-20" cx="287.12" cy="168.92" r="11.35" transform="translate(-19.95 39.76) rotate(-7.66)"/><path class="cls-20" d="M298.36,167.41a5.68,5.68,0,0,1,6.41,0"/><path class="cls-21" d="M297.34,173.89c0,.18,0,.37,0,.57-.17,3.67,1.77,5.26,4.41,5.07,3.67-.27,4.3-1,4.47-4.66,0-.19,0-.38,0-.57"/><line class="cls-22" x1="318.45" y1="176.71" x2="323.68" y2="170.85"/><line class="cls-23" x1="290.26" y1="176.52" x2="294.84" y2="170.56"/><path class="cls-24" d="M296,188.56c-1.24,1.59,3.61,3.65,6.51,3.68s6.09-1.76,6.11-3.78-3.12-3.49-6-3.52A8.46,8.46,0,0,0,296,188.56Z"/><path class="cls-25" d="M295.58,190.12c0,2,3.61,3.65,6.51,3.68s6.09-1.76,6.12-3.78-3.13-3.49-6-3.52S295.6,188.1,295.58,190.12Z"/><path class="cls-26" d="M308.51,188.61s-3.92-7.6-11.82-.62c-.46.32-.15.2-.6.53a20.69,20.69,0,0,1,5.79-.64A24.54,24.54,0,0,1,308.51,188.61Z"/><path class="cls-27" d="M309.47,188.67l-1-.06s-.18,3.23-4.65,4.82a6.22,6.22,0,0,1-8.29-4.64.59.59,0,0,1,0-.14"/><ellipse cx="294.48" cy="188.82" rx="1.34" ry="0.78" transform="matrix(1, -0.06, 0.06, 1, -11.32, 18.95)"/><path d="M307.73,189.46c.31.58,1.31.65,2.24.16s1.44-1.37,1.14-2-1.31-.64-2.25-.15S307.42,188.89,307.73,189.46Z"/><path class="cls-28" d="M273.6,130.61a7.76,7.76,0,0,1-.73-4.47,7.85,7.85,0,0,1-1.37-2,7.15,7.15,0,0,1,.27-7.15.43.43,0,0,0,0-.07,7,7,0,0,1,.61-7.57c-.7-3,.36-5.91,2.79-7.1a5.2,5.2,0,0,1,3.45-.38,5.06,5.06,0,0,1,2-1.81,5.2,5.2,0,0,1,3.76-.27,5,5,0,0,1,1.85-1.58,5.89,5.89,0,0,1,6.54,1.29,5.5,5.5,0,0,1,2.9-4.19c2.34-1.15,5.19-.28,7.11,1.89a5.14,5.14,0,0,1,2.34-2.38,5.55,5.55,0,0,1,5.27.38,5.08,5.08,0,0,1,2.19-2.14,5.93,5.93,0,0,1,6.65,1.4c2.9-1.41,6.62.24,8.3,3.69a8,8,0,0,1,.75,2.48,7.84,7.84,0,0,1,2.5,3,7.73,7.73,0,0,1,.75,4.38,8.66,8.66,0,0,1,.66,1.1,8,8,0,0,1,.7,2.25,7.91,7.91,0,0,1,2.59,3,7.32,7.32,0,0,1,.13,6.48,7.28,7.28,0,0,1,.09,6.17c0,.1.12.18.17.28,1.69,3.46.71,7.41-2.2,8.84a5.31,5.31,0,0,1-4.14.15,5.65,5.65,0,0,1-3,4.9c-2.73,1.34-6.17-.06-8-3.1a7,7,0,0,1-1.25-.74,6.36,6.36,0,0,1-3.85-1.47,7.39,7.39,0,0,1-.66.42,5.59,5.59,0,0,1-5.5-.5,5.16,5.16,0,0,1-1,.62,5.5,5.5,0,0,1-5-.23,4.78,4.78,0,0,1-1.21.87c-2.27,1.11-5,.33-6.94-1.7a5.15,5.15,0,0,1-2.28,2.29,5.81,5.81,0,0,1-6.19-1,6.29,6.29,0,0,1-5.53-1.94A7.2,7.2,0,0,1,273.6,130.61Z"/><path class="cls-29" d="M274.44,162.84a2.83,2.83,0,0,1-.8-4.17,2.87,2.87,0,0,1-1.63-1.88,2.94,2.94,0,0,1,2.09-3.6c.68-.18-1.11-2.7-.51-2.42.38-.52,4-1.19,3.81-1,0,.05.07.1.08.16a2.06,2.06,0,1,1-4,1.05,2.09,2.09,0,0,1,0-.93,2.84,2.84,0,0,1,.77-5,3.93,3.93,0,0,1-.46-1,4,4,0,0,1,2.84-4.87,2.67,2.67,0,0,1,.48-.08,4,4,0,0,1,5.22-3.57,4,4,0,0,1,2.79-2.72,4,4,0,0,1,2.84.32,3.92,3.92,0,0,1,2.31-1.68,4,4,0,0,1,4.64,2.2,3.92,3.92,0,0,1,2-1.24,4,4,0,0,1,4.29,1.6,2.18,2.18,0,0,1,.23-.09,4,4,0,0,1,3.68.89,3.13,3.13,0,0,1,.8-.39,3.06,3.06,0,0,1,1.38,0,3,3,0,0,1,5.14-.3,2.81,2.81,0,0,1,1.14.45,4,4,0,0,1,3.63-.73,3.07,3.07,0,0,1,.42.17,3,3,0,0,1,2.18,1.44,3.93,3.93,0,0,1,2.52-.11,4,4,0,0,1,2.71,2.8,3.9,3.9,0,0,1,2.27,0,4,4,0,0,1,2.84,3.72c.17,0,.33.05.49.09a4,4,0,0,1,1.19,7.05,2.64,2.64,0,0,1-1,2.94,2.37,2.37,0,0,1,.7.06,2.06,2.06,0,0,1,.42,3.78s.1,0,.15,0a2.9,2.9,0,0,1,0,5.57,2.88,2.88,0,0,1,.73,2.82,2.91,2.91,0,0,1-.95,1.37,2,2,0,0,1-2.08,3.33,2.06,2.06,0,0,1-1.4-2.55,2.34,2.34,0,0,1,.25-.47,2.83,2.83,0,0,1,.5-5.23h0a2.84,2.84,0,0,1-3.79-3.47,4.16,4.16,0,0,1-1.1-.15,4,4,0,0,1-2.7-4.94c0-.08.07-.15.1-.23a4,4,0,0,1-1.51-4.27,3.95,3.95,0,0,1-5.34-2.62,3.94,3.94,0,0,1-6.38,1,3.91,3.91,0,0,1-2.72-2.45,4,4,0,0,1-6.74.08,3.93,3.93,0,0,1-2,1.23,4,4,0,0,1-4.62-2.14,4,4,0,0,1-2.78,2.69,3.91,3.91,0,0,1-2.62-.23,4,4,0,0,1-1.63,4.23c0,.07.06.14.08.22a4,4,0,0,1-2.83,4.88,4.1,4.1,0,0,1-1.39.1,2.85,2.85,0,0,1-4,3.25l0,0a2.85,2.85,0,0,1,.43,5,1.84,1.84,0,0,1,.43.79,2.06,2.06,0,1,1-3.6-.7Z"/><path class="cls-30" d="M282.34,168.52c0,3.22,2.4.58,5.33.58s5.25,2.65,5.25-.58a5.32,5.32,0,1,0-10.58,0Z"/><g class="cls-31"><circle class="cls-32" cx="287.63" cy="166.67" r="4.12"/><circle class="cls-33" cx="287.81" cy="166.55" r="1.35"/><circle class="cls-30" cx="285.67" cy="167.42" r="0.7"/></g><path class="cls-34" d="M282.34,168.52c0,3.22,2.4.58,5.33.58s5.25,2.65,5.25-.58a5.32,5.32,0,1,0-10.58,0Z"/><path class="cls-30" d="M311.77,168.52c0,3.22,2.4.58,5.32.58s5.26,2.65,5.26-.58a5.32,5.32,0,1,0-10.58,0Z"/><g class="cls-35"><circle class="cls-36" cx="317.06" cy="166.67" r="4.12"/><circle class="cls-33" cx="317.24" cy="166.55" r="1.35"/><circle class="cls-30" cx="315.38" cy="167.42" r="0.7"/></g><path class="cls-34" d="M311.77,168.52c0,3.22,2.4.58,5.32.58s5.26,2.65,5.26-.58a5.32,5.32,0,1,0-10.58,0Z"/><path class="cls-37" d="M351.11,318.92s-13.66-27.53-12.79-50c0,0,12.25,2.92,9.94-11.42,0,0,12-6.91,7.35-17.78,0,0,9.62-2.88,7.09-17.64L324,208.56S305.92,234,282.8,214l-38.21,16.08s-1.16,5.22,5.41,11.74c0,0-.38,13.47,10.06,15.65,0,0-5,10.57,9.85,15.23,0,0,1.84,28.14-6.66,52.78C263.25,325.45,328.2,336.92,351.11,318.92Z"/><path class="cls-38" d="M254.1,280.67,275,252.84l14.06-30.7s-32.62,1-33.76,20.68c0,0-25,35.8-24,45.09s13.54,20.53,16.85,30.31,5.87,11.15,11.17,11.87,7.48-2.42,7.48-2.42l.89-3.61a1.33,1.33,0,0,1,2.05-.6,46.85,46.85,0,0,0,4.64,3.24c.37,0,4.63,0,2.84-2.1,0,0,3.72.66,2.93-1.62,0,0,4.83,1,4.26-1s-3.77-7.69-3.77-7.69l-5.7-5.07,1.52-1.54,3.09.49a1.49,1.49,0,0,1,.84.41l4.3,4.35a3.9,3.9,0,0,0,3.22-.48c.87-.74-.48-1.89-1.35-2.5a2.22,2.22,0,0,1-.87-1.17l-.83-2.77a2.18,2.18,0,0,0-1.68-1.18l-6.2-.9a2.83,2.83,0,0,0-1.94.41l-3.12,2-3.23.73-.85,2.11-3.12,1.29-.38,2.1-2,.35a1.33,1.33,0,0,1-1.51-.77l-2.45-7a9.24,9.24,0,0,1-.95-3.09c-.57-4.5-2.24-17.15-3.52-19.79A1.59,1.59,0,0,1,254.1,280.67Z"/><path class="cls-39" d="M255.38,321.83c.28-.31,4.75-4.18,4.75-4.18s-.64-3.65,4.16-5"/><line class="cls-40" x1="267.31" y1="315.34" x2="277.17" y2="324.6"/><polyline class="cls-41" points="280.1 322.98 274.69 315.71 270.72 312.64"/><path class="cls-42" d="M362.21,273.45l-20.88-27.83-14.07-30.7s32.62,1,33.76,20.68c0,0,25,35.8,24.05,45.09S371.53,301.22,368.21,311s-5.87,11.15-11.17,11.87-7.48-2.42-7.48-2.42l-.88-3.61a1.33,1.33,0,0,0-2.05-.6,46.85,46.85,0,0,1-4.64,3.24c-.38,0-4.64,0-2.84-2.1,0,0-3.73.66-2.94-1.62,0,0-4.83,1.05-4.26-1s3.77-7.69,3.77-7.69l5.7-5.07-1.51-1.54-3.1.49a1.46,1.46,0,0,0-.83.41l-4.31,4.35a3.9,3.9,0,0,1-3.22-.48c-.87-.74.49-1.89,1.36-2.5a2.15,2.15,0,0,0,.86-1.17l.84-2.77a2.14,2.14,0,0,1,1.67-1.18l6.21-.9a2.84,2.84,0,0,1,1.94.41l3.11,2,3.23.73.85,2.11,3.13,1.29.37,2.1,2,.35a1.33,1.33,0,0,0,1.51-.77l2.45-7a9.49,9.49,0,0,0,1-3.09c.56-4.5,2.23-17.15,3.51-19.79A1.57,1.57,0,0,0,362.21,273.45Z"/><path class="cls-43" d="M360.93,314.61c-.28-.31-4.75-4.18-4.75-4.18s.64-3.65-4.16-5"/><polyline class="cls-44" points="336.21 315.76 341.62 308.49 345.6 305.42"/><path class="cls-37" d="M311,218.39c-7.42,3.88-17.72,5.25-29.29-4.83l-38.2,16.21s-1.16,5.26,5.41,11.83c0,0-.38,13.58,10.05,15.77,0,0-2.61,10.45,12.21,15.15a100.92,100.92,0,0,1,.88,12"/><path class="cls-37" d="M335.59,267.91s11.55,2.37,12.67-10.38c0,0,14-4.71,8.84-16.87,0,0,12.11-9,7.31-17.56l-38.59-14Z"/><path class="cls-45" d="M305.41,515.05s-8.07,7.59-15.72-4.64L288,504.15s-8.69-9.51-8.69-.18,1.52,9.67,1.52,9.67-11.22,7.05-17,6.79c0,0-14.81,10.37,3.06,14.78l11.84-.47a6.2,6.2,0,0,0,3.39-1.18l1.22-.89a4.45,4.45,0,0,1,2.16-.83L303,530C305.19,530.47,313,522.82,305.41,515.05Z"/><path class="cls-10" d="M335.68,520.25s7.8,6.19,17-6l2.54-6.48s9.9-9.22,8.68.69-2.78,10.12-2.78,10.12,10.26,8.62,16,8.92c2.28-1.23,16.38,10.91-5,15.4l-11.71-1.7a5.85,5.85,0,0,1-3.25-1.59l-1.11-1.08a4.17,4.17,0,0,0-2-1.1l-15.94-3.49a3.74,3.74,0,0,1-2.28-1.49C334.34,530.24,331.91,525.4,335.68,520.25Z"/><path class="cls-45" d="M337.29,514.39s7.18,8.46,16.15-2.84l2.41-6s9.7-8.47,8.65.8-2.59,9.44-2.59,9.44S372.27,524,378,524.39c0,0,13.55,12-4.7,14.35L361.61,537a6.26,6.26,0,0,1-3.23-1.55l-1.11-1a4.5,4.5,0,0,0-2-1.07L338,529.47C335.79,529.74,328.93,521.27,337.29,514.39Z"/><path class="cls-3" d="M393.71,286.62a7.6,7.6,0,0,0,2.91-.63"/><path class="cls-46" d="M402.19,283.92c21.5-8.56,77.07-34.81,94.62-43.14"/><path class="cls-3" d="M499.5,239.51l2.7-1.29"/><line class="cls-3" x1="388.32" y1="376.09" x2="391.31" y2="376.38"/><line class="cls-8" x1="397.31" y1="376.96" x2="478.31" y2="384.76"/><line class="cls-3" x1="481.31" y1="385.05" x2="484.29" y2="385.33"/><circle class="cls-47" cx="144.86" cy="46.52" r="42.89"/><circle class="cls-47" cx="83.66" cy="208.56" r="42.89"/><ellipse class="cls-47" cx="51.74" cy="380.71" rx="50.24" ry="42.89"/><circle class="cls-47" cx="464.71" cy="503.84" r="42.89"/><circle class="cls-47" cx="156.93" cy="496.54" r="42.89"/><circle class="cls-47" cx="473.36" cy="44.39" r="42.89"/><ellipse class="cls-47" cx="552.65" cy="218.42" rx="47.31" ry="42.89"/><ellipse class="cls-47" cx="554.44" cy="383.95" rx="49.1" ry="42.89"/><text class="cls-48" transform="translate(123.79 51.47)"><tspan class="cls-49">C</tspan><tspan class="cls-50" x="7.98" y="0">r</tspan><tspan x="12.1" y="0">e</tspan><tspan class="cls-51" x="18.44" y="0">a</tspan><tspan x="24.32" y="0">ti</tspan><tspan class="cls-52" x="31.72" y="0">e</tspan><tspan class="cls-53" x="37.99" y="0">f</tspan></text><text class="cls-48" transform="translate(58.63 207.09)"><tspan class="cls-54">O</tspan><tspan class="cls-55" x="9.53" y="0">o</tspan><tspan x="16.3" y="0" xml:space="preserve">g  op </tspan><tspan x="8.15" y="14.4">d</tspan><tspan class="cls-56" x="14.87" y="14.4">e</tspan><tspan x="21.16" y="14.4">tail</tspan></text><text class="cls-48" transform="translate(25.95 382.42)"><tspan class="cls-57">L</tspan><tspan class="cls-58" x="5.72" y="0">ee</tspan><tspan class="cls-59" x="18.4" y="0">r</tspan><tspan x="22.63" y="0">gierig</tspan></text><text class="cls-60" transform="translate(126.23 501.77)">E<tspan class="cls-61" x="6.76" y="0">n</tspan><tspan class="cls-58" x="13.37" y="0">thousiast</tspan></text><text class="cls-48" transform="translate(446 51.47)"><tspan class="cls-62">S</tspan><tspan x="6.24" y="0">tructu</tspan><tspan class="cls-50" x="38.32" y="0">r</tspan><tspan x="42.44" y="0">eel</tspan></text><text class="cls-48" transform="translate(518.23 224.18)"><tspan class="cls-63">S</tspan><tspan class="cls-64" x="6.2" y="0">y</tspan><tspan class="cls-58" x="12.28" y="0">s</tspan><tspan class="cls-65" x="17.47" y="0">t</tspan><tspan x="21.74" y="0">em</tspan><tspan class="cls-51" x="37.95" y="0">a</tspan><tspan class="cls-66" x="43.84" y="0">tisch</tspan></text><text class="cls-48" transform="translate(515.66 385.33)"><tspan class="cls-67">O</tspan><tspan class="cls-58" x="9.49" y="0">nder</tspan><tspan class="cls-68" x="33.61" y="0">z</tspan><tspan x="38.92" y="0">oe</tspan><tspan class="cls-69" x="52.06" y="0">k</tspan><tspan x="57.81" y="0">end</tspan></text><text class="cls-48" transform="translate(442.27 509.3)"><tspan class="cls-70">E</tspan><tspan x="6.68" y="0">fficië</tspan><tspan class="cls-61" x="32.27" y="0">n</tspan><tspan class="cls-58" x="38.89" y="0">t</tspan></text></g></g></svg>