<svg xmlns="http://www.w3.org/2000/svg" xmlns:xlink="http://www.w3.org/1999/xlink" viewBox="0 0 335.13 259.09"><defs><style>.cls-1,.cls-16{fill:#fff;}.cls-1{stroke:#9bc2ea;}.cls-1,.cls-16,.cls-18,.cls-22,.cls-28,.cls-29,.cls-32,.cls-33,.cls-34{stroke-miterlimit:10;}.cls-2{font-size:13.1px;}.cls-2,.cls-6,.cls-9{fill:#333;font-family:Lato-Regular, Lato;}.cls-3{letter-spacing:-0.12em;}.cls-4{letter-spacing:-0.03em;}.cls-5{letter-spacing:0em;}.cls-6{font-size:10px;}.cls-7{letter-spacing:-0.01em;}.cls-8{letter-spacing:-0.01em;}.cls-9{font-size:11px;}.cls-10{letter-spacing:-0.01em;}.cls-11{letter-spacing:0em;}.cls-12{letter-spacing:-0.02em;}.cls-13{letter-spacing:-0.04em;}.cls-14{letter-spacing:0em;}.cls-15{letter-spacing:-0.01em;}.cls-16{stroke-width:3px;stroke:url(#New_Gradient_Swatch_copy_4);}.cls-17{fill:url(#linear-gradient);}.cls-18,.cls-29,.cls-32,.cls-33,.cls-34{fill:none;}.cls-18{stroke:#000;}.cls-18,.cls-22,.cls-28,.cls-29,.cls-32,.cls-33{stroke-linecap:round;}.cls-19{fill:url(#linear-gradient-2);}.cls-20{fill:url(#linear-gradient-3);}.cls-21{fill:#ceceea;}.cls-22{fill:#c1d4ee;stroke:#c1d4ee;}.cls-22,.cls-28,.cls-29,.cls-33{stroke-width:2px;}.cls-23{fill:url(#linear-gradient-4);}.cls-24{fill:url(#linear-gradient-5);}.cls-25{fill:url(#linear-gradient-6);}.cls-26{fill:url(#linear-gradient-7);}.cls-27{fill:url(#linear-gradient-8);}.cls-28{stroke:#fff;fill:url(#linear-gradient-9);}.cls-29{stroke:#3b0c39;}.cls-30{fill:url(#linear-gradient-10);}.cls-31{fill:url(#linear-gradient-11);}.cls-32,.cls-33{stroke:#fdf0eb;}.cls-32{stroke-width:4px;}.cls-34{stroke-width:11px;stroke:url(#linear-gradient-12);}.cls-35{fill:#726dce;}.cls-36{fill:#9bc2ea;}</style><linearGradient id="New_Gradient_Swatch_copy_4" x1="211.74" y1="41.14" x2="273.72" y2="41.14" gradientUnits="userSpaceOnUse"><stop offset="0.13" stop-color="#c1c8ea"/><stop offset="0.27" stop-color="#b6c1ea"/><stop offset="0.53" stop-color="#9aaeea"/><stop offset="0.86" stop-color="#6c8fe9"/><stop offset="1" stop-color="#5680e9"/></linearGradient><linearGradient id="linear-gradient" x1="298.33" y1="111.36" x2="279.56" y2="88.16" gradientTransform="translate(-19.55 -34.38) rotate(-3.44)" gradientUnits="userSpaceOnUse"><stop offset="0.02" stop-color="#c1c8ea"/><stop offset="0.16" stop-color="#b6c1ea"/><stop offset="0.39" stop-color="#9aaeea"/><stop offset="0.7" stop-color="#6c8fe9"/><stop offset="0.83" stop-color="#5680e9"/></linearGradient><linearGradient id="linear-gradient-2" x1="199.35" y1="26.53" x2="244.86" y2="19.57" gradientUnits="userSpaceOnUse"><stop offset="0.02" stop-color="#434fea"/><stop offset="0.11" stop-color="#3f4cdf"/><stop offset="0.26" stop-color="#3643c3"/><stop offset="0.46" stop-color="#263494"/><stop offset="0.7" stop-color="#111f55"/><stop offset="0.78" stop-color="#09183d"/></linearGradient><linearGradient id="linear-gradient-3" x1="203.95" y1="892.07" x2="245.75" y2="892.07" gradientTransform="matrix(0.71, -0.71, 0.73, 0.73, -746.88, -264.66)" gradientUnits="userSpaceOnUse"><stop offset="0.13" stop-color="#c1c8ea"/><stop offset="0.24" stop-color="#b6c1ea"/><stop offset="0.43" stop-color="#9aaeea"/><stop offset="0.68" stop-color="#6c8fe9"/><stop offset="0.78" stop-color="#5680e9"/></linearGradient><linearGradient id="linear-gradient-4" x1="145.03" y1="167.66" x2="102.33" y2="139.95" gradientUnits="userSpaceOnUse"><stop offset="0.06" stop-color="#b673a0"/><stop offset="0.53" stop-color="#bdb6db"/><stop offset="0.76" stop-color="#bfb6da"/><stop offset="0.84" stop-color="#c6b7d7"/><stop offset="0.9" stop-color="#d1b8d1"/><stop offset="0.95" stop-color="#e2bac8"/><stop offset="0.96" stop-color="#e7bbc6"/></linearGradient><linearGradient id="linear-gradient-5" x1="131.53" y1="110.34" x2="171.34" y2="127.16" gradientUnits="userSpaceOnUse"><stop offset="0.05" stop-color="#4c8bc9"/><stop offset="0.35" stop-color="#725ba7"/><stop offset="0.43" stop-color="#675097"/><stop offset="0.67" stop-color="#4c3772"/><stop offset="0.85" stop-color="#3c285b"/><stop offset="0.97" stop-color="#362252"/></linearGradient><linearGradient id="linear-gradient-6" x1="199.42" y1="206.86" x2="306.31" y2="244.91" gradientUnits="userSpaceOnUse"><stop offset="0.05" stop-color="#c59dc9"/><stop offset="0.35" stop-color="#9dbee4"/><stop offset="0.41" stop-color="#99b8e0"/><stop offset="0.5" stop-color="#8ca8d5"/><stop offset="0.59" stop-color="#778dc3"/><stop offset="0.69" stop-color="#5a68aa"/><stop offset="0.8" stop-color="#35398a"/><stop offset="0.81" stop-color="#303285"/></linearGradient><linearGradient id="linear-gradient-7" x1="149.44" y1="120.25" x2="54.85" y2="24.92" gradientUnits="userSpaceOnUse"><stop offset="0" stop-color="#c59dc9"/><stop offset="0.4" stop-color="#9dbee4"/><stop offset="0.49" stop-color="#99b8e0"/><stop offset="0.59" stop-color="#8ca8d5"/><stop offset="0.71" stop-color="#778dc3"/><stop offset="0.84" stop-color="#5a68aa"/><stop offset="0.98" stop-color="#35398a"/><stop offset="1" stop-color="#303285"/></linearGradient><linearGradient id="linear-gradient-8" x1="136.23" y1="188.17" x2="151.28" y2="194.05" gradientUnits="userSpaceOnUse"><stop offset="0" stop-color="#bdb6db"/><stop offset="0.17" stop-color="#b3b0d8"/><stop offset="0.47" stop-color="#989fcf"/><stop offset="0.85" stop-color="#6c83c0"/><stop offset="0.96" stop-color="#5f7bbc"/></linearGradient><linearGradient id="linear-gradient-9" x1="152.37" y1="174.06" x2="227.91" y2="174.06" gradientUnits="userSpaceOnUse"><stop offset="0" stop-color="#ca6a3f"/><stop offset="0.56" stop-color="#9b268f"/><stop offset="1" stop-color="#303285"/></linearGradient><linearGradient id="linear-gradient-10" x1="-1750.94" y1="-51.89" x2="-1722.32" y2="-51.89" gradientTransform="translate(149.14 1829.95) rotate(90)" gradientUnits="userSpaceOnUse"><stop offset="0.13" stop-color="#c0c6e4"/><stop offset="0.24" stop-color="#b5c2e2"/><stop offset="0.44" stop-color="#99b5dd"/><stop offset="0.7" stop-color="#6ba2d6"/><stop offset="0.85" stop-color="#4e96d1"/></linearGradient><linearGradient id="linear-gradient-11" x1="-1756.1" y1="-33.74" x2="-1740.65" y2="-33.74" xlink:href="#linear-gradient-10"/><linearGradient id="linear-gradient-12" x1="269.28" y1="152.22" x2="323.75" y2="174.14" gradientUnits="userSpaceOnUse"><stop offset="0.02" stop-color="#c1c8ea"/><stop offset="0.04" stop-color="#b9bfe7"/><stop offset="0.12" stop-color="#9fa1de"/><stop offset="0.19" stop-color="#8b8ad7"/><stop offset="0.28" stop-color="#7d7ad2"/><stop offset="0.37" stop-color="#7570cf"/><stop offset="0.49" stop-color="#726dce"/><stop offset="0.67" stop-color="#6e6fd1"/><stop offset="0.83" stop-color="#6477dc"/><stop offset="0.95" stop-color="#5680e9"/></linearGradient></defs><g id="Layer_2" data-name="Layer 2"><g id="Layer_1-2" data-name="Layer 1"><path class="cls-1" d="M35.83,114.39a2.24,2.24,0,0,1-3.38,2.14,25.72,25.72,0,0,0-7.64-3.45c-9-2.33-16.73,1.11-21,3.76-1.48.9-3.27-.31-3.27-2.2V80.87a2.54,2.54,0,0,1,1.14-2.18c4.13-2.55,14.88-8.11,26.4-3.82a27.3,27.3,0,0,1,6.78,3.75,2.62,2.62,0,0,1,1,2.1Z"/><text class="cls-2" transform="translate(55.09 255.57)"><tspan class="cls-3">T</tspan><tspan x="6.14" y="0">e</tspan><tspan class="cls-4" x="13.06" y="0">k</tspan><tspan class="cls-5" x="19.34" y="0">enen</tspan></text><text class="cls-6" transform="translate(264.76 79.02)"><tspan class="cls-7">D</tspan><tspan x="7.5" y="0">igitale </tspan><tspan x="0" y="20">kunst</tspan><tspan class="cls-8" x="24.15" y="20">w</tspan><tspan x="31.94" y="20">erk</tspan></text><text class="cls-9" transform="translate(293.55 216.9)"><tspan class="cls-10">M</tspan><tspan x="10.11" y="0">uziek</tspan><tspan x="0" y="13.2">luis</tspan><tspan class="cls-11" x="16.13" y="13.2">t</tspan><tspan x="20.05" y="13.2">e</tspan><tspan class="cls-12" x="25.86" y="13.2">r</tspan><tspan x="29.63" y="13.2">en</tspan></text><text class="cls-9" transform="translate(4.58 136.78)"><tspan class="cls-13">L</tspan><tspan class="cls-14" x="5.25" y="0">e</tspan><tspan class="cls-15" x="11.05" y="0">z</tspan><tspan x="15.92" y="0">en</tspan></text><path class="cls-16" d="M263.37,63.15l-46.8-8.37c-2.18-.39-3.62-2.84-3.28-5.47l2.91-23c.31-2.42,2.23-4.47,4.35-4.59L265.4,19c3.82-.23,6.93,2.3,6.82,5.69L271.1,57.54C271,61.36,267.43,63.88,263.37,63.15Z"/><path class="cls-17" d="M274.24,32.15l9,16.91a2.22,2.22,0,0,1-.46,2.68l-10,8.81Z"/><path class="cls-18" d="M240.59,44.17s13.19,8.11,18.68-9.14c0,0,3.39-8.11,5.49,2.87"/><path class="cls-19" d="M238.62,38.24l.53,5a.6.6,0,0,1-1,.54l-4.34-3.44-16-36.67A2.61,2.61,0,0,1,219.23.22h0a2.61,2.61,0,0,1,3.44,1.35Z"/><path class="cls-1" d="M35.83,111.5a2.23,2.23,0,0,1-3.38,2.13,25.71,25.71,0,0,0-7.64-3.44c-9-2.34-16.73,1.11-21,3.75-1.48.91-3.27-.3-3.27-2.19V78a2.56,2.56,0,0,1,1.14-2.19C5.77,73.25,16.52,67.69,28,72a27,27,0,0,1,6.78,3.75,2.61,2.61,0,0,1,1,2.1Z"/><path class="cls-1" d="M69.13,114.39c0,2-1.77,3.12-3.19,2.14a23.53,23.53,0,0,0-7.2-3.45c-8.45-2.33-15.76,1.11-19.82,3.76-1.4.9-3.09-.31-3.09-2.2V80.87a2.59,2.59,0,0,1,1.08-2.18c3.88-2.55,14-8.11,24.88-3.82a25.45,25.45,0,0,1,6.39,3.75,2.69,2.69,0,0,1,.95,2.1Z"/><path class="cls-1" d="M68.73,111.5c0,2-1.78,3.12-3.19,2.13a23.52,23.52,0,0,0-7.2-3.44c-8.45-2.34-15.77,1.11-19.82,3.75-1.4.91-3.09-.3-3.09-2.19V78a2.61,2.61,0,0,1,1.08-2.19c3.88-2.54,14-8.1,24.87-3.81a25.05,25.05,0,0,1,6.4,3.75,2.68,2.68,0,0,1,1,2.1Z"/><path class="cls-20" d="M81.6,235.29s-9.57-7-13.83-17.57S57.1,204.78,57.1,204.78s-10.9-1.23-.58,10.81c0,0,20.23,21.95,24.07,22.12C80.59,237.71,82.45,236.32,81.6,235.29Z"/><path class="cls-21" d="M81.12,235.53s4.39-6.17,14.19-3.93,10.32-5.83,10.32-5.83.82,6.54-3.38,10-14.74,6.81-21.66,1.93Z"/><path class="cls-22" d="M147.89,210.37c37.46,13,77.33-18.79,76.46-37.14-.81-16.82-35.78-20.89-40.17-47.36-2.55-15.38,7.67-23.55,3-29.1-8.83-10.57-63.06-1.58-76.46,37.14A60.1,60.1,0,0,0,147.89,210.37Zm59.78-43.49a9.59,9.59,0,1,1-12.21,5.93A9.58,9.58,0,0,1,207.67,166.88Z"/><path class="cls-23" d="M131.86,163.47q-.83.36-1.65.63a1.51,1.51,0,0,0-1,1.69,8.9,8.9,0,0,1,.11,1.39c0,2.71-1.53,7.36-3,7.36s-4.28-.42-4.28-3.14a13.56,13.56,0,0,1,1.25-4.56,1.51,1.51,0,0,0-1.08-2.09c-2.58-.53-4.6-1.87-5.48-3.92-1.41-3.27.46-7.39,4.33-10.41a1.53,1.53,0,0,0,.56-1.45,8.5,8.5,0,0,1,16.52-3.77,8.35,8.35,0,0,1,.39,2.39,1.54,1.54,0,0,0,.48,1.06,5.71,5.71,0,0,1,1.41,2C142.21,154.9,138.4,160.66,131.86,163.47Z"/><path class="cls-24" d="M161.53,110.22a10.15,10.15,0,0,1-10.27,16.07,9.56,9.56,0,0,1-1.73,1.69,10.16,10.16,0,1,1-12.33-16.14,10,10,0,0,1,1.72-1.06,10,10,0,0,1,3.73-5.78,10.15,10.15,0,0,1,14.13,1.78A10.14,10.14,0,0,1,161.53,110.22Z"/><path class="cls-25" d="M230.18,206.3a37.74,37.74,0,0,0-8.21-5.15c-1.41-.69-2.86-1.32-4.36-2l-.75-.2a72.18,72.18,0,0,1-19.81,12.37l-1,1.48c-.07.47-.13.93-.17,1.4a17,17,0,0,0,12,17.59h0c.73.27,20.86,7.78,35.32-2.2,14.71-10.13,15.55-18.88,16.52-23.3C259.45,207.11,252.63,225.05,230.18,206.3Z"/><path class="cls-26" d="M145.41,94.89l-.5-1q-1.17-2.37-2.2-4.8c-.72-1.68-1.84-4-2.13-4.74A21.8,21.8,0,0,0,112,72.79c-11.09,4.7-12.86,14.24-8.16,25.33,1,2.46,3.38,5.29,5.18,7.63,1.68,2.18,5.47,7.89,6.91,9.65l.83,1.09C124.19,106.39,134.73,99.3,145.41,94.89Z"/><path class="cls-27" d="M149.94,198.32c.58,3.59-1.74,5.28-3.46,4.55-.74-.31,0-3.14-.47-4.15-.17-.38-.73-.44-1.21-.57a4.1,4.1,0,0,0-1.35-.12H143a4.39,4.39,0,0,1-4.41-4.69c.16-1.46-2.87-2.06-3.53-4-1.54-4.55,3.55-8.69,7.94-8.69s7.93,3.89,7.93,8.69a9.09,9.09,0,0,1-1.95,5.7A10.26,10.26,0,0,1,149.94,198.32Z"/><path class="cls-28" d="M227,149.2c-3.3,4.12-5.76,1.92-5.76,1.92s.55,12.23-15.91,24.36a18.21,18.21,0,0,1-10.42,3.19s13.27,1.76,14.07,22.86a9.88,9.88,0,0,1-3.87,8.26c-2.18,1.66-4.36,3.88-3.62,5.79a8.41,8.41,0,0,1-.28,6.59s-6.86,6.58-6.3-6.86l0-4.67s-.48-5-6.26-2.85a17.87,17.87,0,0,1-7.24,6.24c-5.57,5.56-3.89,11.12-2.65,13.62a6.37,6.37,0,0,1,.59,3.91c-.53,3.22-2.36,8.13-8.55,6.24s-5.17-7.68-4-11.21A12.91,12.91,0,0,0,165,214.66c-.35-.47-.58-.72-.58-.72-2.39,2.39-7.67.28-7.85.23-12.56-2.93,7.05-38.69,7.05-38.69s3.81-21.89.25-36.7,11-25.24,13.72-26.61c3.81-1.9,15.21-8.49,23.4,15.72a26.34,26.34,0,0,1,1.28,6.34c.12,1.33.24,3,.35,4.8,4.73-9.89,14.19-7.93,14.19-7.93s4.94,0,7.13,11.53C223.94,142.63,230.25,145.09,227,149.2Z"/><path class="cls-29" d="M188,206.05a21,21,0,0,0,3.27-7.85"/><path class="cls-29" d="M201.65,142.69c.35,5.95.52,13.47-.63,15.93"/><circle class="cls-22" cx="214.12" cy="112.32" r="14.18"/><circle class="cls-30" cx="201.02" cy="88.58" r="9.56"/><circle class="cls-31" cx="182.88" cy="79.02" r="5.16"/><path class="cls-32" d="M106.11,90.19s-3.06-9.78,7.38-13.66"/><path class="cls-33" d="M135.67,119.78a6.23,6.23,0,0,1,3.94-6.14"/><path class="cls-34" d="M269,173.85c0-14.49,10.1-28.24,24.59-28.24s24.58,14.32,24.58,28.81"/><rect class="cls-35" x="308.51" y="167.96" width="16.31" height="27.17" rx="4.51"/><path class="cls-36" d="M319,168a10.45,10.45,0,0,0-1.49.12c4.15.61,7.3,3.72,7.3,7.48v12c0,3.75-3.15,6.86-7.3,7.47a9.17,9.17,0,0,0,1.49.12c4.86,0,8.8-3.4,8.8-7.59v-12C327.76,171.36,323.82,168,319,168Z"/><rect class="cls-35" x="260.58" y="167.53" width="16.58" height="27.17" rx="4.51"/><path class="cls-36" d="M260.58,187.11v-12c0-3.76,3.42-6.87,7.91-7.48a12.07,12.07,0,0,0-1.61-.12h0c-5.26,0-9.53,3.4-9.53,7.6v12c0,4.19,4.27,7.59,9.53,7.59h0a10.61,10.61,0,0,0,1.61-.12C264,194,260.58,190.86,260.58,187.11Z"/></g></g></svg>