<svg xmlns="http://www.w3.org/2000/svg" xmlns:xlink="http://www.w3.org/1999/xlink" viewBox="0 0 61.8 121.72"><defs><style>.cls-1{fill:url(#linear-gradient);}.cls-2{fill:url(#linear-gradient-2);}.cls-3{fill:url(#linear-gradient-3);}.cls-21,.cls-23,.cls-24,.cls-25,.cls-29,.cls-30,.cls-36,.cls-37,.cls-4{fill:none;}.cls-4{stroke:#42210b;opacity:0.33;}.cls-21,.cls-23,.cls-24,.cls-25,.cls-26,.cls-29,.cls-30,.cls-36,.cls-37,.cls-4{stroke-miterlimit:10;}.cls-29,.cls-4{stroke-width:0.25px;}.cls-5{fill:url(#linear-gradient-4);}.cls-26,.cls-6{fill:#a37762;}.cls-7{fill:#a87c67;}.cls-8{fill:#ae816c;}.cls-9{fill:#b38672;}.cls-10{fill:#b88b77;}.cls-11{fill:#bd907c;}.cls-12{fill:#c39481;}.cls-13{fill:#c89986;}.cls-14{fill:#cd9e8b;}.cls-15{fill:#d2a391;}.cls-16{fill:#d8a896;}.cls-17{fill:#ddad9b;}.cls-18{fill:url(#linear-gradient-5);}.cls-19{fill:url(#linear-gradient-6);}.cls-20{fill:url(#linear-gradient-7);}.cls-21,.cls-23,.cls-24,.cls-29,.cls-30{stroke:#000;}.cls-21,.cls-24,.cls-25,.cls-26,.cls-37{stroke-linecap:round;}.cls-21{stroke-width:2px;}.cls-22{fill:#694635;}.cls-24,.cls-25,.cls-26,.cls-30{stroke-width:0.5px;}.cls-25,.cls-26{stroke:#fff;}.cls-27{fill:#a06c55;}.cls-28{fill:#6a4837;}.cls-31{fill:url(#linear-gradient-8);}.cls-32{fill:#1f0d05;}.cls-33{fill:url(#linear-gradient-9);}.cls-34{fill:#2e2e56;}.cls-35{fill:#7a78d1;}.cls-36,.cls-37{stroke:#66afc6;}</style><linearGradient id="linear-gradient" x1="34.02" y1="77" x2="80.56" y2="77" gradientTransform="matrix(-0.99, 0.1, 0.1, 0.99, 69.48, 17.94)" gradientUnits="userSpaceOnUse"><stop offset="0.21" stop-color="#97e0fe"/><stop offset="0.83" stop-color="#6fb1cc"/></linearGradient><linearGradient id="linear-gradient-2" x1="44.96" y1="26.92" x2="43.08" y2="13.46" gradientTransform="matrix(-0.99, 0.1, 0.1, 0.99, 69.48, 17.94)" gradientUnits="userSpaceOnUse"><stop offset="0" stop-color="#c49179"/><stop offset="0.55" stop-color="#a37865"/><stop offset="1" stop-color="#5e4538"/></linearGradient><linearGradient id="linear-gradient-3" x1="91.07" y1="34.6" x2="52.31" y2="38.32" gradientTransform="matrix(-0.99, 0.1, 0.1, 0.99, 69.48, 17.94)" gradientUnits="userSpaceOnUse"><stop offset="0.21" stop-color="#c49179"/><stop offset="0.55" stop-color="#a37865"/><stop offset="0.66" stop-color="#a17764"/><stop offset="0.7" stop-color="#9a725f"/><stop offset="0.73" stop-color="#8f6958"/><stop offset="0.75" stop-color="#7e5c4d"/><stop offset="0.77" stop-color="#684c3e"/><stop offset="0.78" stop-color="#5e4538"/></linearGradient><linearGradient id="linear-gradient-4" x1="17.09" y1="40.36" x2="35.02" y2="40.36" xlink:href="#linear-gradient-2"/><linearGradient id="linear-gradient-5" x1="-119" y1="291.53" x2="-115.34" y2="291.53" gradientTransform="matrix(-0.89, -0.46, -0.46, 0.89, 71.97, -283.14)" gradientUnits="userSpaceOnUse"><stop offset="0.55" stop-color="#a37865"/><stop offset="1" stop-color="#5e4538"/></linearGradient><linearGradient id="linear-gradient-6" x1="-995.77" y1="136.76" x2="-992.12" y2="136.76" gradientTransform="translate(1024.12 16.02) rotate(7.25)" xlink:href="#linear-gradient-5"/><linearGradient id="linear-gradient-7" x1="41.74" y1="27.8" x2="36.1" y2="-12.6" gradientTransform="matrix(-0.99, 0.1, 0.1, 0.99, 69.48, 17.94)" gradientUnits="userSpaceOnUse"><stop offset="0.21" stop-color="#c49179"/><stop offset="0.55" stop-color="#a37865"/><stop offset="0.67" stop-color="#a17664"/><stop offset="0.72" stop-color="#99715f"/><stop offset="0.76" stop-color="#8d6756"/><stop offset="0.8" stop-color="#7a5a4a"/><stop offset="0.83" stop-color="#63493b"/><stop offset="0.84" stop-color="#5e4538"/></linearGradient><linearGradient id="linear-gradient-8" x1="30.27" y1="-23.17" x2="37.32" y2="-1.3" gradientTransform="matrix(-0.99, 0.1, 0.1, 0.99, 69.48, 17.94)" gradientUnits="userSpaceOnUse"><stop offset="0.17" stop-color="#401e10"/><stop offset="0.56" stop-color="#1f0d05"/><stop offset="0.93" stop-color="#120703"/></linearGradient><linearGradient id="linear-gradient-9" x1="28.95" y1="32.35" x2="64.5" y2="48.16" gradientTransform="matrix(-0.99, 0.1, 0.1, 0.99, 69.48, 17.94)" gradientUnits="userSpaceOnUse"><stop offset="0" stop-color="#9690c8"/><stop offset="0.62" stop-color="#5143b6"/><stop offset="1" stop-color="#2e2666"/></linearGradient></defs><g id="Layer_2" data-name="Layer 2"><g id="Layer_2-2" data-name="Layer 2"><path class="cls-1" d="M38,121.72S17.15,111.17,6.72,86.07c0,0-.56-2.89,4.58-7.79,0,0,9.86,8.48,26.93,3.5C38.23,81.78,50.57,98.08,38,121.72Z"/><path class="cls-2" d="M34.69,43.28s-1.71,3.82-7.51,4c0,0-6.73-1-6.28-6.15,0,0,5.32.56,4.81-5.16,0,0,2.36,2.92,6.64.08C32.35,36,30.25,41.73,34.69,43.28Z"/><path class="cls-3" d="M14.41,60.44l-.67-3.95a4.19,4.19,0,0,1-3.93-4.08L6,60.12a9,9,0,0,0-6,3.7s.27,5.1,2.3,6.9l9.64-4.42Z"/><path class="cls-4" d="M52.72,49.26a6.17,6.17,0,0,0-3.12-7.88"/><path class="cls-5" d="M55.56,49.44S53.19,55.07,53,57.85s-.55,13.21-9,17l-1.32-.52a4.26,4.26,0,0,1-2.62-3.12l-.7-3.38,1.37-4.76.84-2.7a4.76,4.76,0,0,0,.13-2.34l-.17-.82a3.19,3.19,0,0,0,3-1.84,1.84,1.84,0,0,0,.15-.35c.85-2.33,0,.13,0,.13L45,59.26S48.81,51.81,48.31,47A64.16,64.16,0,0,1,55.56,49.44Z"/><path class="cls-6" d="M48.06,49l-3-8.38-1-6.73s.7-1.44,1.65-.17l1,5.11,1.07.87,3.93-11.23s1.45-1.26,1.35.67a20.75,20.75,0,0,1-1.21,4.72,3,3,0,0,0,0,2.12h0a2.89,2.89,0,0,0,2-1.77l1.89-4.88s1.5-.75,1.4.71a22.4,22.4,0,0,1-1.78,4.89,2.9,2.9,0,0,0-.09,2.24h0a3.85,3.85,0,0,0,1.89-2l2-5s2.06-1,1.48,1a44.43,44.43,0,0,1-2.74,6l.51,1.09.72-.4,1.28-3.4s1.59-1.15,1.3.63S57.7,46.67,57.7,46.67l-1.92,2.89S50.51,54.09,48.06,49Z"/><path class="cls-7" d="M48.11,48.81l-2.93-8.25-1-6.63s.7-1.43,1.63-.17l1,5,1.07.86,3.89-11.06s1.44-1.25,1.34.66A20.85,20.85,0,0,1,51.9,33.9a2.92,2.92,0,0,0,0,2.08h0a2.86,2.86,0,0,0,2-1.74l1.87-4.81s1.49-.74,1.38.7A21.9,21.9,0,0,1,55.41,35a2.85,2.85,0,0,0-.08,2.2h0a3.83,3.83,0,0,0,1.87-2l1.95-4.88s2-1,1.46,1a43.19,43.19,0,0,1-2.71,5.9l.5,1.07.72-.39,1.26-3.35s1.58-1.14,1.3.62-4,11.41-4,11.41l-1.9,2.85S50.53,53.82,48.11,48.81Z"/><path class="cls-8" d="M48.15,48.62,45.26,40.5l-1-6.53s.7-1.4,1.62-.17l1,5,1,.84,3.86-10.89s1.42-1.23,1.32.65a20.09,20.09,0,0,1-1.19,4.58A2.84,2.84,0,0,0,52,36h0a2.83,2.83,0,0,0,2-1.71l1.85-4.74s1.48-.73,1.37.69A21.4,21.4,0,0,1,55.39,35a2.86,2.86,0,0,0-.09,2.17h0a3.78,3.78,0,0,0,1.86-2l1.94-4.81s2-1,1.44,1a42.87,42.87,0,0,1-2.69,5.81l.5,1,.71-.38,1.25-3.3s1.56-1.12,1.28.61-4,11.24-4,11.24l-1.89,2.81S50.55,53.56,48.15,48.62Z"/><path class="cls-9" d="M48.2,48.44l-2.86-8-1-6.43s.69-1.38,1.6-.17l1,4.88,1,.83,3.83-10.72s1.41-1.21,1.31.64A20.11,20.11,0,0,1,51.93,34a2.81,2.81,0,0,0,0,2h0a2.8,2.8,0,0,0,1.94-1.69l1.84-4.66s1.46-.72,1.36.68A21.6,21.6,0,0,1,55.37,35a2.81,2.81,0,0,0-.09,2.13h0a3.69,3.69,0,0,0,1.84-2L59,30.45s2-.94,1.43,1a42.57,42.57,0,0,1-2.67,5.72l.49,1,.71-.38,1.24-3.26s1.54-1.09,1.26.61-4,11.06-4,11.06L55.68,49S50.57,53.3,48.2,48.44Z"/><path class="cls-10" d="M48.24,48.25l-2.82-7.86-1-6.32s.68-1.36,1.59-.17l1,4.8,1,.82L51.83,29s1.39-1.19,1.29.63A19.57,19.57,0,0,1,52,34a2.73,2.73,0,0,0,0,2h0a2.8,2.8,0,0,0,1.93-1.67l1.82-4.59s1.44-.71,1.34.67A20.59,20.59,0,0,1,55.35,35a2.74,2.74,0,0,0-.09,2.1h0a3.63,3.63,0,0,0,1.82-1.92L59,30.54s2-.93,1.41.95a41.33,41.33,0,0,1-2.64,5.63l.49,1,.7-.37,1.23-3.21s1.53-1.08,1.25.6S57.5,46.05,57.5,46.05l-1.85,2.72S50.59,53,48.24,48.25Z"/><path class="cls-11" d="M48.29,48.07,45.5,40.34l-1-6.23s.67-1.33,1.56-.16l1,4.72,1,.8,3.76-10.38s1.38-1.17,1.28.61A18.88,18.88,0,0,1,52,34.07a2.71,2.71,0,0,0,0,2h0a2.76,2.76,0,0,0,1.9-1.64l1.8-4.52s1.43-.7,1.33.66a20.51,20.51,0,0,1-1.7,4.52,2.63,2.63,0,0,0-.09,2.06h0A3.61,3.61,0,0,0,57,35.22l1.88-4.58s2-.92,1.4.93a39.78,39.78,0,0,1-2.62,5.54l.48,1,.7-.37,1.21-3.15s1.52-1.06,1.24.59S57.45,45.9,57.45,45.9l-1.84,2.68S50.6,52.77,48.29,48.07Z"/><path class="cls-12" d="M48.33,47.88l-2.75-7.6-1-6.12s.67-1.31,1.55-.16l1,4.64,1,.79,3.72-10.22s1.37-1.15,1.27.61A18.2,18.2,0,0,1,52,34.11,2.58,2.58,0,0,0,52,36h0a2.7,2.7,0,0,0,1.88-1.62L55.68,30s1.42-.69,1.31.64a19.84,19.84,0,0,1-1.69,4.45,2.67,2.67,0,0,0-.09,2h0A3.59,3.59,0,0,0,57,35.24l1.86-4.51s1.94-.9,1.39.92a40.07,40.07,0,0,1-2.6,5.45l.48,1,.68-.37L60,34.62s1.5-1,1.23.58S57.4,45.74,57.4,45.74l-1.82,2.64S50.62,52.51,48.33,47.88Z"/><path class="cls-13" d="M48.38,47.7l-2.72-7.48-.94-6s.66-1.29,1.53-.16l1,4.56,1,.78,3.69-10s1.36-1.14,1.26.59A18.36,18.36,0,0,1,52,34.16a2.57,2.57,0,0,0,0,1.89h0a2.7,2.7,0,0,0,1.87-1.59l1.77-4.37s1.4-.68,1.3.63a19.66,19.66,0,0,1-1.68,4.38,2.57,2.57,0,0,0-.09,2h0A3.55,3.55,0,0,0,57,35.27l1.85-4.44s1.91-.89,1.36.9a39.19,39.19,0,0,1-2.56,5.36l.46,1,.68-.36L60,34.65s1.48-1,1.21.57-3.82,10.37-3.82,10.37l-1.79,2.59S50.64,52.24,48.38,47.7Z"/><path class="cls-14" d="M48.43,47.52l-2.69-7.35-.93-5.91s.65-1.27,1.52-.16l.93,4.48,1,.77,3.65-9.89s1.34-1.11,1.24.59A17.68,17.68,0,0,1,52,34.2a2.49,2.49,0,0,0,0,1.86h0a2.64,2.64,0,0,0,1.84-1.56l1.76-4.3s1.38-.67,1.28.62a19.34,19.34,0,0,1-1.66,4.3,2.5,2.5,0,0,0-.09,2h0a3.49,3.49,0,0,0,1.75-1.8l1.83-4.36s1.89-.88,1.35.88a38.88,38.88,0,0,1-2.54,5.27L58,38l.67-.35,1.18-3s1.47-1,1.2.56-3.78,10.19-3.78,10.19L55.51,48S50.66,52,48.43,47.52Z"/><path class="cls-15" d="M48.47,47.33l-2.65-7.22L44.9,34.3s.65-1.25,1.5-.15l.93,4.4,1,.75,3.62-9.71s1.33-1.1,1.23.57A17.5,17.5,0,0,1,52,34.24a2.41,2.41,0,0,0,0,1.83h0a2.65,2.65,0,0,0,1.83-1.53l1.73-4.23s1.37-.66,1.27.61a19,19,0,0,1-1.64,4.23,2.4,2.4,0,0,0-.09,1.93h0a3.51,3.51,0,0,0,1.73-1.77L58.69,31s1.88-.86,1.34.87a38.57,38.57,0,0,1-2.52,5.18L58,38l.66-.35,1.17-2.95s1.45-1,1.19.55-3.75,10-3.75,10l-1.76,2.51S50.68,51.72,48.47,47.33Z"/><path class="cls-16" d="M48.52,47.15,45.9,40.06,45,34.35s.64-1.23,1.48-.15l.91,4.32,1,.74,3.59-9.55s1.31-1.07,1.21.57a16.6,16.6,0,0,1-1.12,4,2.41,2.41,0,0,0,0,1.79h0a2.61,2.61,0,0,0,1.81-1.51l1.72-4.15s1.36-.64,1.25.6a18.45,18.45,0,0,1-1.62,4.15,2.37,2.37,0,0,0-.1,1.9h0a3.39,3.39,0,0,0,1.72-1.74l1.79-4.21s1.86-.85,1.32.85a37.36,37.36,0,0,1-2.49,5.09l.45.92.66-.34,1.16-2.9s1.44-1,1.17.54-3.71,9.84-3.71,9.84l-1.74,2.47S50.69,51.45,48.52,47.15Z"/><path class="cls-17" d="M48.56,47,46,40l-.89-5.6s.64-1.21,1.47-.16l.9,4.26.95.72L52,29.84s1.3-1.06,1.2.55a17,17,0,0,1-1.11,3.94,2.38,2.38,0,0,0,0,1.76h0a2.54,2.54,0,0,0,1.79-1.48l1.71-4.08s1.34-.63,1.24.59a18.06,18.06,0,0,1-1.62,4.08,2.32,2.32,0,0,0-.09,1.86h0a3.34,3.34,0,0,0,1.7-1.71l1.77-4.14s1.84-.83,1.31.84a35.85,35.85,0,0,1-2.47,5l.45.9.65-.33,1.15-2.85s1.42-1,1.15.53S57.14,45,57.14,45l-1.73,2.42S50.71,51.19,48.56,47Z"/><path class="cls-4" d="M52.13,47.44A6.37,6.37,0,0,0,52,42.58a6.28,6.28,0,0,0-3-3"/><line class="cls-4" x1="54.57" y1="45.26" x2="50.9" y2="38.28"/><path class="cls-4" d="M57.57,42.56a7.36,7.36,0,0,1-3.14-1A7.24,7.24,0,0,1,51.81,39"/><path class="cls-18" d="M39,28.57c-.75,1.44-2.8,1.85-1.36,2.6A2.93,2.93,0,0,0,40.39,26C39,25.22,39.78,27.14,39,28.57Z"/><path class="cls-19" d="M22.85,26.5c-.21,1.61,1.23,3.12-.38,2.92a2.94,2.94,0,0,1,.75-5.83C24.82,23.79,23.05,24.89,22.85,26.5Z"/><path class="cls-20" d="M21.65,22.86,22.7,16.6a2.76,2.76,0,0,1,3.19-2.27l13.84,2.31A2.79,2.79,0,0,1,42,19.84s-1.16,6.52-1.26,6.61l-1,3a11.07,11.07,0,0,1-.45,1.13,23.22,23.22,0,0,1-2,3.6c-.33.12-3.4,4.29-8.13,3.24,0,0-3,.39-5.57-4.13l-1-3.31a8,8,0,0,1-.31-1.53S21.63,23,21.65,22.86Z"/><path d="M34.09,25.51c-.36,1.09,1-.08,2.12.29s1.49,2.14,1.86,1a2.1,2.1,0,1,0-4-1.33Z"/><path d="M24,26.25c.21,1.14.85-.56,2-.77s2.34,1.14,2.13,0a2.1,2.1,0,1,0-4.12.77Z"/><path class="cls-21" d="M28.09,18.55c-3.38.66-4.34,1.37-4.34,1.37"/><path class="cls-21" d="M35.77,19.44c3.38,1,3.94,1.62,3.94,1.62"/><path class="cls-22" d="M32.57,28.5s0,1.82-1.53,1.5c0,0-1.43,0-1.6-1,0,0-1,1.68,1.57,1.67S32.57,28.5,32.57,28.5Z"/><path class="cls-22" d="M39.46,28.52a5.45,5.45,0,0,1-6.9-.58s.41,3.56,3.28,3.81S39.54,30.11,39.46,28.52Z"/><path class="cls-22" d="M29.1,28.22a5.47,5.47,0,0,1-6.91-.59s.42,3.57,3.28,3.82S29.17,29.81,29.1,28.22Z"/><circle class="cls-23" cx="36.42" cy="25.68" r="4.08"/><circle class="cls-23" cx="26.02" cy="25.56" r="4.08" transform="translate(-2.5 2.82) rotate(-5.92)"/><path class="cls-23" d="M30.07,25.14a2,2,0,0,1,2.3.08"/><path class="cls-24" d="M29.45,27.82c0,.07,0,.13,0,.2-.2,1.31.44,1.95,1.39,2,1.32,0,1.57-.19,1.77-1.5a1.36,1.36,0,0,0,0-.2"/><line class="cls-25" x1="36.86" y1="28.72" x2="39.04" y2="26.93"/><line class="cls-26" x1="26.86" y1="28.02" x2="28.81" y2="26.16"/><path class="cls-27" d="M28.07,32.64c-.55.47,1,1.55,2,1.78s2.28-.17,2.43-.88-.84-1.46-1.85-1.68A3,3,0,0,0,28.07,32.64Z"/><path class="cls-28" d="M27.8,33.15c-.16.71,1,1.55,2,1.78s2.27-.17,2.43-.87-.84-1.46-1.86-1.69S28,32.45,27.8,33.15Z"/><path class="cls-29" d="M32.45,33.58s-.81-3-4.11-1.09c-.18.08-.06.06-.25.14a7.16,7.16,0,0,1,2.09.21A8.73,8.73,0,0,1,32.45,33.58Z"/><path class="cls-30" d="M32.78,33.68l-.33-.1a2.17,2.17,0,0,1-2,1.35,2.23,2.23,0,0,1-2.57-2.24v0"/><ellipse cx="27.51" cy="32.62" rx="0.28" ry="0.48" transform="translate(-8.74 55.13) rotate(-81.71)"/><path d="M32.11,33.83c.07.22.42.32.78.22s.61-.38.54-.6-.41-.33-.77-.22S32.05,33.6,32.11,33.83Z"/><path class="cls-31" d="M23.24,9.87a2.53,2.53,0,0,1,.18-1.55,2.44,2.44,0,0,1-.28-.77,2.41,2.41,0,0,1,.79-2.36v0a2.38,2.38,0,0,1,.95-2.47A2.15,2.15,0,0,1,26.53.58a1.89,1.89,0,0,1,1.24.17,1.79,1.79,0,0,1,.87-.43A1.93,1.93,0,0,1,30,.55a1.9,1.9,0,0,1,.8-.37,2.11,2.11,0,0,1,2.14,1A2.08,2.08,0,0,1,34.33,0a2.18,2.18,0,0,1,2.29,1.25,1.91,1.91,0,0,1,1-.59,2,2,0,0,1,1.8.58,1.84,1.84,0,0,1,1-.52,2.1,2.1,0,0,1,2.17,1,2.26,2.26,0,0,1,2.53,1.94,2.68,2.68,0,0,1,0,.89,2.63,2.63,0,0,1,.58,1.21,2.59,2.59,0,0,1-.16,1.52,3.31,3.31,0,0,1,.12.42,2.77,2.77,0,0,1,0,.81,2.62,2.62,0,0,1,.6,1.24A2.45,2.45,0,0,1,45.73,12a2.45,2.45,0,0,1-.57,2.06l0,.11a2.26,2.26,0,0,1-1.62,2.75,2,2,0,0,1-1.46-.31A2.06,2.06,0,0,1,40.59,18a2.22,2.22,0,0,1-2.47-1.72,4.17,4.17,0,0,1-.37-.36,2.26,2.26,0,0,1-1.19-.82l-.27.08a2.05,2.05,0,0,1-1.87-.64,1.61,1.61,0,0,1-.39.12,2,2,0,0,1-1.72-.5,1.76,1.76,0,0,1-.5.18,2.15,2.15,0,0,1-2.25-1.17,1.9,1.9,0,0,1-1,.57,2.1,2.1,0,0,1-2.06-.87,2.21,2.21,0,0,1-1.73-1.12A2.45,2.45,0,0,1,23.24,9.87Z"/><path class="cls-32" d="M21.91,22.05a1,1,0,0,1-.37-.68,1.05,1.05,0,0,1,.31-.84,1,1,0,0,1-.47-.76,1.06,1.06,0,0,1,.94-1.16c.25,0-.24-1-.05-.89a3.88,3.88,0,0,1,1.42-.16s0,0,0,.07a.73.73,0,0,1-.65.81.76.76,0,0,1-.82-.66.72.72,0,0,1,.05-.33,1,1,0,0,1-.28-.59,1,1,0,0,1,.83-1.13,1.6,1.6,0,0,1-.11-.39A1.43,1.43,0,0,1,24,13.77h.18a1.43,1.43,0,0,1,1.24-1.13,1.47,1.47,0,0,1,.81.15,1.41,1.41,0,0,1,2.13-.53,1.35,1.35,0,0,1,.91-.47,1.41,1.41,0,0,1,1.52,1,1.44,1.44,0,0,1,.78-.33,1.4,1.4,0,0,1,1.43.8l.09,0a1.43,1.43,0,0,1,1.26.53.76.76,0,0,1,.3-.1,1.12,1.12,0,0,1,.49.07,1.1,1.1,0,0,1,.76-.44A1.08,1.08,0,0,1,37,14a1.3,1.3,0,0,1,.38.22,1.45,1.45,0,0,1,1.33,0l.14.08a1.08,1.08,0,0,1,.69.63,1.48,1.48,0,0,1,.9.1,1.44,1.44,0,0,1,.81,1.15,1.42,1.42,0,0,1,1.61,1.6,1,1,0,0,1,.16.06,1.43,1.43,0,0,1,.69,1.9,1.48,1.48,0,0,1-.65.66,1,1,0,0,1-.09.54,1,1,0,0,1-.44.45.71.71,0,0,1,.24.06.74.74,0,0,1,.35,1,.68.68,0,0,1-.41.37l.05,0a1,1,0,0,1-.29,2,1,1,0,0,1,.1,1,1,1,0,0,1-.41.43.75.75,0,0,1,.06.71.74.74,0,1,1-1.34-.63.83.83,0,0,1,.11-.15,1,1,0,0,1-.31-1.26,1,1,0,0,1,.78-.57h0a1,1,0,0,1-1.15-1.44,1.94,1.94,0,0,1-.39-.12,1.43,1.43,0,0,1-.68-1.9l.05-.08a1.43,1.43,0,0,1-.3-1.6,1.34,1.34,0,0,1-.94-.09,1.42,1.42,0,0,1-.81-1.13,1.42,1.42,0,0,1-1.77.46,1.48,1.48,0,0,1-.55-.47,1.45,1.45,0,0,1-.83-1,1.4,1.4,0,0,1-.93.49,1.43,1.43,0,0,1-1.46-.84,1.38,1.38,0,0,1-.77.33,1.43,1.43,0,0,1-1.52-1,1.41,1.41,0,0,1-1.13.8,1.38,1.38,0,0,1-.92-.22,1.43,1.43,0,0,1-.81,1.41s0,0,0,.08a1.42,1.42,0,0,1-1.27,1.57,1.4,1.4,0,0,1-.5,0,1,1,0,0,1-.93,1.11,1,1,0,0,1-.67-.18h0a1.06,1.06,0,0,1,.47.75,1,1,0,0,1-.59,1,1.15,1.15,0,0,1,.11.31.74.74,0,0,1-1.47.15A.72.72,0,0,1,21.91,22.05Z"/><path class="cls-33" d="M10.21,78s9.22,8.41,29,4.95c0,0-2.95-4.31,1.12-17.06,0,0,2-4.15,1.35-7.65,0,0,4.35-2,3.18-4.62,0,0,2.27-.69,1.46-3.85,0,0-3.09-1.38-3.46-3.39s-4.52-4.61-8.18-3.11c0,0-2.18,4.53-8.17,3.39s-5-3.66-5.11-5.54c0,0-5.14-.9-6.06,2.3,0,0-1.65,2.61-7,3.78a8,8,0,0,1,.77,4.66C8.68,54.23,11,56.3,11,56.3a3.59,3.59,0,0,1,2.22,2c.81,1.64-.33,2.66,1.7,4.92C14.9,63.18,16,75.32,10.21,78Z"/><path class="cls-34" d="M16.49,75.28c-.22,1.59,3.53,2.56,8.58,3.25s9.51.86,9.73-.74-5,.28-10-.41S16.71,73.68,16.49,75.28Z"/><path class="cls-34" d="M19.63,70.86c-.22,1.59,3.52,2.56,8.58,3.25s9.5.86,9.72-.74-5,.28-10-.41S19.84,69.26,19.63,70.86Z"/><path class="cls-35" d="M18.81,49c-.22,1.59,3.53,2.56,8.58,3.25s9.51.85,9.73-.74-5,.28-10-.41S19,47.41,18.81,49Z"/><path class="cls-35" d="M20.26,57.07c-.21,1.59,3.53,2.56,8.59,3.25s9.5.86,9.72-.74-5,.29-10-.41S20.48,55.47,20.26,57.07Z"/><line class="cls-36" x1="19.73" y1="106.76" x2="21.06" y2="97.31"/><line class="cls-37" x1="27.21" y1="97.27" x2="21.06" y2="97.31"/><line class="cls-37" x1="17.42" y1="94.43" x2="21.06" y2="97.31"/></g></g></svg>