<svg xmlns="http://www.w3.org/2000/svg" xmlns:xlink="http://www.w3.org/1999/xlink" viewBox="0 0 303 288"><defs><style>.cls-1{fill:url(#linear-gradient);}.cls-2{fill:none;stroke:#1c1b1b;stroke-linecap:round;stroke-miterlimit:10;stroke-width:3px;}.cls-3{fill:url(#linear-gradient-2);}.cls-4{fill:url(#linear-gradient-3);}.cls-5{fill:url(#linear-gradient-4);}.cls-6{fill:url(#linear-gradient-5);}.cls-7{fill:url(#linear-gradient-6);}.cls-8{fill:#1c1b1b;}.cls-9{fill:url(#linear-gradient-7);}.cls-10{fill:url(#linear-gradient-8);}</style><linearGradient id="linear-gradient" x1="-7.41" y1="127.58" x2="456.37" y2="127.58" gradientUnits="userSpaceOnUse"><stop offset="0.03" stop-color="#fdf3e5"/><stop offset="0.98" stop-color="#fdcc98"/></linearGradient><linearGradient id="linear-gradient-2" x1="234.08" y1="157.02" x2="274.12" y2="157.02" gradientTransform="translate(-33.28 80.3) rotate(-10.41)" gradientUnits="userSpaceOnUse"><stop offset="0" stop-color="#53cf93"/><stop offset="0.15" stop-color="#4ecc91"/><stop offset="0.34" stop-color="#3fc18d"/><stop offset="0.54" stop-color="#27b185"/><stop offset="0.65" stop-color="#17a680"/><stop offset="0.98" stop-color="#177a77"/></linearGradient><linearGradient id="linear-gradient-3" x1="143.35" y1="-71.99" x2="167.32" y2="439.53" gradientUnits="userSpaceOnUse"><stop offset="0.02" stop-color="#fff"/><stop offset="0.29" stop-color="#fff"/><stop offset="0.39" stop-color="#fafafa"/><stop offset="0.51" stop-color="#ebebeb"/><stop offset="0.64" stop-color="#d3d3d3"/><stop offset="0.77" stop-color="#b0b0b0"/><stop offset="0.91" stop-color="#858585"/><stop offset="1" stop-color="#666"/></linearGradient><linearGradient id="linear-gradient-4" x1="185.97" y1="181.07" x2="235.65" y2="181.07" xlink:href="#linear-gradient-2"/><linearGradient id="linear-gradient-5" x1="30.92" y1="105.38" x2="213.3" y2="205.16" gradientUnits="userSpaceOnUse"><stop offset="0.03" stop-color="#ff8521"/><stop offset="0.17" stop-color="#fd8024"/><stop offset="0.33" stop-color="#f9712c"/><stop offset="0.51" stop-color="#f1593a"/><stop offset="0.55" stop-color="#ef533d"/><stop offset="0.95" stop-color="#ef4157"/></linearGradient><linearGradient id="linear-gradient-6" x1="59.29" y1="224.92" x2="108.97" y2="224.92" gradientTransform="translate(71.2 -17.35) rotate(15.1)" xlink:href="#linear-gradient-2"/><linearGradient id="linear-gradient-7" x1="243.4" y1="75.78" x2="264.93" y2="216.07" xlink:href="#linear-gradient-3"/><linearGradient id="linear-gradient-8" x1="207.7" y1="142.55" x2="338.55" y2="151.48" gradientUnits="userSpaceOnUse"><stop offset="0.02" stop-color="#fff"/><stop offset="0.29" stop-color="#fff"/><stop offset="0.34" stop-color="#fafafa"/><stop offset="0.4" stop-color="#ebebeb"/><stop offset="0.47" stop-color="#d3d3d3"/><stop offset="0.54" stop-color="#b0b0b0"/><stop offset="0.61" stop-color="#858585"/><stop offset="0.65" stop-color="#666"/></linearGradient></defs><g id="Layer_7" data-name="Layer 7"><ellipse class="cls-1" cx="170.76" cy="127.58" rx="127.11" ry="116.79"/><path class="cls-2" d="M59,85S34.46,104.41,23.22,97.94c-8.49-4.89-4.15-11.53-1.52-14.48a8.48,8.48,0,0,1,3.52-2.35c3.7-1.27,11.62-2.7,15.71,6.11C46.37,99,27.31,109.51,27.31,109.51L18.23,116"/><path class="cls-3" d="M266.29,195.52a6.21,6.21,0,0,1-1.82,7.76,43.34,43.34,0,0,1-30.24,9.8,6.2,6.2,0,0,1-6.09-5.26q-1.75-14.87-3.5-29.72a6.49,6.49,0,0,1,2.23-5.51,25.8,25.8,0,0,1,11.49-6.05,24.88,24.88,0,0,1,8.64-.46,6.37,6.37,0,0,1,4.9,3.18Z"/><ellipse class="cls-4" cx="152.93" cy="132.4" rx="109.28" ry="94.89"/><path class="cls-5" d="M233.19,228.59c1.72,3.14.8,7.1-2.27,9.63a53.2,53.2,0,0,1-14.41,8.51,54.17,54.17,0,0,1-23.11,3.66c-4-.24-7.13-2.94-7.55-6.53q-2.17-18.44-4.34-36.87a8,8,0,0,1,2.77-6.85,32,32,0,0,1,14.25-7.5,30.75,30.75,0,0,1,10.72-.57,7.93,7.93,0,0,1,6.09,3.94Z"/><path class="cls-6" d="M145.39,227.29c30.48,3,44.12-33.79,21.16-54A63.45,63.45,0,0,0,156.34,166,65.4,65.4,0,0,0,145.58,161l-29.9-10.87s-19.74-7.05-21.76-23.92S98.25,93.1,98.25,93.1s8.64-25-14.27-27S59,85,59,85s7.43-5.78,11.32-2-1.73,13-6.48,18.42S48.39,125.75,49,131.73a13.22,13.22,0,0,1-.17,3.09c-3.41,24.7,13.37,48.46,41.45,57.09.92.28,1.86.56,2.82.83,21.9,6.22,15.33,25,15.33,25s4.23,6.35,31.9,9.1Z"/><path class="cls-7" d="M114.12,240.56c.2,3.57-2.32,6.75-6.18,7.72a53.4,53.4,0,0,1-16.68,1.47,54.31,54.31,0,0,1-22.43-6.64c-3.53-2-5.17-5.72-4-9.15q6-17.58,12-35.15a8,8,0,0,1,5.45-5,32.08,32.08,0,0,1,16.1-.63,31.14,31.14,0,0,1,9.92,4.1,8,8,0,0,1,3.79,6.18Q113.08,222,114.12,240.56Z"/><path class="cls-8" d="M184.07,57.07a6.2,6.2,0,0,1-8.25,5.86,57.36,57.36,0,0,0-37.61,0A6.21,6.21,0,0,1,130,57.07h0a6.2,6.2,0,0,1,3.49-5.59,54.31,54.31,0,0,1,47.14,0,6.2,6.2,0,0,1,3.49,5.59Z"/><ellipse class="cls-8" cx="204.34" cy="116.98" rx="6.03" ry="11.7"/><ellipse class="cls-8" cx="235.67" cy="96.12" rx="5.06" ry="9.81"/><path class="cls-9" d="M270.5,116H250.93a7.42,7.42,0,0,0-1.05-.08,7.2,7.2,0,0,0-1,.08h-1v.19c-7.77,2-13.78,14.86-13.78,30.52s6,28.57,13.78,30.52v.19h1a7.84,7.84,0,0,0,2.09,0H270.5Z"/><ellipse class="cls-10" cx="268.94" cy="146.73" rx="15.83" ry="30.78"/><ellipse class="cls-8" cx="263.92" cy="150.74" rx="4.55" ry="8.78" transform="translate(-20.73 44.21) rotate(-9.22)"/><ellipse class="cls-8" cx="274.84" cy="137.72" rx="4.55" ry="8.78" transform="translate(-18.51 45.79) rotate(-9.22)"/></g></svg>