<svg xmlns="http://www.w3.org/2000/svg" xmlns:xlink="http://www.w3.org/1999/xlink" viewBox="0 0 268.04 212.97"><defs><style>.cls-1{fill:none;stroke:#1c1b1b;stroke-linecap:round;stroke-miterlimit:10;stroke-width:3px;}.cls-2{fill:url(#linear-gradient);}.cls-3{fill:url(#linear-gradient-2);}.cls-4{fill:url(#linear-gradient-3);}.cls-5{fill:url(#linear-gradient-4);}.cls-6{fill:url(#linear-gradient-5);}.cls-7{fill:#1c1b1b;}.cls-8{fill:url(#linear-gradient-6);}.cls-9{fill:url(#linear-gradient-7);}</style><linearGradient id="linear-gradient" x1="209.55" y1="122.63" x2="249.59" y2="122.63" gradientTransform="translate(-19.67 72.18) rotate(-10.41)" gradientUnits="userSpaceOnUse"><stop offset="0" stop-color="#53cf93"/><stop offset="0.15" stop-color="#4ecc91"/><stop offset="0.34" stop-color="#3fc18d"/><stop offset="0.54" stop-color="#27b185"/><stop offset="0.65" stop-color="#17a680"/><stop offset="0.98" stop-color="#177a77"/></linearGradient><linearGradient id="linear-gradient-2" x1="126.62" y1="-109.51" x2="150.59" y2="402.01" gradientUnits="userSpaceOnUse"><stop offset="0.02" stop-color="#fff"/><stop offset="0.29" stop-color="#fff"/><stop offset="0.39" stop-color="#fafafa"/><stop offset="0.51" stop-color="#ebebeb"/><stop offset="0.64" stop-color="#d3d3d3"/><stop offset="0.77" stop-color="#b0b0b0"/><stop offset="0.91" stop-color="#858585"/><stop offset="1" stop-color="#666"/></linearGradient><linearGradient id="linear-gradient-3" x1="161.44" y1="146.68" x2="211.12" y2="146.68" xlink:href="#linear-gradient"/><linearGradient id="linear-gradient-4" x1="14.19" y1="67.86" x2="196.57" y2="167.65" gradientUnits="userSpaceOnUse"><stop offset="0.03" stop-color="#ff8521"/><stop offset="0.17" stop-color="#fd8024"/><stop offset="0.33" stop-color="#f9712c"/><stop offset="0.51" stop-color="#f1593a"/><stop offset="0.55" stop-color="#ef533d"/><stop offset="0.95" stop-color="#ef4157"/></linearGradient><linearGradient id="linear-gradient-5" x1="52.58" y1="180.5" x2="102.26" y2="180.5" gradientTransform="translate(49.37 -10.23) rotate(15.1)" xlink:href="#linear-gradient"/><linearGradient id="linear-gradient-6" x1="226.67" y1="38.27" x2="248.2" y2="178.56" xlink:href="#linear-gradient-2"/><linearGradient id="linear-gradient-7" x1="190.97" y1="105.04" x2="321.82" y2="113.97" gradientUnits="userSpaceOnUse"><stop offset="0.02" stop-color="#fff"/><stop offset="0.29" stop-color="#fff"/><stop offset="0.34" stop-color="#fafafa"/><stop offset="0.4" stop-color="#ebebeb"/><stop offset="0.47" stop-color="#d3d3d3"/><stop offset="0.54" stop-color="#b0b0b0"/><stop offset="0.61" stop-color="#858585"/><stop offset="0.65" stop-color="#666"/></linearGradient></defs><g id="Layer_2" data-name="Layer 2"><g id="Layer_7" data-name="Layer 7"><path class="cls-1" d="M42.24,47.49S17.73,66.89,6.49,60.43C-2,55.54,2.34,48.9,5,46A8.38,8.38,0,0,1,8.49,43.6c3.7-1.27,11.62-2.71,15.71,6.1C29.64,61.45,10.58,72,10.58,72L1.5,78.43"/><path class="cls-2" d="M249.56,158a6.2,6.2,0,0,1-1.82,7.76,43,43,0,0,1-11.63,6.86,43.77,43.77,0,0,1-18.61,2.95,6.2,6.2,0,0,1-6.09-5.27q-1.75-14.85-3.5-29.71a6.51,6.51,0,0,1,2.23-5.52,25.8,25.8,0,0,1,11.49-6,24.88,24.88,0,0,1,8.64-.46,6.35,6.35,0,0,1,4.9,3.18Z"/><ellipse class="cls-3" cx="136.2" cy="94.89" rx="109.28" ry="94.89"/><path class="cls-4" d="M216.46,191.08c1.71,3.14.8,7.09-2.27,9.63a53.11,53.11,0,0,1-14.42,8.5,54.29,54.29,0,0,1-23.1,3.67c-4-.24-7.13-2.94-7.55-6.54q-2.18-18.43-4.34-36.87a8,8,0,0,1,2.77-6.84,31.92,31.92,0,0,1,14.25-7.51,31.24,31.24,0,0,1,10.72-.57,7.94,7.94,0,0,1,6.09,3.95Z"/><path class="cls-5" d="M128.66,189.78c30.48,3,44.12-33.8,21.16-54.06a63.43,63.43,0,0,0-10.21-7.26,66.27,66.27,0,0,0-10.76-5L99,112.64s-19.74-7.06-21.76-23.92,4.33-33.14,4.33-33.14,8.64-25-14.27-27-25,18.94-25,18.94,7.43-5.78,11.32-2-1.73,13-6.48,18.43S31.66,88.24,32.23,94.22a13.25,13.25,0,0,1-.17,3.09C28.65,122,45.43,145.77,73.51,154.39c.92.28,1.86.56,2.82.83,21.9,6.22,15.33,25,15.33,25s4.23,6.36,31.9,9.11Z"/><path class="cls-6" d="M97.39,203.05c.2,3.57-2.32,6.75-6.18,7.72a53.4,53.4,0,0,1-16.68,1.47,54.3,54.3,0,0,1-22.43-6.65c-3.53-1.94-5.17-5.72-4-9.15L60.05,161.3a8,8,0,0,1,5.45-5,32,32,0,0,1,16.1-.63,31.25,31.25,0,0,1,9.92,4.09A8,8,0,0,1,95.31,166Q96.35,184.5,97.39,203.05Z"/><path class="cls-7" d="M167.34,19.55a6.21,6.21,0,0,1-8.25,5.87,57.45,57.45,0,0,0-37.61,0,6.21,6.21,0,0,1-8.26-5.86h0A6.17,6.17,0,0,1,116.71,14a54.31,54.31,0,0,1,47.14,0,6.19,6.19,0,0,1,3.49,5.58Z"/><ellipse class="cls-7" cx="187.61" cy="79.46" rx="6.03" ry="11.7"/><ellipse class="cls-7" cx="218.94" cy="58.6" rx="5.06" ry="9.81"/><path class="cls-8" d="M253.77,78.43H234.2a9.26,9.26,0,0,0-1-.07,9,9,0,0,0-1.05.07h-1v.19c-7.77,1.95-13.78,14.87-13.78,30.52s6,28.57,13.78,30.52v.19h1a6.87,6.87,0,0,0,2.09,0h19.58Z"/><ellipse class="cls-9" cx="252.21" cy="109.22" rx="15.83" ry="30.78"/><ellipse class="cls-7" cx="247.19" cy="113.23" rx="4.55" ry="8.78" transform="translate(-14.94 41.05) rotate(-9.22)"/><ellipse class="cls-7" cx="258.11" cy="100.21" rx="4.55" ry="8.78" transform="translate(-12.72 42.63) rotate(-9.22)"/></g></g></svg>