<svg xmlns="http://www.w3.org/2000/svg" xmlns:xlink="http://www.w3.org/1999/xlink" viewBox="0 0 11.6 12.3"><defs><style>.cls-1{fill:url(#New_Gradient_Swatch);}.cls-2{fill:url(#New_Gradient_Swatch-2);}</style><linearGradient id="New_Gradient_Swatch" x1="-1.98" y1="2.57" x2="13.12" y2="10.37" gradientUnits="userSpaceOnUse"><stop offset="0.13" stop-color="#c1c8ea"/><stop offset="0.14" stop-color="#b9bfe7"/><stop offset="0.2" stop-color="#9fa1de"/><stop offset="0.26" stop-color="#8b8ad7"/><stop offset="0.32" stop-color="#7d7ad2"/><stop offset="0.4" stop-color="#7570cf"/><stop offset="0.49" stop-color="#726dce"/><stop offset="0.67" stop-color="#6e6fd1"/><stop offset="0.83" stop-color="#6477dc"/><stop offset="0.95" stop-color="#5680e9"/></linearGradient><linearGradient id="New_Gradient_Swatch-2" x1="5.42" y1="11.56" x2="5.42" y2="11.56" gradientTransform="translate(16.96 6.09) rotate(89.74)" xlink:href="#New_Gradient_Swatch"/></defs><g id="Layer_2" data-name="Layer 2"><g id="Layer_1-2" data-name="Layer 1"><path class="cls-1" d="M10.62,11.34A2.76,2.76,0,0,0,11,7.47a2.76,2.76,0,0,0-3.88.3,3.26,3.26,0,0,0-.68,1A8.37,8.37,0,0,1,4.69,7.4,8.25,8.25,0,0,1,3.18,5.3,3.43,3.43,0,0,0,4.3,4.57,2.79,2.79,0,0,0,4.64.69,2.69,2.69,0,0,0,.76,1C-.28,2.22-.57,7,1.94,9.55A10.36,10.36,0,0,0,8,12.3l0,0A3.16,3.16,0,0,0,10.62,11.34Z"/><rect class="cls-2" x="5.42" y="11.56" transform="translate(-6.16 16.93) rotate(-89.74)"/></g></g></svg>